<svg version="1.1" xmlns="http://www.w3.org/2000/svg" xmlns:xlink="http://www.w3.org/1999/xlink" width="100%" height="100%" viewBox="0,0,256,256"><g fill-opacity="0" fill="#dddddd" fill-rule="nonzero" stroke="none" stroke-width="1" stroke-linecap="butt" stroke-linejoin="miter" stroke-miterlimit="10" stroke-dasharray="" stroke-dashoffset="0" font-family="none" font-weight="none" font-size="none" text-anchor="none" style="mix-blend-mode: normal"><path d="M0,256v-256h256v256z" id="bgRectangle"></path></g><g fill="none" fill-rule="nonzero" stroke="none" stroke-width="1" stroke-linecap="butt" stroke-linejoin="miter" stroke-miterlimit="10" stroke-dasharray="" stroke-dashoffset="0" font-family="none" font-weight="none" font-size="none" text-anchor="none" style="mix-blend-mode: normal"><g transform="scale(0.5,0.5)"><path d="M501,256.148h-52.69c0.0019,-7.47407 -0.42212,-14.94218 -1.27,-22.368l52.26,-6.72c1.13801,9.65415 1.70566,19.36701 1.7,29.088z" fill="#155792"></path><path d="M391.49,256.148v0l-112.41,0.062h-0.06c0.00832,-0.06967 0.01166,-0.13985 0.01,-0.21c0,-0.21 0,-0.42 -0.02,-0.63h0.07l111.59,-14.35c0.59175,5.02036 0.86563,10.07309 0.82,15.128z" fill="#5d93e5"></path><path d="M448.31,256.148h-56.82c0.04563,-5.05491 -0.22825,-10.10764 -0.82,-15.128l56.37,-7.24c0.84788,7.42582 1.2719,14.89393 1.27,22.368z" fill="#7b73ed"></path><path d="M391.49,256.148h56.82c-0.11,106.11 -86.17,192.162 -192.31,192.162v-56.82c74.75944,-0.0286 135.37969,-60.58263 135.49,-135.342z" fill="#630d1d"></path><path d="M303.85,129.21l20.04,-53.19l18.57,-49.32v-0.01c83.99,31.69 146,108.2 156.84,200.37l-52.26,6.72l-56.37,7.24l-111.59,14.35h-0.07c-0.24384,-9.31923 -6.08897,-17.56954 -14.8,-20.89z" fill="#4bd3d3"></path><path d="M500.78,256.148h0.22c-0.05,58.17 -19.23,110.242 -53.14,152.242c-8.36711,-7.85349 -21.51651,-7.43711 -29.37,0.93c-7.85349,8.36711 -7.43711,21.51651 0.93,29.37c-43.55,39.75 -99.81,62.31 -163.42,62.31v-52.69c106.14,0 192.2,-86.052 192.31,-192.162z" fill="#6a1e4e"></path><path d="M279.08,256.21l112.41,-0.062c-0.11031,74.75937 -60.73056,135.3134 -135.49,135.342v-112.46c12.63702,0.0032 22.91293,-10.18343 23.02,-22.82z" fill="#e32ac4"></path><path d="M303.85,129.21l-39.64,105.27c-2.62068,-1.00337 -5.40381,-1.51525 -8.21,-1.51v-112.46c16.34536,-0.02286 32.55879,2.92504 47.85,8.7z" fill="#5d93e5"></path><path d="M256,232.92v0.05c-6.10802,-0.00027 -11.96594,2.42602 -16.28496,6.74504c-4.31902,4.31902 -6.7453,10.17695 -6.74504,16.28496c-0.00166,0.07015 0.00168,0.14033 0.01,0.21h-0.06l-112.41,-0.062v0c0,-74.83 60.66,-135.638 135.49,-135.638z" fill="#e32ac4"></path><path d="M256,279.08v112.41c-29.36,0 -58.2,-10.13 -80.39,-26h-0.01c5.27675,-5.28131 7.31363,-12.98803 5.33536,-20.18683c-1.97826,-7.1988 -7.66738,-12.78239 -14.90195,-14.62553c-7.23458,-1.84314 -14.90181,0.33766 -20.08341,5.71236c-15.79,-22.12 -25.39,-50.992 -25.44,-80.242l112.41,0.062h0.06c0.10707,12.63657 10.38298,22.8232 23.02,22.82z" fill="#5d93e5"></path><path d="M256,391.49v56.82c-106.14,0 -192.2,-86.052 -192.31,-192.162h56.82c0.05,29.25 9.65,58.122 25.44,80.242c-7.9124,8.20728 -7.73196,21.25784 0.40434,29.24321c8.1363,7.98537 21.18795,7.92146 29.24566,-0.14321h0.01c22.19,15.87 51.03,26 80.39,26z" fill="#7b73ed"></path><path d="M256,500.99v0.01c-135.24,0 -244.89,-109.642 -245,-244.852h52.69c0.11,106.11 86.17,192.162 192.31,192.162z" fill="#155792"></path><path d="M256,11.43v52.26c-106.21,0 -192.31,86.248 -192.31,192.458h-52.69c0,-37.65 9.38,-75.908 24.55,-107.778l0.01,-0.01c9.79475,5.22923 21.97003,1.83284 27.6436,-7.71139c5.67358,-9.54423 2.83998,-21.86266 -6.4336,-27.96861c44.55,-61.11 117.81,-101.68 199.23,-101.68z" fill="#6a1e4e"></path><path d="M342.46,26.69v0.01l-18.57,49.32c-21.69861,-8.18007 -44.70072,-12.35765 -67.89,-12.33v-52.69c29.53103,-0.03419 58.82399,5.28164 86.46,15.69z" fill="#155792"></path><path d="M323.89,76.02l-20.04,53.19c-15.29121,-5.77496 -31.50464,-8.72286 -47.85,-8.7v-56.82c23.18928,-0.02765 46.19139,4.14993 67.89,12.33z" fill="#7b73ed"></path><path d="M256,63.69v56.82c-74.83,0 -135.49,60.808 -135.49,135.638h-56.82c0,-106.21 86.1,-192.458 192.31,-192.458z" fill="#630d1d"></path><circle cx="160.915" cy="350.797" r="21.5" fill="#ffffff"></circle><circle cx="-225.34119" cy="562.68412" transform="rotate(-67.5)" r="21.5" fill="#ffffff"></circle><circle cx="256" cy="256" r="24" fill="#000000"></circle><path d="M42,255.926c0,-124.809 93.326,-227.744 214,-242.981v-1.945c-81.42,0 -154.68,40.57 -199.23,101.68c9.27358,6.10595 12.10718,18.42437 6.4336,27.96861c-5.67358,9.54423 -17.84886,12.94062 -27.6436,7.71139l-0.01,-0.064c-15.96177,33.67381 -24.34207,70.43926 -24.55,107.704h31c0,0 0,-0.024 0,-0.074z" fill="#551c32"></path><path d="M42,256h-31c0.11,135 109.76,245 245,245v-1.945c-122.34234,-15.60548 -214.01215,-119.72139 -214,-243.055z" fill="#15004d"></path><circle cx="45.34" cy="130.037" r="21.5" fill="#ffffff"></circle><path d="M73.245,195.671c-1.52619,-0.45079 -3.16895,-0.27682 -4.56686,0.48365c-1.39791,0.76047 -2.43645,2.04513 -2.88714,3.57135c-2.3345,7.91372 -4.17142,15.9658 -5.5,24.109c-0.5337,3.27033 1.68469,6.35414 4.955,6.888c0.32203,0.05238 0.64774,0.07879 0.974,0.079c2.93793,-0.00378 5.441,-2.13439 5.914,-5.034c1.24868,-7.64757 2.97404,-15.20964 5.166,-22.642c0.4511,-1.52632 0.27728,-3.16934 -0.48321,-4.56748c-0.76049,-1.39814 -2.04534,-2.43684 -3.57179,-2.88752z" fill="#81eb83"></path><path d="M296.8,437.83c-7.56362,1.6874 -15.22518,2.9011 -22.94,3.634c-3.19163,0.29809 -5.58524,3.05229 -5.43549,6.2543c0.14975,3.20202 2.78997,5.72079 5.99549,5.7197c0.19,0 0.38133,-0.009 0.574,-0.027c8.21327,-0.78048 16.36981,-2.073 24.422,-3.87c3.21013,-0.7438 5.2197,-3.93727 4.50133,-7.15319c-0.71837,-3.21592 -3.89583,-5.2507 -7.11733,-4.55781z" fill="#81eb83"></path><path d="M339.557,422.567c-6.9245,3.4797 -14.06014,6.52232 -21.365,9.11c-2.05462,0.68887 -3.57813,2.43211 -3.98564,4.56047c-0.40751,2.12837 0.36432,4.31108 2.01916,5.71019c1.65485,1.3991 3.93553,1.79715 5.96648,1.04134c7.77805,-2.75612 15.3762,-5.99577 22.75,-9.7c2.96107,-1.48813 4.15513,-5.09493 2.667,-8.056c-1.48813,-2.96107 -5.09493,-4.15513 -8.056,-2.667z" fill="#81eb83"></path><path d="M416.314,362.425c-1.2969,-0.92219 -2.90702,-1.29141 -4.47615,-1.02642c-1.56913,0.26499 -2.96871,1.14248 -3.89085,2.43942c-4.49399,6.31671 -9.37501,12.34893 -14.615,18.062c-2.24007,2.44193 -2.07643,6.23743 0.3655,8.4775c2.44193,2.24007 6.23743,2.07643 8.4775,-0.3655c5.57588,-6.08081 10.76982,-12.5011 15.552,-19.224c1.91764,-2.69992 1.28523,-6.44297 -1.413,-8.363z" fill="#81eb83"></path><path d="M377.331,397.39c-5.87928,5.04823 -12.06581,9.72721 -18.524,14.01c-1.83896,1.16149 -2.90534,3.22725 -2.78709,5.39908c0.11825,2.17183 1.4026,4.1096 3.35679,5.06457c1.95419,0.95497 4.27218,0.77757 6.0583,-0.46364c6.87369,-4.5575 13.458,-9.53707 19.715,-14.91c2.43783,-2.17753 2.68409,-5.90578 0.55384,-8.38504c-2.13025,-2.47925 -5.85308,-2.79715 -8.37284,-0.71496z" fill="#81eb83"></path><path d="M164.668,418.427c-6.7534,-3.80887 -13.26361,-8.03367 -19.493,-12.65c-2.66229,-1.97331 -6.42019,-1.41479 -8.3935,1.2475c-1.97331,2.66229 -1.41479,6.42019 1.2475,8.3935c6.63045,4.91281 13.5598,9.40881 20.748,13.462c1.86993,1.09024 4.18213,1.08878 6.05068,-0.00381c1.86856,-1.09259 3.00377,-3.10692 2.9707,-5.27121c-0.03307,-2.16429 -1.22931,-4.143 -3.13038,-5.17798z" fill="#81eb83"></path><path d="M87.809,336.246c-1.44124,-2.96737 -5.00769,-4.21465 -7.98414,-2.79227c-2.97645,1.42238 -4.24633,4.98085 -2.84286,7.96627c3.55835,7.43939 7.57646,14.65001 12.031,21.59c1.79078,2.78904 5.50346,3.59828 8.2925,1.8075c2.78904,-1.79078 3.59828,-5.50346 1.8075,-8.2925c-4.18511,-6.51858 -7.9604,-13.29134 -11.304,-20.279z" fill="#81eb83"></path><path d="M180.093,439.262c7.62805,3.15991 15.44632,5.83947 23.409,8.023c3.19607,0.87537 6.49663,-1.00593 7.372,-4.202c0.87537,-3.19607 -1.00593,-6.49663 -4.202,-7.372c-7.478,-2.04958 -14.82008,-4.56619 -21.983,-7.535c-3.06131,-1.27025 -6.57275,0.18169 -7.843,3.243c-1.27025,3.06131 0.18169,6.57275 3.243,7.843z" fill="#81eb83"></path><path d="M79.434,315.622c-2.47781,-7.34263 -4.4931,-14.83331 -6.034,-22.428c-0.40214,-2.12421 -1.91597,-3.86783 -3.96269,-4.56419c-2.04672,-0.69636 -4.30981,-0.23778 -5.924,1.20042c-1.61418,1.43819 -2.32983,3.63358 -1.87331,5.74678c1.63919,8.08745 3.78407,16.06411 6.422,23.883c1.05983,3.13974 4.46426,4.82583 7.604,3.766c3.13974,-1.05983 4.82583,-4.46426 3.766,-7.604z" fill="#81eb83"></path><path d="M437.331,320.486c-3.08561,-1.20772 -6.56606,0.31447 -7.774,3.4c-2.82847,7.21945 -6.10519,14.25515 -9.811,21.066c-1.58423,2.91054 -0.50904,6.55427 2.4015,8.1385c2.91054,1.58423 6.55427,0.50904 8.1385,-2.4015c3.94493,-7.25139 7.43338,-14.74195 10.445,-22.428c0.58028,-1.48189 0.54806,-3.13361 -0.08958,-4.59174c-0.63764,-1.45813 -1.82845,-2.6032 -3.31042,-3.18326z" fill="#81eb83"></path><path d="M135.853,111.835c1.36299,0.00141 2.68549,-0.46329 3.748,-1.317c6.04817,-4.84441 12.39101,-9.30898 18.992,-13.368c1.84946,-1.11154 2.95963,-3.13056 2.90748,-5.28771c-0.05216,-2.15715 -1.25862,-4.12016 -3.15964,-5.14101c-1.90102,-1.02085 -4.2038,-0.9423 -6.03084,0.20573c-7.0242,4.31976 -13.77382,9.07087 -20.21,14.226c-1.98806,1.59324 -2.75317,4.26827 -1.90827,6.6718c0.8449,2.40353 3.11557,4.0114 5.66327,4.0102z" fill="#81eb83"></path><path d="M175.708,87.206c0.86331,-0.00133 1.71612,-0.18929 2.5,-0.551c7.04018,-3.23816 14.27636,-6.03196 21.666,-8.365c3.16045,-0.99687 4.91437,-4.36705 3.9175,-7.5275c-0.99687,-3.16045 -4.36705,-4.91437 -7.5275,-3.9175c-7.86622,2.48551 -15.56926,5.46066 -23.064,8.908c-2.56453,1.17713 -3.96228,3.98217 -3.35775,6.73844c0.60453,2.75626 3.04797,4.71882 5.86975,4.71456z" fill="#81eb83"></path><path d="M112.232,374.507c-2.10945,-2.5557 -5.8913,-2.91745 -8.447,-0.808c-2.5557,2.10945 -2.91745,5.8913 -0.808,8.447c5.25182,6.36003 10.89156,12.38952 16.887,18.054c1.55459,1.49373 3.79107,2.03858 5.8585,1.42724c2.06742,-0.61134 3.64792,-2.28488 4.14014,-4.38386c0.49222,-2.09898 -0.17952,-4.30067 -1.75964,-5.76738c-5.63487,-5.32396 -10.93531,-10.9911 -15.871,-16.969z" fill="#81eb83"></path><path d="M99.446,144.128c2.63306,2.01155 6.39822,1.50788 8.41,-1.125c4.70804,-6.1601 9.79276,-12.02297 15.225,-17.555c2.32208,-2.36405 2.28805,-6.16292 -0.076,-8.485c-2.36405,-2.32208 -6.16292,-2.28805 -8.485,0.076c-5.77968,5.88662 -11.18999,12.12485 -16.2,18.679c-2.01132,2.63332 -1.50721,6.39853 1.126,8.41z" fill="#81eb83"></path><path d="M84.882,182.187c3.07668,-7.11673 6.59452,-14.03451 10.533,-20.713c1.68447,-2.85393 0.73643,-6.53303 -2.1175,-8.2175c-2.85393,-1.68447 -6.53303,-0.73643 -8.2175,2.1175c-4.19296,7.10996 -7.93824,14.4746 -11.214,22.051c-1.31416,3.04198 0.08652,6.57334 3.1285,7.8875c3.04198,1.31416 6.57334,-0.08652 7.8875,-3.1285z" fill="#81eb83"></path><path d="M447.506,274.7c-1.57844,-0.20197 -3.17246,0.23137 -4.43139,1.20469c-1.25893,0.97331 -2.07965,2.40688 -2.28161,3.98531c-0.98476,7.68642 -2.44827,15.3039 -4.382,22.808c-0.82843,3.2085 1.101,6.48107 4.3095,7.3095c3.2085,0.82843 6.48107,-1.101 7.3095,-4.3095c2.05931,-7.98931 3.61767,-16.09943 4.666,-24.283c0.20254,-1.57875 -0.23053,-3.17329 -1.2039,-4.43267c-0.97337,-1.25938 -2.40726,-2.08039 -3.9861,-2.28233z" fill="#81eb83"></path><path d="M366.837,91.608c1.35733,0.91733 2.703,1.85067 4.037,2.8c2.69957,1.92195 6.44605,1.29157 8.368,-1.408c1.92195,-2.69957 1.29157,-6.44605 -1.408,-8.368c-1.414,-1.006 -2.84033,-1.99533 -4.279,-2.968c-1.77602,-1.21562 -4.06709,-1.38689 -6.00411,-0.44883c-1.93702,0.93806 -3.22323,2.84173 -3.37074,4.98887c-0.1475,2.14715 0.8663,4.20882 2.65684,5.40295z" fill="#81eb83"></path><path d="M426.449,154.7c1.0907,1.85443 3.09079,2.98296 5.24205,2.95776c2.15126,-0.0252 4.12437,-1.20026 5.17133,-3.07973c1.04697,-1.87947 1.00752,-4.17563 -0.10338,-6.01803c-10.44268,-17.52992 -23.37298,-33.45237 -38.387,-47.27c-2.43806,-2.24449 -6.23401,-2.08756 -8.4785,0.3505c-2.24449,2.43806 -2.08756,6.23401 0.3505,8.4785c14.16074,13.03129 26.35608,28.04801 36.205,44.581z" fill="#81eb83"></path><path d="M433.484,78.516c-46.96859,-47.22571 -110.87857,-73.69799 -177.484,-73.516c-48.91714,0.08789 -96.75393,14.39362 -137.688,41.176c-2.77086,1.81508 -3.55113,5.52971 -1.74474,8.30624c1.80639,2.77654 5.51855,3.56843 8.30074,1.77076c37.27702,-24.39468 80.5987,-37.95287 125.132,-39.162v45.609c-0.65833,-2.85185 -3.27824,-4.81256 -6.2,-4.64c-8.23372,0.50121 -16.42845,1.51249 -24.537,3.028c-3.25848,0.61027 -5.40527,3.74652 -4.795,7.005c0.61027,3.25848 3.74652,5.40527 7.005,4.795c7.61871,-1.42459 15.31852,-2.37476 23.055,-2.845c2.64501,-0.16376 4.86931,-2.04337 5.472,-4.624v49.231c-73.322,3.076 -132.389,62.211 -135.358,135.559h-44.853c0.024,-0.765 0.041,-1.533 0.074,-2.293c0.14166,-3.31095 -2.42755,-6.10984 -5.7385,-6.2515c-3.31095,-0.14166 -6.10984,2.42755 -6.2515,5.7385c-0.039,0.93 -0.062,1.869 -0.089,2.806h-40.7c1.00553,-32.51522 8.33395,-64.52339 21.576,-94.237c11.51606,2.97293 23.61246,-2.01047 29.69252,-12.23255c6.08006,-10.22208 4.68495,-23.23018 -3.42452,-31.93045c8.66555,-11.32197 18.31947,-21.852 28.848,-31.466c1.21313,-1.10465 1.92098,-2.6579 1.95877,-4.29818c0.03779,-1.64028 -0.59779,-3.22448 -1.75877,-4.38382l-0.006,-0.006c-2.27833,-2.27569 -5.94381,-2.35632 -8.32,-0.183c-11.21551,10.25156 -21.48468,21.49266 -30.683,33.587c-12.18101,-4.71137 -25.98363,0.05852 -32.65669,11.28547c-6.67306,11.22695 -4.267,25.63094 5.69269,34.07953c-14.845,32.935 -23.003,70.213 -23.003,105.576c0,138.62347 112.37653,251 251,251c62.061,0 118.569,-20.931 163.76,-60.578c10.8083,6.55226 24.72725,4.64879 33.37952,-4.56477c8.65227,-9.21356 9.67827,-23.22454 2.46048,-33.60023c33.644,-43.399 51.4,-95.931 51.4,-152.257c0.18199,-66.60543 -26.29029,-130.51541 -73.516,-177.484zM45.34,115.26c5.97733,-0.0004 11.36629,3.59999 13.6539,9.12224c2.28761,5.52225 1.02333,11.87877 -3.20328,16.10538c-4.22661,4.22661 -10.58313,5.49089 -16.10538,3.20328c-5.52225,-2.28761 -9.12265,-7.67658 -9.12224,-13.6539c0.00937,-8.15723 6.61977,-14.76763 14.777,-14.777zM494.93,250.209h-40.715c-0.109,-3.75 -0.313,-7.5 -0.629,-11.227l40.392,-5.193c0.498,5.438 0.81533,10.91133 0.952,16.42zM425,87c36.60782,36.40146 60.33993,83.75262 67.594,134.866l-208.515,26.81c-1.84567,-7.03757 -6.25893,-13.1293 -12.371,-17.076l74.249,-197.153c29.60226,12.04549 56.48205,29.91694 79.043,52.553zM442.21,250.207h-44.818c-0.048,-1.366 -0.115,-2.679 -0.2,-3.975l44.479,-5.719c0.26067,3.22067 0.43967,6.45267 0.537,9.696zM366.268,250.207l19,-2.442c0.049,0.8 0.087,1.612 0.12,2.442zM385.336,262.207c-3.28249,66.67558 -56.65516,119.96127 -123.336,123.135v-100.942c11.15596,-2.37963 19.8943,-11.05542 22.354,-22.194zM262,67.09c1.01934,1.70745 2.81959,2.79772 4.805,2.91c7.74115,0.44323 15.44731,1.36667 23.074,2.765c0.3599,0.06618 0.72506,0.09965 1.091,0.1c3.09885,-0.00712 5.68247,-2.37293 5.96179,-5.45917c0.27932,-3.08624 -1.83757,-5.87747 -4.88479,-6.44083c-8.11685,-1.48819 -16.31831,-2.47075 -24.557,-2.942c-2.22855,-0.1336 -4.34579,0.98595 -5.49,2.903v-43.852c24.7773,0.58032 49.31345,5.01233 72.728,13.137l-14.371,38.161c-1.76,-0.604 -3.52367,-1.18233 -5.291,-1.735c-2.05528,-0.6669 -4.31041,-0.17718 -5.90397,1.28211c-1.59356,1.45929 -2.27938,3.66272 -1.79549,5.76862c0.48389,2.1059 2.06274,3.78895 4.13346,4.40627c1.542,0.48 3.087,0.992 4.627,1.517l-15.815,41.989c-12.38665,-4.08257 -25.28073,-6.42331 -38.312,-6.955zM262,126.664c11.5856,0.51564 23.0485,2.59341 34.078,6.177l-34.078,90.488zM250,126.658v100.942c-11.309,2.41094 -20.11944,11.28575 -22.448,22.612h-100.902c3.07251,-66.84485 56.51032,-120.37103 123.35,-123.554zM250,442.2c-7.21238,-0.22258 -14.40595,-0.8603 -21.545,-1.91c-3.27809,-0.48601 -6.32949,1.77741 -6.8155,5.0555c-0.48601,3.27809 1.77741,6.32949 5.0555,6.8155c7.72197,1.13312 15.50358,1.81395 23.305,2.039v40.722c-127.21122,-3.19474 -229.61171,-105.50466 -232.919,-232.713h40.719c0.1,3.315 0.276,6.629 0.539,9.9c0.25049,3.11456 2.84938,5.51552 5.974,5.519c0.162,0 0.325,-0.006 0.488,-0.02c1.58629,-0.12749 3.05696,-0.87995 4.08842,-2.09183c1.03147,-1.21188 1.53923,-2.78389 1.41158,-4.37017c-0.238,-2.958 -0.4,-5.948 -0.5,-8.942h44.864c1.22915,26.32915 9.46316,51.85315 23.852,73.937c-6.98893,10.66608 -5.48175,24.78178 3.60164,33.73177c9.08339,8.95 23.21984,10.24818 33.78136,3.10223c22.08299,14.58973 47.66796,23.00411 74.1,24.37zM146.137,350.8c-0.0004,-5.97723 3.59988,-11.36614 9.12201,-13.6538c5.52213,-2.28767 11.87857,-1.02357 16.10526,3.20283c4.22669,4.2264 5.49121,10.58276 3.20392,16.10504c-2.2873,5.52228 -7.67595,9.12294 -13.65319,9.12294c-8.15785,-0.00827 -14.76918,-6.61915 -14.778,-14.777zM250,385.32c-23.40905,-1.30442 -46.08377,-8.63611 -65.825,-21.284c6.00859,-10.53426 4.18115,-23.79242 -4.45322,-32.30837c-8.63437,-8.51595 -21.91651,-10.16012 -32.36678,-4.00663c-12.3822,-19.70903 -19.49985,-42.26569 -20.672,-65.512h100.963c2.46074,11.13742 11.19887,19.81183 22.354,22.191zM238.97,256c0,-9.40541 7.62459,-17.03 17.03,-17.03c9.40541,0 17.03,7.62459 17.03,17.03c0,9.40541 -7.62459,17.03 -17.03,17.03c-9.40084,-0.01102 -17.01898,-7.62916 -17.03,-17.03zM433.618,438.3c-8.16062,-0.00221 -14.77474,-6.61871 -14.774,-14.77933c0.00074,-8.16062 6.61604,-14.77593 14.77667,-14.77667c8.16062,-0.00074 14.77712,6.61338 14.77933,14.774c-0.00662,8.16113 -6.62087,14.77538 -14.782,14.782zM446.69,400.166c-10.72865,-6.01939 -24.17925,-3.94774 -32.59945,5.02093c-8.42021,8.96867 -9.64008,22.52309 -2.95655,32.85107c-41.392,36.018 -92.725,55.6 -149.134,56.895v-97.583c73.182,-3.069 132.166,-61.986 135.342,-135.141h46.982c1.08047,0.96384 2.47417,1.50256 3.922,1.516h0.057c1.46615,-0.00035 2.88097,-0.53993 3.975,-1.516h42.638c-1.246,50.959 -17.834,98.419 -48.226,137.952z" fill="#81eb83"></path></g></g></svg>