<svg version="1.1" xmlns="http://www.w3.org/2000/svg" xmlns:xlink="http://www.w3.org/1999/xlink" width="100%" height="100%" viewBox="0,0,256,256"><g fill-opacity="0" fill="#dddddd" fill-rule="nonzero" stroke="none" stroke-width="1" stroke-linecap="butt" stroke-linejoin="miter" stroke-miterlimit="10" stroke-dasharray="" stroke-dashoffset="0" font-family="none" font-weight="none" font-size="none" text-anchor="none" style="mix-blend-mode: normal"><path d="M0,256v-256h256v256z" id="bgRectangle"></path></g><g fill="#18dc28" fill-rule="nonzero" stroke="none" stroke-width="1" stroke-linecap="butt" stroke-linejoin="miter" stroke-miterlimit="10" stroke-dasharray="" stroke-dashoffset="0" font-family="none" font-weight="none" font-size="none" text-anchor="none" style="mix-blend-mode: normal"><g transform="translate(255.87072,256.16231) rotate(180) scale(5.12,5.12)"><path d="M48.80859,22.09375l-20.90234,-20.90234c-1.52734,-1.52734 -4.21484,-1.56641 -5.91406,0.00391l-20.80078,20.89844c-1.58984,1.58984 -1.60156,4.17578 0,5.91406l20.80078,20.80078c0.76953,0.76563 1.80859,1.19141 2.92188,1.19141c1.09766,0 2.15234,-0.41406 2.99219,-1.19141l20.80078,-20.80078c1.65625,-1.66016 1.70313,-4.3125 0.10156,-5.91406zM32.70703,29.70703l-7.70703,7.70703l-7.70703,-7.70703c-0.39062,-0.39062 -0.39062,-1.02344 0,-1.41406c0.39063,-0.39062 1.02344,-0.39062 1.41406,0l5.29297,5.29297v-19.58594c0,-0.55078 0.44922,-1 1,-1c0.55078,0 1,0.44922 1,1v19.58594l5.29297,-5.29297c0.39063,-0.39062 1.02344,-0.39062 1.41406,0c0.39063,0.39063 0.39063,1.02344 0,1.41406z"></path></g></g></svg>