<svg version="1.1" xmlns="http://www.w3.org/2000/svg" xmlns:xlink="http://www.w3.org/1999/xlink" width="100%" height="100%" viewBox="0,0,256,256"><g fill-opacity="0" fill="#dddddd" fill-rule="nonzero" stroke="none" stroke-width="1" stroke-linecap="butt" stroke-linejoin="miter" stroke-miterlimit="10" stroke-dasharray="" stroke-dashoffset="0" font-family="none" font-weight="none" font-size="none" text-anchor="none" style="mix-blend-mode: normal"><path d="M0,256v-256h256v256z" id="bgRectangle"></path></g><g fill="none" fill-rule="nonzero" stroke="none" stroke-width="1" stroke-linecap="butt" stroke-linejoin="miter" stroke-miterlimit="10" stroke-dasharray="" stroke-dashoffset="0" font-family="none" font-weight="none" font-size="none" text-anchor="none" style="mix-blend-mode: normal"><g transform="scale(0.5,0.5)"><g><path d="M460.72,117.11v258.12c0,22.09139 -17.90861,40 -40,40h-68.05v-224.2l-99.71,-94.26h-99.32v-33.93c0,-22.09139 17.90861,-40 40,-40h164.72v60.99c0,16.56854 13.43146,30 30,30h68.83z" fill="#e8e8aa"></path><path d="M457.19,113.83h-68.83c-16.56854,0 -30,-13.43146 -30,-30v-60.99h0.77z" fill="#e8e1da"></path><path d="M153.64,96.77h96.67v66.68c0,16.56854 13.43146,30 30,30h72.36v255.71c0,22.09139 -17.90861,40 -40,40h-221.39c-22.09139,0 -40,-17.90861 -40,-40v-312.39c0,-22.09139 17.90861,-40 40,-40z" fill="#c5dee6"></path><path d="M352.67,191.03v2.42h-72.36c-16.56854,0 -30,-13.43146 -30,-30v-66.68h2.65z" fill="#e8e1da"></path><path d="M365.932,15.509c-1.84898,-1.71536 -4.27786,-2.6687 -6.8,-2.669h-165.492c-27.60122,0.03141 -49.96859,22.39878 -50,50v23.93h-52.36c-27.60122,0.03141 -49.96859,22.39878 -50,50v312.39c0.03141,27.60122 22.39878,49.96859 50,50h221.39c27.60122,-0.03141 49.96859,-22.39878 50,-50v-23.93h58.05c27.60122,-0.03141 49.96859,-22.39878 50,-50v-258.12c-0.00015,-2.77979 -1.15737,-5.43408 -3.194,-7.326zM368.36,45.046l63.351,58.784h-43.351c-11.04044,-0.01267 -19.98733,-8.95956 -20,-20zM312.67,479.16h-221.39c-16.56078,-0.01874 -29.98126,-13.43922 -30,-30v-312.39c0.01874,-16.56078 13.43922,-29.98126 30,-30h149.03v56.68c0.0248,22.08111 17.91889,39.9752 40,40h62.36v245.71c-0.01874,16.56078 -13.43922,29.98126 -30,30zM260.31,117.479l69.79,65.971h-49.79c-11.04044,-0.01267 -19.98733,-8.95956 -20,-20zM420.72,405.23h-58.05v-214.2c0.00012,-2.74963 -1.13196,-5.378 -3.13,-7.267l-99.71,-94.263c-1.85676,-1.75521 -4.31494,-2.73312 -6.87,-2.733h-89.32v-23.927c0.01874,-16.56078 13.43922,-29.98126 30,-30h154.72v50.99c0.0248,22.08111 17.91889,39.9752 40,40h62.36v251.4c-0.01874,16.56078 -13.43922,29.98126 -30,30z" fill="#083863"></path></g></g></g></svg>