<svg version="1.1" xmlns="http://www.w3.org/2000/svg" xmlns:xlink="http://www.w3.org/1999/xlink" width="100%" height="100%" viewBox="0,0,256,256"><g fill-opacity="0" fill="#ffffff" fill-rule="nonzero" stroke="none" stroke-width="1" stroke-linecap="butt" stroke-linejoin="miter" stroke-miterlimit="10" stroke-dasharray="" stroke-dashoffset="0" font-family="none" font-weight="none" font-size="none" text-anchor="none" style="mix-blend-mode: normal"><path d="M0,256v-256h256v256z" id="bgRectangle"></path></g><g fill="none" fill-rule="nonzero" stroke="none" stroke-width="1" stroke-linecap="butt" stroke-linejoin="miter" stroke-miterlimit="10" stroke-dasharray="" stroke-dashoffset="0" font-family="none" font-weight="none" font-size="none" text-anchor="none" style="mix-blend-mode: normal"><g transform="scale(2.56,2.56)"><path d="M69.882,81.961h-39c-6.6,0 -12,-5.4 -12,-12v-39c0,-6.6 5.4,-12 12,-12h39c6.6,0 12,5.4 12,12v39c0,6.6 -5.4,12 -12,12z" fill="#1c5a62"></path><path d="M69.882,82.961h-39c-7.168,0 -13,-5.832 -13,-13v-39c0,-7.168 5.832,-13 13,-13h39c7.168,0 13,5.832 13,13v39c0,7.168 -5.832,13 -13,13zM30.882,19.961c-6.065,0 -11,4.935 -11,11v39c0,6.065 4.935,11 11,11h39c6.065,0 11,-4.935 11,-11v-39c0,-6.065 -4.935,-11 -11,-11z" fill="#000000"></path><path d="M77.382,48.461v18.663c0,5.685 -4.652,10.337 -10.337,10.337h-33.326c-5.685,0 -10.337,-4.652 -10.337,-10.337v-33.326c0,-5.685 4.652,-10.337 10.337,-10.337h33.663" fill="#1c5a62"></path><path d="M67.045,77.961h-33.326c-5.976,0 -10.837,-4.861 -10.837,-10.837v-33.326c0,-5.976 4.861,-10.837 10.837,-10.837h33.663c0.276,0 0.5,0.224 0.5,0.5c0,0.276 -0.224,0.5 -0.5,0.5h-33.663c-5.424,0 -9.837,4.413 -9.837,9.837v33.326c0,5.424 4.413,9.837 9.837,9.837h33.326c5.424,0 9.837,-4.413 9.837,-9.837v-18.663c0,-0.276 0.224,-0.5 0.5,-0.5c0.276,0 0.5,0.224 0.5,0.5v18.663c0,5.975 -4.861,10.837 -10.837,10.837zM77.382,45.961c-0.276,0 -0.5,-0.224 -0.5,-0.5v-4c0,-0.276 0.224,-0.5 0.5,-0.5c0.276,0 0.5,0.224 0.5,0.5v4c0,0.276 -0.224,0.5 -0.5,0.5zM77.382,39.961c-0.276,0 -0.5,-0.224 -0.5,-0.5v-2c0,-0.276 0.224,-0.5 0.5,-0.5c0.276,0 0.5,0.224 0.5,0.5v2c0,0.276 -0.224,0.5 -0.5,0.5z" fill="#000000"></path><path d="M39.382,41.461h-4c-1.65,0 -3,-1.35 -3,-3v-2c0,-1.65 1.35,-3 3,-3h4c1.65,0 3,1.35 3,3v2c0,1.65 -1.35,3 -3,3z" fill="#2a023b"></path><path d="M39.382,41.961h-4c-1.93,0 -3.5,-1.57 -3.5,-3.5v-2c0,-1.93 1.57,-3.5 3.5,-3.5h4c1.93,0 3.5,1.57 3.5,3.5v2c0,1.929 -1.57,3.5 -3.5,3.5zM35.382,33.961c-1.379,0 -2.5,1.122 -2.5,2.5v2c0,1.378 1.121,2.5 2.5,2.5h4c1.379,0 2.5,-1.122 2.5,-2.5v-2c0,-1.378 -1.121,-2.5 -2.5,-2.5z" fill="#000000"></path><path d="M65.382,41.461h-17c-1.65,0 -3,-1.35 -3,-3v-2c0,-1.65 1.35,-3 3,-3h17c1.65,0 3,1.35 3,3v2c0,1.65 -1.35,3 -3,3z" fill="#2a023b"></path><path d="M65.382,41.961h-17c-1.93,0 -3.5,-1.57 -3.5,-3.5v-2c0,-1.93 1.57,-3.5 3.5,-3.5h17c1.93,0 3.5,1.57 3.5,3.5v2c0,1.929 -1.57,3.5 -3.5,3.5zM48.382,33.961c-1.379,0 -2.5,1.122 -2.5,2.5v2c0,1.378 1.121,2.5 2.5,2.5h17c1.379,0 2.5,-1.122 2.5,-2.5v-2c0,-1.378 -1.121,-2.5 -2.5,-2.5z" fill="#000000"></path><path d="M39.382,53.461h-4c-1.65,0 -3,-1.35 -3,-3v-2c0,-1.65 1.35,-3 3,-3h4c1.65,0 3,1.35 3,3v2c0,1.65 -1.35,3 -3,3z" fill="#2a023b"></path><path d="M39.382,53.961h-4c-1.93,0 -3.5,-1.57 -3.5,-3.5v-2c0,-1.93 1.57,-3.5 3.5,-3.5h4c1.93,0 3.5,1.57 3.5,3.5v2c0,1.929 -1.57,3.5 -3.5,3.5zM35.382,45.961c-1.379,0 -2.5,1.122 -2.5,2.5v2c0,1.378 1.121,2.5 2.5,2.5h4c1.379,0 2.5,-1.122 2.5,-2.5v-2c0,-1.378 -1.121,-2.5 -2.5,-2.5z" fill="#000000"></path><path d="M65.382,53.461h-17c-1.65,0 -3,-1.35 -3,-3v-2c0,-1.65 1.35,-3 3,-3h17c1.65,0 3,1.35 3,3v2c0,1.65 -1.35,3 -3,3z" fill="#2a023b"></path><path d="M65.382,53.961h-17c-1.93,0 -3.5,-1.57 -3.5,-3.5v-2c0,-1.93 1.57,-3.5 3.5,-3.5h17c1.93,0 3.5,1.57 3.5,3.5v2c0,1.929 -1.57,3.5 -3.5,3.5zM48.382,45.961c-1.379,0 -2.5,1.122 -2.5,2.5v2c0,1.378 1.121,2.5 2.5,2.5h17c1.379,0 2.5,-1.122 2.5,-2.5v-2c0,-1.378 -1.121,-2.5 -2.5,-2.5z" fill="#000000"></path><path d="M39.382,66.461h-4c-1.65,0 -3,-1.35 -3,-3v-2c0,-1.65 1.35,-3 3,-3h4c1.65,0 3,1.35 3,3v2c0,1.65 -1.35,3 -3,3z" fill="#2a023b"></path><path d="M39.382,66.961h-4c-1.93,0 -3.5,-1.57 -3.5,-3.5v-2c0,-1.93 1.57,-3.5 3.5,-3.5h4c1.93,0 3.5,1.57 3.5,3.5v2c0,1.929 -1.57,3.5 -3.5,3.5zM35.382,58.961c-1.379,0 -2.5,1.122 -2.5,2.5v2c0,1.378 1.121,2.5 2.5,2.5h4c1.379,0 2.5,-1.122 2.5,-2.5v-2c0,-1.378 -1.121,-2.5 -2.5,-2.5z" fill="#000000"></path><path d="M65.382,66.461h-17c-1.65,0 -3,-1.35 -3,-3v-2c0,-1.65 1.35,-3 3,-3h17c1.65,0 3,1.35 3,3v2c0,1.65 -1.35,3 -3,3z" fill="#2a023b"></path><path d="M65.382,66.961h-17c-1.93,0 -3.5,-1.57 -3.5,-3.5v-2c0,-1.93 1.57,-3.5 3.5,-3.5h17c1.93,0 3.5,1.57 3.5,3.5v2c0,1.929 -1.57,3.5 -3.5,3.5zM48.382,58.961c-1.379,0 -2.5,1.122 -2.5,2.5v2c0,1.378 1.121,2.5 2.5,2.5h17c1.379,0 2.5,-1.122 2.5,-2.5v-2c0,-1.378 -1.121,-2.5 -2.5,-2.5z" fill="#000000"></path></g></g></svg>