<svg version="1.1" xmlns="http://www.w3.org/2000/svg" xmlns:xlink="http://www.w3.org/1999/xlink" width="100%" height="100%" viewBox="0,0,256,256"><g fill-opacity="0" fill="#ffffff" fill-rule="nonzero" stroke="none" stroke-width="1" stroke-linecap="butt" stroke-linejoin="miter" stroke-miterlimit="10" stroke-dasharray="" stroke-dashoffset="0" font-family="none" font-weight="none" font-size="none" text-anchor="none" style="mix-blend-mode: normal"><path d="M0,256v-256h256v256z" id="bgRectangle"></path></g><g fill="none" fill-rule="nonzero" stroke="none" stroke-width="1" stroke-linecap="butt" stroke-linejoin="miter" stroke-miterlimit="10" stroke-dasharray="" stroke-dashoffset="0" font-family="none" font-weight="none" font-size="none" text-anchor="none" style="mix-blend-mode: normal"><g><path d="M145.59,97.781h-30.663c-1.381,0 -2.5,-1.119 -2.5,-2.5c0,-1.381 1.119,-2.5 2.5,-2.5h30.663c1.381,0 2.5,1.119 2.5,2.5c0,1.381 -1.119,2.5 -2.5,2.5z" fill="#316071"></path><path d="M180.852,108.828h-29.716c-1.381,0 -2.5,-1.119 -2.5,-2.5c0,-1.381 1.119,-2.5 2.5,-2.5h29.716c1.381,0 2.5,1.119 2.5,2.5c0,1.381 -1.12,2.5 -2.5,2.5z" fill="#316071"></path><path d="M141.135,108.828h-26.208c-1.381,0 -2.5,-1.119 -2.5,-2.5c0,-1.381 1.119,-2.5 2.5,-2.5h26.208c1.381,0 2.5,1.119 2.5,2.5c0,1.381 -1.119,2.5 -2.5,2.5z" fill="#316071"></path><path d="M133.688,142.442h-18.762c-1.381,0 -2.5,-1.119 -2.5,-2.5c0,-1.381 1.119,-2.5 2.5,-2.5h18.762c1.381,0 2.5,1.119 2.5,2.5c0,1.381 -1.119,2.5 -2.5,2.5z" fill="#316071"></path><path d="M161.284,153.489h-46.357c-1.381,0 -2.5,-1.119 -2.5,-2.5c0,-1.381 1.119,-2.5 2.5,-2.5h46.357c1.381,0 2.5,1.119 2.5,2.5c0,1.381 -1.119,2.5 -2.5,2.5z" fill="#316071"></path><path d="M126.42,187.104h-11.493c-1.381,0 -2.5,-1.119 -2.5,-2.5c0,-1.381 1.119,-2.5 2.5,-2.5h11.493c1.381,0 2.5,1.119 2.5,2.5c0,1.381 -1.119,2.5 -2.5,2.5z" fill="#316071"></path><path d="M135.697,198.15h-20.771c-1.381,0 -2.5,-1.119 -2.5,-2.5c0,-1.381 1.119,-2.5 2.5,-2.5h20.771c1.381,0 2.5,1.119 2.5,2.5c0,1.381 -1.119,2.5 -2.5,2.5z" fill="#316071"></path><path d="M241.503,237.731h-121.303c-2.367,0 -4.575,-1.272 -5.763,-3.321c-1.188,-2.047 -1.194,-4.597 -0.017,-6.652l60.65,-105.863c1.186,-2.067 3.4,-3.35 5.78,-3.35c2.38,0 4.595,1.283 5.78,3.349l60.65,105.864c1.178,2.055 1.172,4.604 -0.018,6.653c-1.184,2.048 -3.392,3.32 -5.759,3.32zM180.852,123.545c-0.594,0 -1.146,0.321 -1.442,0.836l-60.65,105.862c-0.294,0.513 -0.292,1.148 0.004,1.658c0.297,0.512 0.848,0.83 1.438,0.83h121.303c0.59,0 1.141,-0.317 1.437,-0.828c0.297,-0.512 0.299,-1.147 0.005,-1.659l-60.65,-105.864c-0.299,-0.514 -0.852,-0.835 -1.445,-0.835z" fill="#ec2a4d"></path><path d="M109.624,221.204h-49.022v-171.254h20.289c1.381,0 2.5,-1.119 2.5,-2.5c0,-1.381 -1.119,-2.5 -2.5,-2.5h-22.789c-1.381,0 -2.5,1.119 -2.5,2.5v176.254c0,1.381 1.119,2.5 2.5,2.5h51.522c1.381,0 2.5,-1.119 2.5,-2.5c0,-1.381 -1.119,-2.5 -2.5,-2.5z" fill="#0c033f"></path><path d="M197.898,44.95h-22.789c-1.381,0 -2.5,1.119 -2.5,2.5c0,1.381 1.119,2.5 2.5,2.5h20.289v78.638c0,1.381 1.119,2.5 2.5,2.5c1.381,0 2.5,-1.119 2.5,-2.5v-81.138c0,-1.381 -1.119,-2.5 -2.5,-2.5z" fill="#0c033f"></path><path d="M165.108,36.585h-3.325v-3.043c0,-4.136 -3.364,-7.5 -7.5,-7.5h-52.566c-4.136,0 -7.5,3.364 -7.5,7.5v3.043h-3.325c-1.381,0 -2.5,1.119 -2.5,2.5v17.939c0,4.786 3.893,8.679 8.678,8.679h61.861c4.785,0 8.678,-3.893 8.678,-8.679v-17.939c-0.001,-1.38 -1.12,-2.5 -2.501,-2.5zM99.217,33.542c0,-1.378 1.121,-2.5 2.5,-2.5h52.566c1.379,0 2.5,1.122 2.5,2.5v3.043h-57.566zM162.608,57.025c0,2.028 -1.649,3.679 -3.678,3.679h-61.861c-2.028,0 -3.678,-1.65 -3.678,-3.679v-15.44h69.217z" fill="#0c033f"></path><path d="M103.854,110.084l-10.398,-20.796c-0.424,-0.847 -1.289,-1.382 -2.236,-1.382c-0.947,0 -1.813,0.535 -2.236,1.382l-10.398,20.796c-0.388,0.775 -0.346,1.695 0.109,2.433c0.456,0.737 1.261,1.186 2.127,1.186h20.796c0.866,0 1.671,-0.449 2.127,-1.186c0.454,-0.737 0.496,-1.657 0.109,-2.433zM84.866,108.703l6.354,-12.706l6.353,12.706z" fill="#0c033f"></path><path d="M103.854,154.746l-10.397,-20.797c-0.424,-0.847 -1.289,-1.382 -2.236,-1.382c-0.947,0 -1.813,0.535 -2.236,1.382l-10.398,20.797c-0.388,0.775 -0.346,1.695 0.109,2.433c0.456,0.737 1.261,1.186 2.127,1.186h20.796c0.866,0 1.671,-0.449 2.127,-1.186c0.453,-0.738 0.495,-1.658 0.108,-2.433zM84.866,153.364l6.354,-12.707l6.353,12.707z" fill="#0c033f"></path><path d="M91.22,177.229c-0.947,0 -1.813,0.535 -2.236,1.382l-10.398,20.796c-0.388,0.775 -0.346,1.695 0.109,2.433c0.456,0.737 1.261,1.186 2.127,1.186h20.796c0.866,0 1.671,-0.449 2.127,-1.186c0.455,-0.737 0.497,-1.657 0.109,-2.433l-10.397,-20.796c-0.425,-0.847 -1.29,-1.382 -2.237,-1.382zM84.866,198.025l6.354,-12.706l6.353,12.706z" fill="#0c033f"></path><path d="M187.273,156.273h-12.843c-1.381,0 -2.5,1.119 -2.5,2.5v40.119c0,1.381 1.119,2.5 2.5,2.5h12.844c1.381,0 2.5,-1.119 2.5,-2.5v-40.119c-0.001,-1.38 -1.12,-2.5 -2.501,-2.5zM184.773,196.392h-7.844v-35.119h7.844z" fill="#0c033f"></path><path d="M180.852,204.82c-4.92,0 -8.922,4.002 -8.922,8.922c0,4.92 4.002,8.921 8.922,8.921c4.92,0 8.922,-4.002 8.922,-8.921c0,-4.919 -4.003,-8.922 -8.922,-8.922zM180.852,217.664c-2.162,0 -3.922,-1.759 -3.922,-3.921c0,-2.163 1.76,-3.922 3.922,-3.922c2.162,0 3.922,1.759 3.922,3.922c-0.001,2.161 -1.76,3.921 -3.922,3.921z" fill="#0c033f"></path></g></g></svg>