<svg version="1.1" xmlns="http://www.w3.org/2000/svg" xmlns:xlink="http://www.w3.org/1999/xlink" width="100%" height="100%" viewBox="0,0,256,256"><g fill-opacity="0" fill="#dddddd" fill-rule="nonzero" stroke="none" stroke-width="1" stroke-linecap="butt" stroke-linejoin="miter" stroke-miterlimit="10" stroke-dasharray="" stroke-dashoffset="0" font-family="none" font-weight="none" font-size="none" text-anchor="none" style="mix-blend-mode: normal"><path d="M0,256v-256h256v256z" id="bgRectangle"></path></g><g fill="none" fill-rule="nonzero" stroke="none" stroke-width="1" stroke-linecap="butt" stroke-linejoin="miter" stroke-miterlimit="10" stroke-dasharray="" stroke-dashoffset="0" font-family="none" font-weight="none" font-size="none" text-anchor="none" style="mix-blend-mode: normal"><g transform="scale(0.5,0.5)"><rect x="16" y="16" width="224" height="224" rx="20" ry="20" fill="#beb4a6"></rect><circle cx="128" cy="128" r="80" fill="#ffe26d"></circle><rect x="272" y="16" width="224" height="224" rx="20" ry="20" fill="#44ff4d"></rect><rect x="16" y="272" width="224" height="224" rx="20" ry="20" fill="#00c0ff"></rect><rect x="272" y="272" width="224" height="224" rx="20" ry="20" fill="#ffe26d"></rect><path d="M440,456h-112l8,-96h96z" fill="#44ff4d"></path><g fill="#2b2b2b"><path d="M128,40c-48.60106,0 -88,39.39894 -88,88c0,48.60106 39.39894,88 88,88c48.60106,0 88,-39.39894 88,-88c-0.05511,-48.57821 -39.42179,-87.94489 -88,-88zM128,200c-39.7645,0 -72,-32.2355 -72,-72c0,-39.7645 32.2355,-72 72,-72c39.7645,0 72,32.2355 72,72c-0.04464,39.746 -32.254,71.95536 -72,72z"></path><path d="M144,112c4.41828,0 8,-3.58172 8,-8c0,-4.41828 -3.58172,-8 -8,-8h-8c0,-4.41828 -3.58172,-8 -8,-8c-4.41828,0 -8,3.58172 -8,8h-8c-4.41828,0 -8,3.58172 -8,8v24c0,4.41828 3.58172,8 8,8h24v8h-24c-4.41828,0 -8,3.58172 -8,8c0,4.41828 3.58172,8 8,8h8c0,4.41828 3.58172,8 8,8c4.41828,0 8,-3.58172 8,-8h8c4.41828,0 8,-3.58172 8,-8v-24c0,-4.41828 -3.58172,-8 -8,-8h-24v-8z"></path><path d="M220,8h-184c-15.45666,0.01763 -27.98237,12.54334 -28,28v184c0.01763,15.45666 12.54334,27.98237 28,28h184c15.45666,-0.01763 27.98237,-12.54334 28,-28v-184c-0.01763,-15.45666 -12.54334,-27.98237 -28,-28zM232,220c-0.00716,6.62445 -5.37555,11.99284 -12,12h-184c-6.62445,-0.00716 -11.99284,-5.37555 -12,-12v-184c0.00716,-6.62445 5.37555,-11.99284 12,-12h184c6.62445,0.00716 11.99284,5.37555 12,12z"></path><path d="M476,8h-184c-15.45666,0.01763 -27.98237,12.54334 -28,28v184c0.01763,15.45666 12.54334,27.98237 28,28h184c15.45666,-0.01763 27.98237,-12.54334 28,-28v-184c-0.01763,-15.45666 -12.54334,-27.98237 -28,-28zM488,220c-0.00716,6.62445 -5.37555,11.99284 -12,12h-184c-6.62445,-0.00716 -11.99284,-5.37555 -12,-12v-184c0.00716,-6.62445 5.37555,-11.99284 12,-12h184c6.62445,0.00716 11.99284,5.37555 12,12z"></path><path d="M220,264h-184c-15.45666,0.01763 -27.98237,12.54334 -28,28v184c0.01763,15.45666 12.54334,27.98237 28,28h184c15.45666,-0.01763 27.98237,-12.54334 28,-28v-184c-0.01763,-15.45666 -12.54334,-27.98237 -28,-28zM232,476c-0.00716,6.62445 -5.37555,11.99284 -12,12h-184c-6.62445,-0.00716 -11.99284,-5.37555 -12,-12v-184c0.00716,-6.62445 5.37555,-11.99284 12,-12h184c6.62445,0.00716 11.99284,5.37555 12,12z"></path><path d="M476,264h-184c-15.45689,0.01708 -27.98292,12.54311 -28,28v184c0.01708,15.45689 12.54311,27.98292 28,28h184c15.45689,-0.01708 27.98292,-12.54311 28,-28v-184c-0.01708,-15.45689 -12.54311,-27.98292 -28,-28zM488,476c-0.00551,6.62513 -5.37487,11.99449 -12,12h-184c-6.62513,-0.00551 -11.99449,-5.37487 -12,-12v-184c0.00551,-6.62513 5.37487,-11.99449 12,-12h184c6.62513,0.00551 11.99449,5.37487 12,12z"></path><path d="M439.972,359.335c-0.34583,-4.14595 -3.81166,-7.33484 -7.972,-7.335h-16v-12c-0.01763,-15.45666 -12.54334,-27.98237 -28,-28h-8c-15.45666,0.01763 -27.98237,12.54334 -28,28v12h-16c-4.16034,0.00016 -7.62617,3.18905 -7.972,7.335l-8,96c-0.18597,2.22953 0.57015,4.43507 2.08493,6.08153c1.51478,1.64646 3.64979,2.58339 5.88707,2.58347h112c2.23727,-0.00009 4.37229,-0.93701 5.88707,-2.58347c1.51478,-1.64646 2.27091,-3.852 2.08493,-6.08153zM368,340c0.00716,-6.62445 5.37555,-11.99284 12,-12h8c6.62445,0.00716 11.99284,5.37555 12,12v12h-32zM336.694,448l6.667,-80h8.639v8c0,4.41828 3.58172,8 8,8c4.41828,0 8,-3.58172 8,-8v-8h32v8c0,4.41828 3.58172,8 8,8c4.41828,0 8,-3.58172 8,-8v-8h8.639l6.667,80z"></path></g></g></g></svg>