<svg version="1.1" xmlns="http://www.w3.org/2000/svg" xmlns:xlink="http://www.w3.org/1999/xlink" width="100%" height="100%" viewBox="0,0,256,256"><g fill="none" fill-rule="nonzero" stroke="none" stroke-width="1" stroke-linecap="butt" stroke-linejoin="miter" stroke-miterlimit="10" stroke-dasharray="" stroke-dashoffset="0" font-family="none" font-weight="none" font-size="none" text-anchor="none" style="mix-blend-mode: normal"><g transform="scale(4,4)"><rect x="6" y="13" width="52" height="42" rx="1" ry="1" fill="#efd8be"></rect><path d="M10,50h44c2.20914,0 4,1.79086 4,4v1h-52v-1c0,-2.20914 1.79086,-4 4,-4z" fill="#cda1a7"></path><path d="M58,13h-51l8,-6h36z" fill="#faefde"></path><path d="M36,24v-10.35c-0.00205,-0.42854 -0.07296,-0.85396 -0.21,-1.26l-1.34,-4c-0.26355,-0.82299 -1.02586,-1.38364 -1.89,-1.39h-3.12c-0.86248,-0.00078 -1.62832,0.55142 -1.9,1.37l-1.34,4c-0.13578,0.41296 -0.20333,0.8453 -0.2,1.28v10.35c0,0.55228 0.44772,1 1,1h8c0.55228,0 1,-0.44772 1,-1z" fill="#ed7899"></path><path d="M12,31h8v4c0,2.20914 -1.79086,4 -4,4v0c-2.20914,0 -4,-1.79086 -4,-4zM26,37h12c0,-3.31371 -2.68629,-6 -6,-6v0c-3.31371,0 -6,2.68629 -6,6v0" fill="#85cbf8"></path><path d="M15,48.06c-0.55228,0 -1,0.44772 -1,1v2c0,0.55228 0.44772,1 1,1c0.55228,0 1,-0.44772 1,-1v-2c0,-0.55228 -0.44772,-1 -1,-1zM10,48.06c-0.55228,0 -1,0.44772 -1,1v2c0,0.55228 0.44772,1 1,1c0.55228,0 1,-0.44772 1,-1v-2c0,-0.55228 -0.44772,-1 -1,-1zM20,48.06c-0.55228,0 -1,0.44772 -1,1v2c0,0.55228 0.44772,1 1,1c0.55228,0 1,-0.44772 1,-1v-2c0,-0.55228 -0.44772,-1 -1,-1zM25,48.06c-0.55228,0 -1,0.44772 -1,1v2c0,0.55228 0.44772,1 1,1c0.55228,0 1,-0.44772 1,-1v-2c0,-0.55228 -0.44772,-1 -1,-1zM30,48.06c-0.55228,0 -1,0.44772 -1,1v2c0,0.55228 0.44772,1 1,1c0.55228,0 1,-0.44772 1,-1v-2c0,-0.55228 -0.44772,-1 -1,-1zM35,48.06c-0.55228,0 -1,0.44772 -1,1v2c0,0.55228 0.44772,1 1,1c0.55228,0 1,-0.44772 1,-1v-2c0,-0.55228 -0.44772,-1 -1,-1zM40,48.06c-0.55228,0 -1,0.44772 -1,1v2c0,0.55228 0.44772,1 1,1c0.55228,0 1,-0.44772 1,-1v-2c0,-0.55228 -0.44772,-1 -1,-1zM45,48.06c-0.55228,0 -1,0.44772 -1,1v2c0,0.55228 0.44772,1 1,1c0.55228,0 1,-0.44772 1,-1v-2c0,-0.55228 -0.44772,-1 -1,-1zM50,48.06c-0.55228,0 -1,0.44772 -1,1v2c0,0.55228 0.44772,1 1,1c0.55228,0 1,-0.44772 1,-1v-2c0,-0.55228 -0.44772,-1 -1,-1zM55,48.06c-0.55228,0 -1,0.44772 -1,1v2c0,0.55228 0.44772,1 1,1c0.55228,0 1,-0.44772 1,-1v-2c0,-0.55228 -0.44772,-1 -1,-1zM52,12.06h-4c-0.55228,0 -1,0.44772 -1,1c0,0.55228 0.44772,1 1,1h4c0.55228,0 1,-0.44772 1,-1c0,-0.55228 -0.44772,-1 -1,-1z" fill="#8d6c9f"></path><path d="M57,11l-5.33,-4v0c-0.86548,-0.64911 -1.91815,-1 -3,-1h-33.34c-1.08185,0 -2.13452,0.35089 -3,1l-5.33,4c-1.25903,0.94427 -2,2.42621 -2,4v38c0,1.65685 1.34315,3 3,3h48c1.65685,0 3,-1.34315 3,-3v-38c0,-1.57379 -0.74097,-3.05573 -2,-4zM32.56,8c0.44815,-0.02339 0.85701,0.25463 1,0.68l1.13,3.38l0.21,0.64c0.09928,0.3069 0.14989,0.62745 0.15,0.95v10.35h-8.05v-10.35c0.00011,-0.32255 0.05072,-0.6431 0.15,-0.95l0.21,-0.64l1.13,-3.38c0.14299,-0.42537 0.55185,-0.70339 1,-0.68zM13.56,8.6c0.51929,-0.38947 1.15089,-0.6 1.8,-0.6h11.26v0l-1.34,4h-16.36zM57,53c0,0.55228 -0.44772,1 -1,1h-48c-0.55228,0 -1,-0.44772 -1,-1v-38c0.0061,-0.3204 0.06349,-0.63776 0.17,-0.94h17.83v9.94c0,1.10457 0.89543,2 2,2h8c1.10457,0 2,-0.89543 2,-2v-9.94h7c0.55228,0 1,-0.44772 1,-1c0,-0.55228 -0.44772,-1 -1,-1h-7.26l-1.34,-4.06v0h13.27c0.64911,0 1.28071,0.21053 1.8,0.6l5.33,4c0.75542,0.56656 1.2,1.45573 1.2,2.4z" fill="#8d6c9f"></path><path d="M20,30h-8c-0.55228,0 -1,0.44772 -1,1v4c-0.00049,2.37634 1.67167,4.42473 4,4.9v4.1h-1c-0.55228,0 -1,0.44772 -1,1c0,0.55228 0.44772,1 1,1h4c0.55228,0 1,-0.44772 1,-1c0,-0.55228 -0.44772,-1 -1,-1h-1v-4.1c2.32833,-0.47527 4.00049,-2.52366 4,-4.9v-4c0,-0.55228 -0.44772,-1 -1,-1zM19,35c0,1.65685 -1.34315,3 -3,3c-1.65685,0 -3,-1.34315 -3,-3v-3h6zM32,30c-3.86599,0 -7,3.13401 -7,7c0,0.55228 0.44772,1 1,1h5v5c0,0.55228 -0.44772,1 -1,1c-0.55228,0 -1,-0.44772 -1,-1c0,-0.55228 -0.44772,-1 -1,-1c-0.55228,0 -1,0.44772 -1,1c0,1.65685 1.34315,3 3,3c1.65685,0 3,-1.34315 3,-3v-5h5c0.55228,0 1,-0.44772 1,-1c0,-3.86599 -3.13401,-7 -7,-7zM27.1,36c0.47319,-2.33032 2.52212,-4.00501 4.9,-4.00501c2.37788,0 4.42681,1.67469 4.9,4.00501z" fill="#8d6c9f"></path></g></g></svg>