<svg version="1.1" xmlns="http://www.w3.org/2000/svg" xmlns:xlink="http://www.w3.org/1999/xlink" width="100%" height="100%" viewBox="0,0,256,256"><g fill-opacity="0" fill="#dddddd" fill-rule="nonzero" stroke="none" stroke-width="1" stroke-linecap="butt" stroke-linejoin="miter" stroke-miterlimit="10" stroke-dasharray="" stroke-dashoffset="0" font-family="none" font-weight="none" font-size="none" text-anchor="none" style="mix-blend-mode: normal"><path d="M0,256v-256h256v256z" id="bgRectangle"></path></g><g fill="none" fill-rule="nonzero" stroke="none" stroke-width="1" stroke-linecap="butt" stroke-linejoin="miter" stroke-miterlimit="10" stroke-dasharray="" stroke-dashoffset="0" font-family="none" font-weight="none" font-size="none" text-anchor="none" style="mix-blend-mode: normal"><g transform="scale(2.56,2.56)"><path d="M40,85c-2.757,0 -5,-2.243 -5,-5c0,-2.757 2.243,-5 5,-5c2.757,0 5,2.243 5,5c0,2.757 -2.243,5 -5,5z" fill="#b2b9c5"></path><path d="M68,85c-2.757,0 -5,-2.243 -5,-5c0,-2.757 2.243,-5 5,-5c2.757,0 5,2.243 5,5c0,2.757 -2.243,5 -5,5z" fill="#b2b9c5"></path><path d="M78,61l-46,3l-4,-31h56z" fill="#9ae19b"></path><path d="M38.5,73.5v7c0,0 6,0 6,-7" fill="#f6e438"></path><path d="M66.5,73.5v7c0,0 6,0 6,-7" fill="#f6e438"></path><path d="M22.5,19.5h-5.5c-0.828,0 -1.5,-0.672 -1.5,-1.5v-1c0,-0.828 0.672,-1.5 1.5,-1.5h5.5z" fill="#b2b9c5"></path><path d="M31.999,65c-0.499,0 -0.926,-0.371 -0.991,-0.872l-4,-31c-0.036,-0.285 0.052,-0.572 0.241,-0.788c0.189,-0.216 0.464,-0.34 0.751,-0.34h56c0.302,0 0.588,0.136 0.777,0.371c0.19,0.235 0.264,0.543 0.2,0.838l-6,28c-0.094,0.438 -0.466,0.759 -0.912,0.789l-46,3c-0.022,0.002 -0.044,0.002 -0.066,0.002zM29.138,34l3.734,28.941l44.309,-2.89l5.582,-26.051z" fill="#000000"></path><path d="M75,74h-44c-0.553,0 -1,-0.448 -1,-1v-1.544c0,-4.201 2.857,-7.805 6.947,-8.763c0.543,-0.128 1.076,0.208 1.202,0.746c0.126,0.538 -0.208,1.076 -0.745,1.202c-3.182,0.745 -5.404,3.547 -5.404,6.815v0.544h43c0.553,0 1,0.448 1,1c0,0.552 -0.447,1 -1,1z" fill="#000000"></path><path d="M22.5,20h-5.5c-1.103,0 -2,-0.897 -2,-2v-1c0,-1.103 0.897,-2 2,-2h5.5c0.276,0 0.5,0.224 0.5,0.5v4c0,0.276 -0.224,0.5 -0.5,0.5zM17,16c-0.552,0 -1,0.449 -1,1v1c0,0.551 0.448,1 1,1h5v-3z" fill="#000000"></path><path d="M41,33v-7.41c0,-3.724 -2.913,-6.794 -6.632,-6.99l-11.421,-0.601c-0.552,-0.029 -0.975,-0.5 -0.946,-1.051c0.029,-0.551 0.483,-0.978 1.052,-0.946l11.421,0.601c4.781,0.251 8.526,4.199 8.526,8.987v7.41z" fill="#000000"></path><path d="M22.224,20.23c2.088,1.044 3.513,3.049 3.812,5.365l0.956,7.405h2.016l-0.989,-7.661c-0.384,-2.977 -2.216,-5.556 -4.901,-6.898l-0.671,-0.336c-0.138,-0.069 -0.292,-0.105 -0.447,-0.105v1h-1v1h0.764z" fill="#000000"></path><path d="M38.5,81c-0.276,0 -0.5,-0.224 -0.5,-0.5v-7c0,-0.276 0.224,-0.5 0.5,-0.5c0.276,0 0.5,0.224 0.5,0.5v6.46c1.364,-0.177 5,-1.148 5,-6.46c0,-0.276 0.224,-0.5 0.5,-0.5c0.276,0 0.5,0.224 0.5,0.5c0,7.414 -6.435,7.5 -6.5,7.5z" fill="#000000"></path><path d="M40,85c-2.757,0 -5,-2.243 -5,-5c0,-2.1 1.339,-3.987 3.332,-4.696c0.261,-0.092 0.546,0.042 0.639,0.304c0.093,0.26 -0.043,0.546 -0.303,0.639c-1.596,0.567 -2.668,2.075 -2.668,3.753c0,2.206 1.794,4 4,4c2.206,0 4,-1.794 4,-4c0,-0.833 -0.264,-1.639 -0.762,-2.33c-0.162,-0.224 -0.111,-0.537 0.113,-0.698c0.222,-0.162 0.535,-0.111 0.697,0.113c0.623,0.863 0.952,1.871 0.952,2.915c0,2.757 -2.243,5 -5,5z" fill="#000000"></path><path d="M66.5,81c-0.276,0 -0.5,-0.224 -0.5,-0.5v-7c0,-0.276 0.224,-0.5 0.5,-0.5c0.276,0 0.5,0.224 0.5,0.5v6.46c1.364,-0.177 5,-1.148 5,-6.46c0,-0.276 0.224,-0.5 0.5,-0.5c0.276,0 0.5,0.224 0.5,0.5c0,7.414 -6.435,7.5 -6.5,7.5z" fill="#000000"></path><path d="M68,85c-2.757,0 -5,-2.243 -5,-5c0,-2.1 1.339,-3.987 3.332,-4.696c0.261,-0.092 0.547,0.042 0.639,0.304c0.093,0.26 -0.043,0.546 -0.303,0.639c-1.596,0.567 -2.668,2.075 -2.668,3.753c0,2.206 1.794,4 4,4c2.206,0 4,-1.794 4,-4c0,-0.833 -0.264,-1.639 -0.762,-2.33c-0.162,-0.224 -0.111,-0.537 0.113,-0.698c0.222,-0.162 0.535,-0.111 0.697,0.113c0.623,0.863 0.952,1.871 0.952,2.915c0,2.757 -2.243,5 -5,5z" fill="#000000"></path><path d="M56,57c-0.256,0 -0.512,-0.098 -0.707,-0.293l-6,-6c-0.391,-0.391 -0.391,-1.023 0,-1.414c0.391,-0.391 1.023,-0.391 1.414,0l5.293,5.293l5.293,-5.293c0.391,-0.391 1.023,-0.391 1.414,0c0.391,0.391 0.391,1.023 0,1.414l-6,6c-0.195,0.195 -0.451,0.293 -0.707,0.293z" fill="#000000"></path><path d="M56,57c-0.553,0 -1,-0.448 -1,-1v-16c0,-0.552 0.447,-1 1,-1c0.553,0 1,0.448 1,1v16c0,0.552 -0.447,1 -1,1z" fill="#000000"></path></g></g></svg>