<svg version="1.1" xmlns="http://www.w3.org/2000/svg" xmlns:xlink="http://www.w3.org/1999/xlink" width="100%" height="100%" viewBox="0,0,256,256"><defs><linearGradient x1="19" y1="6" x2="19" y2="58.693" gradientUnits="userSpaceOnUse" id="color-1"><stop offset="0" stop-color="#042662"></stop><stop offset="1" stop-color="#d50707"></stop></linearGradient><linearGradient x1="45" y1="6" x2="45" y2="58.693" gradientUnits="userSpaceOnUse" id="color-2"><stop offset="0" stop-color="#042662"></stop><stop offset="1" stop-color="#d50707"></stop></linearGradient><linearGradient x1="19" y1="10.833" x2="19" y2="53.389" gradientUnits="userSpaceOnUse" id="color-3"><stop offset="0" stop-color="#07131a"></stop><stop offset="1" stop-color="#c0b668"></stop></linearGradient><linearGradient x1="45" y1="10.833" x2="45" y2="53.389" gradientUnits="userSpaceOnUse" id="color-4"><stop offset="0" stop-color="#07131a"></stop><stop offset="1" stop-color="#c0b668"></stop></linearGradient></defs><g fill-opacity="0" fill="#ffffff" fill-rule="nonzero" stroke="none" stroke-width="1" stroke-linecap="butt" stroke-linejoin="miter" stroke-miterlimit="10" stroke-dasharray="" stroke-dashoffset="0" font-family="none" font-weight="none" font-size="none" text-anchor="none" style="mix-blend-mode: normal"><path d="M0,256v-256h256v256z" id="bgRectangle"></path></g><g fill="none" fill-rule="nonzero" stroke="none" stroke-width="1" stroke-linecap="butt" stroke-linejoin="miter" stroke-miterlimit="10" stroke-dasharray="" stroke-dashoffset="0" font-family="none" font-weight="none" font-size="none" text-anchor="none" style="mix-blend-mode: normal"><g transform="scale(4,4)"><path d="M23,58h-8c-2.757,0 -5,-2.243 -5,-5v-42c0,-2.757 2.243,-5 5,-5h8c2.757,0 5,2.243 5,5v42c0,2.757 -2.243,5 -5,5zM15,8c-1.654,0 -3,1.346 -3,3v42c0,1.654 1.346,3 3,3h8c1.654,0 3,-1.346 3,-3v-42c0,-1.654 -1.346,-3 -3,-3z" fill="url(#color-1)"></path><path d="M49,58h-8c-2.757,0 -5,-2.243 -5,-5v-42c0,-2.757 2.243,-5 5,-5h8c2.757,0 5,2.243 5,5v42c0,2.757 -2.243,5 -5,5zM41,8c-1.654,0 -3,1.346 -3,3v42c0,1.654 1.346,3 3,3h8c1.654,0 3,-1.346 3,-3v-42c0,-1.654 -1.346,-3 -3,-3z" fill="url(#color-2)"></path><path d="M21,53h-4c-1.105,0 -2,-0.895 -2,-2v-38c0,-1.105 0.895,-2 2,-2h4c1.105,0 2,0.895 2,2v38c0,1.105 -0.895,2 -2,2z" fill="url(#color-3)"></path><path d="M47,53h-4c-1.105,0 -2,-0.895 -2,-2v-38c0,-1.105 0.895,-2 2,-2h4c1.105,0 2,0.895 2,2v38c0,1.105 -0.895,2 -2,2z" fill="url(#color-4)"></path></g></g></svg>