<svg version="1.1" xmlns="http://www.w3.org/2000/svg" xmlns:xlink="http://www.w3.org/1999/xlink" width="100%" height="100%" viewBox="0,0,256,256"><g fill-opacity="0" fill="#ffffff" fill-rule="nonzero" stroke="none" stroke-width="1" stroke-linecap="butt" stroke-linejoin="miter" stroke-miterlimit="10" stroke-dasharray="" stroke-dashoffset="0" font-family="none" font-weight="none" font-size="none" text-anchor="none" style="mix-blend-mode: normal"><path d="M0,256v-256h256v256z" id="bgRectangle"></path></g><g fill="none" fill-rule="nonzero" stroke="none" stroke-width="1" stroke-linecap="butt" stroke-linejoin="miter" stroke-miterlimit="10" stroke-dasharray="" stroke-dashoffset="0" font-family="none" font-weight="none" font-size="none" text-anchor="none" style="mix-blend-mode: normal"><g transform="scale(3.76471,3.76471)"><path d="M66.00015,33.99545c0,17.67004 -14.31982,32 -32,32c-17.66992,0 -32,-14.32995 -32,-32c0,-0.69995 0.02002,-1.38995 0.07007,-2.07996c1.07007,16.70001 14.95996,29.91998 31.92993,29.91998c16.97998,0 30.86011,-13.21997 31.93018,-29.91998c0.0498,0.69 0.06982,1.38001 0.06982,2.07996z" fill="#022728"></path><path d="M34,67c-18.19629,0 -33,-14.80371 -33,-33c0,-18.19629 14.80371,-33 33,-33c18.19629,0 33,14.80371 33,33c0,18.19629 -14.80371,33 -33,33zM34,3c-17.09375,0 -31,13.90625 -31,31c0,17.09375 13.90625,31 31,31c17.09375,0 31,-13.90625 31,-31c0,-17.09375 -13.90625,-31 -31,-31z" fill="#6a0948"></path><path d="M55.70035,33.99545c0,11.97003 -9.72998,21.70001 -21.7002,21.70001c-11.96997,0 -21.69995,-9.72998 -21.69995,-21.70001c0,-0.69995 0.03003,-1.38995 0.1001,-2.06995c1.04004,11 10.32983,19.62995 21.59985,19.62995c11.27002,0 20.56006,-8.62994 21.6001,-19.62995c0.07007,0.67999 0.1001,1.37 0.1001,2.06995z" fill="#022728"></path><path d="M34,56.7002c-12.5166,0 -22.7002,-10.18359 -22.7002,-22.7002c0,-12.5166 10.18359,-22.7002 22.7002,-22.7002c12.5166,0 22.7002,10.18359 22.7002,22.7002c0,12.5166 -10.18359,22.7002 -22.7002,22.7002zM34,13.2998c-11.41406,0 -20.7002,9.28613 -20.7002,20.7002c0,11.41406 9.28613,20.7002 20.7002,20.7002c11.41406,0 20.7002,-9.28613 20.7002,-20.7002c0,-11.41406 -9.28613,-20.7002 -20.7002,-20.7002z" fill="#062854"></path><path d="M30.02051,47.16211c-0.7334,0 -1.46973,-0.17285 -2.15137,-0.52148c-1.58203,-0.81055 -2.56445,-2.41699 -2.56445,-4.19434v-16.8916c0,-1.77734 0.98242,-3.38379 2.56348,-4.19434c1.58105,-0.81055 3.45996,-0.66992 4.90234,0.36914l11.73242,8.44629c1.24609,0.89648 1.95996,2.29004 1.95996,3.82422c0,1.53516 -0.71387,2.92871 -1.95996,3.8252l-11.73242,8.44531c-0.82031,0.59082 -1.78223,0.8916 -2.75,0.8916zM30.02539,22.83398c-0.4209,0 -0.84473,0.10156 -1.24512,0.30664c-0.92383,0.47266 -1.47559,1.37598 -1.47559,2.41406v16.8916c0,1.03809 0.55176,1.94043 1.47656,2.41406c0.92285,0.47363 1.97754,0.39453 2.82129,-0.21289l11.73242,-8.44531v0c0.7168,-0.51563 1.12793,-1.31836 1.12793,-2.20215c0,-0.88281 -0.41113,-1.68555 -1.12793,-2.20117l-11.73242,-8.44629c-0.47852,-0.34375 -1.02539,-0.51855 -1.57715,-0.51855z" fill="#6a0948"></path></g></g></svg>