<svg version="1.1" xmlns="http://www.w3.org/2000/svg" xmlns:xlink="http://www.w3.org/1999/xlink" width="100%" height="100%" viewBox="0,0,256,256"><g fill-opacity="0" fill="#dddddd" fill-rule="nonzero" stroke="none" stroke-width="1" stroke-linecap="butt" stroke-linejoin="miter" stroke-miterlimit="10" stroke-dasharray="" stroke-dashoffset="0" font-family="none" font-weight="none" font-size="none" text-anchor="none" style="mix-blend-mode: normal"><path d="M0,256v-256h256v256z" id="bgRectangle"></path></g><g fill="none" fill-rule="nonzero" stroke="none" stroke-width="1" stroke-linecap="butt" stroke-linejoin="miter" stroke-miterlimit="10" stroke-dasharray="" stroke-dashoffset="0" font-family="none" font-weight="none" font-size="none" text-anchor="none" style="mix-blend-mode: normal"><g transform="scale(2,2)"><path d="M15,124c0,-5.5 4.5,-10 10,-10c0,-5.5 4.5,-10 10,-10v20zM115.3,83.2l-45.3,-45.2l-45.3,45.2l-8.4,-8.4l53.7,-53.8l53.7,53.8z" fill-opacity="0.52157" fill="#eff130"></path><path d="M105,117v-44.6l-35,-34.4l-35,35v51h76v-1c0,-3.3 -2.7,-6 -6,-6z" fill-opacity="0.52157" fill="#eff130"></path><path d="M59,80h22v44h-22z" fill="#0f65a6"></path><path d="M81,127h-22c-1.7,0 -3,-1.3 -3,-3v-44c0,-1.7 1.3,-3 3,-3h22c1.7,0 3,1.3 3,3v44c0,1.7 -1.3,3 -3,3zM62,121h16v-38h-16z" fill="#0f65a6"></path><path d="M125.9,72.6l-53.8,-53.7c-1.1,-1.1 -3.1,-1.1 -4.2,0l-53.8,53.7c-1.2,1.2 -1.2,3.1 0,4.2l8.5,8.5c0.6,0.6 1.3,0.9 2.1,0.9c0.8,0 1.6,-0.3 2.1,-0.9l43.2,-43.1l32,32v40.3c-2.9,1 -5.1,3.5 -5.8,6.5h-58.2v-27c0,-1.7 -1.3,-3 -3,-3c-1.7,0 -3,1.3 -3,3v7.4c-4.9,1.2 -8.7,5 -9.7,9.9c-4.9,1 -8.8,4.9 -9.9,9.7h-8.4c-1.7,0 -3,1.3 -3,3c0,1.7 1.3,3 3,3h95c1.7,0 3,-1.3 3,-3v-1c0,-1.7 1.3,-3 3,-3c1.7,0 3,1.3 3,3v1c0,1.7 1.3,3 3,3h3c1.7,0 3,-1.3 3,-3c0,-1.7 -1.3,-3 -3,-3h-0.2c-0.7,-3 -2.9,-5.5 -5.8,-6.5v-34.3l5.1,5.1c0.6,0.6 1.3,0.9 2.1,0.9c0.8,0 1.6,-0.3 2.1,-0.9l8.5,-8.5c1.2,-1.1 1.2,-3 0.1,-4.2zM25,117c1.7,0 3,-1.3 3,-3c0,-2.8 1.6,-5.2 4,-6.3v13.3h-13.3c1.1,-2.4 3.5,-4 6.3,-4zM115.3,79l-43.2,-43.1c-0.6,-0.6 -1.3,-0.9 -2.1,-0.9c-0.8,0 -1.5,0.3 -2.1,0.9l-43.2,43.1l-4.2,-4.2l49.5,-49.5l49.5,49.5zM124,121c-1.65685,0 -3,1.34315 -3,3c0,1.65685 1.34315,3 3,3c1.65685,0 3,-1.34315 3,-3c0,-1.65685 -1.34315,-3 -3,-3z" fill="#27a00b"></path></g></g></svg>