<svg version="1.1" xmlns="http://www.w3.org/2000/svg" xmlns:xlink="http://www.w3.org/1999/xlink" width="100%" height="100%" viewBox="0,0,256,256"><g fill-opacity="0" fill="#dddddd" fill-rule="nonzero" stroke="none" stroke-width="1" stroke-linecap="butt" stroke-linejoin="miter" stroke-miterlimit="10" stroke-dasharray="" stroke-dashoffset="0" font-family="none" font-weight="none" font-size="none" text-anchor="none" style="mix-blend-mode: normal"><path d="M0,256v-256h256v256z" id="bgRectangle"></path></g><g fill="none" fill-rule="nonzero" stroke="none" stroke-width="1" stroke-linecap="butt" stroke-linejoin="miter" stroke-miterlimit="10" stroke-dasharray="" stroke-dashoffset="0" font-family="none" font-weight="none" font-size="none" text-anchor="none" style="mix-blend-mode: normal"><g transform="scale(5.33333,5.33333)"><path d="M24,44c-11,0 -20,-9 -20,-20c0,-11 9,-20 20,-20c11,0 20,9 20,20c0,11 -9,20 -20,20z" fill="#9d012d"></path><path d="M27.999,41.514c-0.451,0 -0.86,-0.307 -0.971,-0.765c-0.129,-0.537 0.2,-1.077 0.737,-1.207c5.847,-1.414 10.356,-5.927 11.77,-11.776c0.13,-0.537 0.671,-0.867 1.207,-0.737c0.537,0.129 0.867,0.67 0.737,1.206c-1.59,6.583 -6.665,11.66 -13.244,13.251c-0.079,0.019 -0.158,0.028 -0.236,0.028z" fill="#1c0319"></path><path d="M19.43,8.57c-1.407,-1.407 -4.98,-0.117 -7.979,2.882c-2.999,2.999 -4.289,6.571 -2.882,7.979c1.407,1.407 4.98,0.117 7.979,-2.882c3,-3 4.29,-6.572 2.882,-7.979z" fill="#f11481"></path></g></g></svg>