<svg version="1.1" xmlns="http://www.w3.org/2000/svg" xmlns:xlink="http://www.w3.org/1999/xlink" width="100%" height="100%" viewBox="0,0,256,256"><g fill="none" fill-rule="nonzero" stroke="none" stroke-width="1" stroke-linecap="butt" stroke-linejoin="miter" stroke-miterlimit="10" stroke-dasharray="" stroke-dashoffset="0" font-family="none" font-weight="none" font-size="none" text-anchor="none" style="mix-blend-mode: normal"><g transform="scale(5.33333,5.33333)"><path d="M14.127,27.409l12.008,11.476l20.657,-21.614l-12.009,-11.476z" fill="#0e305c"></path><path transform="translate(-2.48945,36.97506) rotate(-59.576)" d="M15.98,12.16h30.146v17.006h-30.146z" fill="#a5d6a7"></path><path d="M30.751,37.966l15.659,-26.661l-14.663,-8.612l-15.659,26.661zM32.297,4.809l11.997,7.046l-14.093,23.995l-11.997,-7.046z" fill="#420652"></path><path transform="translate(7.10959,37.08208) rotate(-59.576)" d="M35.947,10.785c-0.85383,0 -1.546,0.69217 -1.546,1.546c0,0.85383 0.69217,1.546 1.546,1.546c0.85383,0 1.546,-0.69217 1.546,-1.546c0,-0.85383 -0.69217,-1.546 -1.546,-1.546z" fill="#420652"></path><path transform="translate(-2.10692,36.97933) rotate(-59.576)" d="M31.249,14.918c-2.98841,0 -5.411,2.42259 -5.411,5.411c0,2.98841 2.42259,5.411 5.411,5.411c2.98841,0 5.411,-2.42259 5.411,-5.411c0,-2.98841 -2.42259,-5.411 -5.411,-5.411z" fill="#420652"></path><path d="M30.369,6.564c0.167,0.527 0.514,1 1.028,1.302c1.104,0.649 2.525,0.279 3.174,-0.825c0.302,-0.514 0.375,-1.096 0.264,-1.638l-2.814,-1.653zM32.129,34.094c-0.167,-0.527 -0.514,-1 -1.028,-1.302c-1.104,-0.649 -2.525,-0.279 -3.174,0.825c-0.302,0.514 -0.375,1.096 -0.264,1.638l2.814,1.653zM45.352,11.58l-2.814,-1.653c-0.527,0.167 -1,0.514 -1.302,1.028c-0.649,1.104 -0.279,2.525 0.825,3.174c0.514,0.302 1.096,0.375 1.638,0.264z" fill="#420652"></path><path d="M32.117,21.799c-1.046,-1.004 -2.677,-1.069 -3.8,-0.152l-5.346,4.312h-2.21l-1.206,-2.509l4.371,-7.452l-6.107,1.827c-0.735,0.22 -1.367,0.695 -1.784,1.339l-6.46,9.98l-2.789,0.873l3.124,10.214l9.814,-2.146c2.058,-0.45 3.897,-1.599 5.204,-3.252l7.454,-9.184c0.917,-1.16 0.802,-2.827 -0.265,-3.85z" fill="#ffcf88"></path><path d="M1.001,30.145l7.641,-2.145l4.358,13.855l-7.642,2.145z" fill="#141621"></path><path d="M28.314,23.073c0,0 0.303,1.137 0.834,1.668c0.531,0.531 1.819,0.91 1.819,0.91c0,0 1.659,-1.682 0.372,-2.988c-1.336,-1.357 -3.025,0.41 -3.025,0.41z" fill="#f9e7cd"></path></g></g></svg>