<svg version="1.1" xmlns="http://www.w3.org/2000/svg" xmlns:xlink="http://www.w3.org/1999/xlink" width="100%" height="100%" viewBox="0,0,256,256"><g fill-opacity="0" fill="#dddddd" fill-rule="nonzero" stroke="none" stroke-width="1" stroke-linecap="butt" stroke-linejoin="miter" stroke-miterlimit="10" stroke-dasharray="" stroke-dashoffset="0" font-family="none" font-weight="none" font-size="none" text-anchor="none" style="mix-blend-mode: normal"><path d="M0,256v-256h256v256z" id="bgRectangle"></path></g><g fill="#1861dc" fill-rule="nonzero" stroke="none" stroke-width="1" stroke-linecap="butt" stroke-linejoin="miter" stroke-miterlimit="10" stroke-dasharray="" stroke-dashoffset="0" font-family="none" font-weight="none" font-size="none" text-anchor="none" style="mix-blend-mode: normal"><g transform="scale(8,8)"><path d="M15.99805,4.87891c-3.29875,0.00125 -6.59891,0.25195 -9.87891,0.75195c-1.65,0.26 -3.33,1.7882 -3.75,3.4082c-1.08,4.31 -1.14898,8.69148 -0.20898,13.02148c0.48,2.09 2.69914,4.11922 4.86914,4.44922c3.964,0.547 7.42102,0.61833 9.16602,0.61133c0.564,-0.002 1.00742,-0.47606 0.98242,-1.03906c-0.078,-1.769 1.53302,-2.94025 2.79102,-3.03125l0.7793,-0.07031c0.52,-0.043 1.01142,-0.09253 1.48242,-0.14453c0.544,-0.061 0.94342,-0.55666 0.85742,-1.09766c-0.225,-1.405 0.56752,-2.87356 2.10352,-3.35156c1.65,-0.513 2.58852,0.36659 3.35352,1.30859c0.559,0.689 1.67834,0.36833 1.77734,-0.51367c0.378,-3.384 0.14559,-6.78634 -0.69141,-10.15234c-0.42,-1.61 -2.10172,-3.14016 -3.76172,-3.41016c-3.275,-0.495 -6.57234,-0.74148 -9.87109,-0.74023zM16,6.88086c3.2,0 6.40031,0.23875 9.57031,0.71875c0.93,0.14 1.79031,1.00094 1.82031,1.96094c0.02,0.42 -0.14992,0.84969 -0.41992,1.17969c-3.5,4.23 -9.7507,6.91992 -10.9707,6.91992c-1.22,0 -7.4707,-2.68992 -10.9707,-6.91992c-0.27,-0.33 -0.43992,-0.75969 -0.41992,-1.17969c0.03,-0.96 0.89031,-1.82094 1.82031,-1.96094c3.17,-0.48 6.37031,-0.71875 9.57031,-0.71875zM26.00391,20.25391c-0.35288,0.01172 -0.67343,0.20864 -0.8434,0.51811c-0.16997,0.30947 -0.16416,0.68563 0.01527,0.98971c0.57532,1.00774 1.30475,1.77418 2.12305,2.37305c-1.51263,0.24253 -3.5797,0.60263 -6.375,0.83789c-0.00065,0.00065 -0.0013,0.0013 -0.00195,0.00195c-0.2641,0.02258 -0.53207,0.04223 -0.80273,0.06445c-0.55067,0.0453 -0.96034,0.52843 -0.91504,1.0791c0.0453,0.55067 0.52843,0.96034 1.0791,0.91504c0.26534,-0.02178 0.53469,-0.04299 0.80859,-0.06641c2.92813,-0.24644 5.10274,-0.63038 6.57813,-0.86719c-0.68233,0.87791 -1.19096,1.88867 -1.45508,3.04492c-0.0908,0.35237 0.01695,0.72625 0.28136,0.97625c0.26441,0.25 0.64373,0.33666 0.99047,0.22628c0.34674,-0.11038 0.60616,-0.40038 0.67739,-0.75722c0.35458,-1.55228 1.05096,-2.67574 2.18359,-3.49414v-0.00195c0.95369,-0.69034 0.72404,-2.31876 -0.41797,-2.67969c-1.19802,-0.37706 -2.18291,-1.18251 -3.01758,-2.64453c-0.18183,-0.32885 -0.53264,-0.52802 -0.9082,-0.51562z"></path></g></g></svg>