<svg version="1.1" xmlns="http://www.w3.org/2000/svg" xmlns:xlink="http://www.w3.org/1999/xlink" width="100%" height="100%" viewBox="0,0,256,256"><g fill-opacity="0" fill="#dddddd" fill-rule="nonzero" stroke="none" stroke-width="1" stroke-linecap="butt" stroke-linejoin="miter" stroke-miterlimit="10" stroke-dasharray="" stroke-dashoffset="0" font-family="none" font-weight="none" font-size="none" text-anchor="none" style="mix-blend-mode: normal"><path d="M0,256v-256h256v256z" id="bgRectangle"></path></g><g fill="#828383" fill-rule="nonzero" stroke="none" stroke-width="1" stroke-linecap="butt" stroke-linejoin="miter" stroke-miterlimit="10" stroke-dasharray="" stroke-dashoffset="0" font-family="none" font-weight="none" font-size="none" text-anchor="none" style="mix-blend-mode: normal"><g transform="scale(2.56,2.56)"><path d="M54.32617,8.22461c-0.03719,-0.00012 -0.07436,0.00184 -0.11133,0.00586c-3.83047,0.41666 -5.12963,0.43685 -10.2207,1.80078c-0.32027,0.08606 -0.57706,0.32528 -0.68555,0.63867c-0.22105,0.6368 -0.90689,2.18032 -1.64062,4.28711c-0.68978,1.98056 -1.4055,4.59116 -1.91406,7.54297c-1.47306,0.77168 -2.9135,1.65728 -4.31445,2.64648c-2.35377,-0.67468 -4.92088,-1.49176 -7.0918,-2.15039c-1.14791,-0.34826 -2.18321,-0.64873 -3.03125,-0.86133c-0.84804,-0.2126 -1.40303,-0.37688 -2.07227,-0.3125c-0.40971,0.03923 -0.47516,0.148 -0.58594,0.2207c-0.11078,0.0727 -0.2038,0.14794 -0.30469,0.23242c-0.20177,0.16896 -0.42624,0.37923 -0.68359,0.63281c-0.5147,0.50717 -1.15014,1.1804 -1.81836,1.91797c-1.33643,1.47513 -2.78157,3.17868 -3.57812,4.29688c-0.47278,0.66451 -1.14948,1.60781 -1.2793,2.77148c0,0.00065 0,0.0013 0,0.00195c-0.08448,0.76033 0.18219,1.13516 0.49023,1.77344c0.30804,0.63828 0.74741,1.41582 1.30859,2.34766c1.06005,1.76019 2.61609,4.14725 4.41992,6.91016c-0.74031,1.78206 -1.34507,3.58376 -1.79492,5.39258c-3.45998,1.86309 -6.92105,3.72687 -10.38086,5.58984c-0.15104,0.08145 -0.51894,0.23247 -0.77148,0.7168c-0.21524,0.41284 -0.1711,0.7352 -0.16797,0.87305c0,0.00065 0,0.0013 0,0.00195c0.08103,3.35756 0.37514,6.76292 0.45313,10.03516c0.00314,0.14504 0.03779,0.28766 0.10156,0.41797c0.58397,1.18613 1.75042,1.99085 2.78125,2.68359c1.03083,0.69274 1.95703,1.17773 1.95703,1.17773c0.14884,0.08235 0.31623,0.12537 0.48633,0.125c3.01591,0.44518 5.92696,0.76428 8.95898,0.99609c-1.5431,3.39096 -3.11906,7.50629 -4.24023,10.65625c-0.12498,0.35104 -0.04444,0.74245 0.20898,1.01563c1.51065,1.62818 2.2937,2.8964 5.37305,5.125c1.88515,1.67581 4.66902,3.33837 6.73242,3.91992c0.50126,0.14114 0.78101,0.0239 1.0918,-0.07422c0.31079,-0.09812 0.63232,-0.23987 0.99414,-0.41992c0.72365,-0.36011 1.59656,-0.87997 2.58203,-1.52344c1.86785,-1.21962 4.13928,-2.91905 6.33008,-4.71289c0.3897,0.07895 0.78165,0.14651 1.17578,0.20508l1.76367,4.4668c0.06552,0.16711 0.17481,0.31351 0.31641,0.42383l4.4707,3.46875c0.14276,0.1252 0.31822,0.20717 0.50586,0.23633c0.0304,0.00532 0.06103,0.00923 0.0918,0.01172c0.00195,0.00001 0.00391,0.00001 0.00586,0c0.03318,0.00165 0.06643,0.00165 0.09961,0c0.02087,-0.00065 0.04171,-0.00195 0.0625,-0.00391c0.00456,-0.00062 0.00912,-0.00127 0.01367,-0.00195c0.02883,-0.00331 0.0575,-0.00787 0.08594,-0.01367c0.00261,-0.00064 0.00521,-0.00129 0.00781,-0.00195c0.02964,-0.00648 0.05896,-0.0143 0.08789,-0.02344c0.00065,0 0.0013,0 0.00195,0l9.60547,-3.0293c0.29428,-0.09279 0.52925,-0.31623 0.63672,-0.60547c0,0 2.1326,-5.77001 3.22266,-9.52148c1.51693,-0.90619 2.9935,-1.93934 4.42188,-3.08594c1.69886,0.56353 4.13356,1.02737 7.84375,1.32813c0.59627,0.04849 0.76163,-0.16986 0.97461,-0.31836c0.21298,-0.1485 0.415,-0.32457 0.63867,-0.54102c0.44734,-0.43288 0.97274,-1.02323 1.56641,-1.75781c1.18733,-1.46916 2.63319,-3.5054 4.04297,-5.8418c0.25104,-0.41626 0.23148,-0.77727 0.19727,-1.08984c-0.03421,-0.31257 -0.11443,-0.60996 -0.2207,-0.92773c-0.21255,-0.63555 -0.53986,-1.34711 -0.92578,-2.10352c-0.6959,-1.36395 -1.57034,-2.80285 -2.30664,-3.99219c0.72628,-1.61548 1.33767,-3.25015 1.82227,-4.89258c1.45946,-0.87454 3.37146,-2.02212 5.05273,-3.11328c0.89008,-0.57767 1.70052,-1.12978 2.33594,-1.61133c0.31771,-0.24077 0.59085,-0.46155 0.82031,-0.67773c0.2291,-0.21584 0.4267,-0.36937 0.5957,-0.78125v-0.00195c0.13271,-0.32336 0.16641,-0.58026 0.2207,-0.94141c0.0544,-0.36185 0.10264,-0.79107 0.14453,-1.27344c0.08377,-0.96473 0.14422,-2.13272 0.16602,-3.2832c0.02179,-1.15048 0.0068,-2.27731 -0.06836,-3.17969c-0.03757,-0.45119 -0.08762,-0.84171 -0.17383,-1.19336c-0.0431,-0.17582 -0.09101,-0.34216 -0.18555,-0.5293c-0.07413,-0.14674 -0.18138,-0.34065 -0.41797,-0.5c-0.69202,-0.71636 -1.58745,-1.47807 -2.44727,-2.13477c-0.90522,-0.69138 -1.63713,-1.22159 -2.29492,-1.49609c-1.05533,-0.43949 -2.63142,-0.54457 -4.71094,-0.69922c-0.10425,-0.23311 -0.19242,-0.47411 -0.30469,-0.70312c1.02025,-2.59966 2.025,-5.27625 2.77148,-7.33594c0.39163,-1.08058 0.71715,-1.99561 0.94336,-2.66016c0.1131,-0.33227 0.20094,-0.60185 0.26367,-0.80469c0.03136,-0.10142 0.0553,-0.18519 0.07617,-0.26562c0.01043,-0.04022 0.02101,-0.07771 0.03125,-0.13281c0.01024,-0.0551 0.06816,-0.03725 0.00391,-0.39258c-0.06443,-0.35899 -0.11171,-0.32329 -0.15039,-0.39062c-0.03868,-0.06733 -0.07686,-0.12721 -0.12305,-0.19531c-0.09237,-0.1362 -0.21171,-0.2975 -0.36523,-0.49219c-0.30704,-0.38937 -0.74749,-0.90343 -1.32422,-1.5c-0.64516,-0.66737 -1.47875,-1.43965 -2.46289,-2.24414c-0.0282,-0.02981 -0.0582,-0.05786 -0.08984,-0.08398c0,0 -2.97104,-2.52401 -6.76953,-4.53516c-0.148,-0.07799 -0.3132,-0.11761 -0.48047,-0.11523c-0.19103,0.00226 -0.37742,0.0592 -0.53711,0.16406c-3.29248,2.16995 -7.16344,4.43196 -9.4707,6.16211c-1.17782,-3.53812 -2.0674,-6.34134 -2.98242,-8.68555c-0.04682,-0.15194 -0.12917,-0.29053 -0.24023,-0.4043c-0.00259,-0.00262 -0.00519,-0.00522 -0.00781,-0.00781c-0.02595,-0.02623 -0.05334,-0.05101 -0.08203,-0.07422c0,0 -1.89537,-1.50982 -5.13672,-2.89453c-0.12351,-0.05264 -0.25636,-0.07988 -0.39062,-0.08008zM58.54688,13.08008c1.03139,2.72733 1.90811,5.63943 3.61914,10.60547c0.1217,0.35181 0.42872,0.60692 0.79688,0.66211c1.69821,0.25343 3.34675,0.68671 4.91797,1.30469c0.3494,0.13701 0.74611,0.06688 1.02734,-0.18164c1.68616,-1.4902 4.867,-4.12985 8.40625,-6.52539c1.76391,1.22395 3.27774,2.48734 4.22461,3.4668c0.53115,0.54943 0.93098,1.01935 1.19141,1.34961c0.06473,0.08208 0.09175,0.12408 0.13867,0.1875c-0.05216,0.16358 -0.11099,0.34432 -0.19922,0.60352c-0.21933,0.64433 -0.53924,1.55113 -0.92773,2.62305c-0.77699,2.14384 -1.8265,4.94612 -2.89063,7.64453c-0.1056,0.26784 -0.09065,0.56819 0.04102,0.82422c0.25669,0.4976 0.48852,1.01021 0.70898,1.5293c0.01273,0.03798 0.02773,0.07515 0.04492,0.11133c0.41396,0.98889 0.77102,2.00977 1.05469,3.06445c0.11163,0.41474 0.47561,0.7119 0.9043,0.73828c1.26781,0.07809 3.07968,0.20136 4.69141,0.35938c0.80586,0.07901 1.56371,0.16799 2.16602,0.25977c0.43184,0.0658 0.62674,0.12242 0.82617,0.17383c0.03593,0.18189 0.0744,0.40816 0.10156,0.73438c0.0653,0.78419 0.08346,1.86834 0.0625,2.97461c-0.02096,1.10627 -0.07941,2.2411 -0.1582,3.14844c-0.03939,0.45367 -0.08396,0.85142 -0.12891,1.15039c-0.0387,0.2574 -0.07958,0.39519 -0.08008,0.41211c-0.02351,0.03168 -0.06434,0.08968 -0.13086,0.15234c-0.14497,0.13658 -0.37335,0.32662 -0.65625,0.54102c-0.5658,0.42879 -1.35095,0.96414 -2.21875,1.52734c-1.73559,1.12641 -3.80958,2.37319 -5.28711,3.25781c-0.21899,0.13087 -0.37969,0.34048 -0.44922,0.58594c-0.52344,1.84955 -1.20654,3.69369 -2.05469,5.50977c-0.14392,0.30765 -0.12185,0.66732 0.05859,0.95508c0.7584,1.21255 1.751,2.8629 2.47266,4.27734c0.36083,0.70722 0.65429,1.3609 0.81055,1.82813c0.07278,0.21762 0.10797,0.37951 0.12109,0.47461c-1.33375,2.19512 -2.70744,4.13933 -3.80078,5.49219c-0.55908,0.69179 -1.04804,1.23716 -1.40039,1.57813c-0.14171,0.13713 -0.23634,0.2109 -0.31445,0.27148c-3.77496,-0.32155 -6.28135,-0.8206 -7.5957,-1.31641c-0.33595,-0.12637 -0.71386,-0.06301 -0.99023,0.16602c-1.57991,1.3054 -3.23267,2.44773 -4.93164,3.43945c-0.22427,0.13083 -0.38886,0.34376 -0.45898,0.59375c-0.94548,3.37511 -2.94157,8.74011 -3.13867,9.27148l-8.23633,2.59766l-2.91602,-7.38477c-0.15019,-0.38038 -0.51683,-0.631 -0.92578,-0.63281c-1.02027,-0.00556 -2.02676,-0.07444 -3.01758,-0.19727c-0.03932,-0.00825 -0.07911,-0.01412 -0.11914,-0.01758c-0.69745,-0.09005 -1.38857,-0.20104 -2.06641,-0.35352c-0.30214,-0.0681 -0.61879,0.00764 -0.85742,0.20508c-2.24478,1.85971 -4.60999,3.60703 -6.49805,4.83984c-0.94403,0.61641 -1.7718,1.10414 -2.37891,1.40625c-0.30355,0.15105 -0.55547,0.25489 -0.70703,0.30273c-0.04247,0.01341 -0.0493,0.01019 -0.07031,0.01172c-1.61591,-0.50358 -4.56136,-2.35957 -6.08203,-3.78516c1.19447,-3.25119 2.70509,-6.7183 4.26563,-9.98242c0.1595,-0.33357 0.12194,-0.72792 -0.09766,-1.02539c-1.15081,-1.55731 -2.08171,-3.26985 -2.79883,-5.09961c-0.14265,-0.36319 -0.4835,-0.61025 -0.87305,-0.63281c-3.80407,-0.21585 -7.26807,-0.61114 -10.9082,-1.13281c-0.07152,-2.96981 -0.14124,-5.94003 -0.21289,-8.91016c3.53661,-1.90434 7.07486,-3.80864 10.61133,-5.71289c0.25245,-0.13575 0.43452,-0.37329 0.5,-0.65234c0.47488,-2.02576 1.14728,-4.05488 2.01367,-6.05859c0.13326,-0.30797 0.10319,-0.66225 -0.08008,-0.94336c-1.94692,-2.98061 -3.54903,-5.44653 -4.63867,-7.25586c-0.54482,-0.90467 -0.96162,-1.64675 -1.2207,-2.18359c-0.19129,-0.39636 -0.24725,-0.74361 -0.27734,-0.77734c0.08758,-0.37617 0.52375,-1.22141 0.89258,-1.74023v-0.00195c0.68467,-0.96096 2.13069,-2.67731 3.43164,-4.11328c0.65066,-0.71819 1.27022,-1.37279 1.74023,-1.83594c0.21859,-0.21539 0.39624,-0.37787 0.52539,-0.48828c0.09575,0.01647 0.53912,0.05471 1.23242,0.22852c0.78568,0.19696 1.80008,0.4934 2.93555,0.83789c2.27094,0.68898 5.0275,1.57449 7.53906,2.2832c0.29497,0.08293 0.61168,0.02607 0.85938,-0.1543c1.58778,-1.15307 3.22844,-2.15969 4.9043,-3.00977c0.28572,-0.14494 0.48469,-0.418 0.53516,-0.73437c0.92605,-5.83358 2.0812,-10.24478 2.60938,-11.89453c4.19207,-1.09785 6.62676,-1.47149 9.8125,-1.82812zM58.74805,36.12305c-5.66481,0.03082 -11.78274,2.97243 -16.23242,8.26953c-7.1195,8.47537 -7.56434,20.11588 -0.58984,25.97461c6.97449,5.85873 18.36683,3.41287 25.48633,-5.0625c7.1195,-8.47537 7.56043,-20.11588 0.58594,-25.97461c-2.61544,-2.19702 -5.85111,-3.22553 -9.25,-3.20703zM58.66602,38.13477c0.7566,-0.00765 1.49588,0.0637 2.22266,0.17383c5.57642,4.87272 5.39603,14.40013 -0.45898,21.37109c-5.70351,6.79117 -14.68964,8.74019 -20.52734,4.49023c-2.11415,-5.37618 -0.76881,-12.64313 4.14453,-18.49219c4.10561,-4.8875 9.61592,-7.49238 14.61914,-7.54297z"></path></g></g></svg>