<svg version="1.1" xmlns="http://www.w3.org/2000/svg" xmlns:xlink="http://www.w3.org/1999/xlink" width="100%" height="100%" viewBox="0,0,256,256"><g fill-opacity="0" fill="#dddddd" fill-rule="nonzero" stroke="none" stroke-width="1" stroke-linecap="butt" stroke-linejoin="miter" stroke-miterlimit="10" stroke-dasharray="" stroke-dashoffset="0" font-family="none" font-weight="none" font-size="none" text-anchor="none" style="mix-blend-mode: normal"><path d="M0,256v-256h256v256z" id="bgRectangle"></path></g><g fill="none" fill-rule="nonzero" stroke="none" stroke-width="1" stroke-linecap="butt" stroke-linejoin="miter" stroke-miterlimit="10" stroke-dasharray="" stroke-dashoffset="0" font-family="none" font-weight="none" font-size="none" text-anchor="none" style="mix-blend-mode: normal"><g transform="scale(1.8963,1.8963)"><g id="_x38_1"><path d="M131.5,67.5c0,17.56 -7.08008,33.45996 -18.53003,45.01996c-11.59009,11.72003 -27.67993,18.97003 -45.45996,18.97003c-17.79004,0 -33.89014,-7.25 -45.47998,-18.97003c-11.45007,-11.56 -18.53003,-27.45996 -18.53003,-45.01996c0,-35.34998 28.65991,-63.98999 64.01001,-63.98999c35.32983,0 63.98999,28.64001 63.98999,63.98999z" fill="#cdeffb"></path><path d="M16.88647,106.60254c11.7002,15.13147 30.00977,24.88745 50.61694,24.88745c20.60693,0 38.91309,-9.75598 50.6106,-24.88745z" fill="#047d36"></path><path d="M45.56126,112.23168c0.00108,0.86842 -0.71816,1.53926 -1.53086,1.54028l-17.35231,0.01534c-0.81256,0.00101 -1.53354,-0.66779 -1.53462,-1.53646c-0.00105,-0.84837 0.68243,-1.53359 1.5308,-1.53465l17.35231,-0.01535c0.84837,-0.00105 1.53363,0.68246 1.53468,1.53084z" fill="#8dcea8"></path><path d="M70.54992,125.99483c0.00108,0.86842 -0.71816,1.53926 -1.53087,1.54027l-1.88902,0.00235c-0.81257,0.00101 -1.53354,-0.66779 -1.53462,-1.53646c-0.00105,-0.84838 0.68243,-1.53359 1.53081,-1.53465l1.88902,-0.00234c0.84837,-0.00105 1.53363,0.68246 1.53468,1.53084z" fill="#8dcea8"></path><path d="M96.65966,124.43439c-2.19861,1.13274 -4.46737,2.14551 -6.80625,3.01841c-0.05997,0.0201 -0.11,0.04018 -0.16998,0.06021l-16.06999,0.01997c-0.82632,0.00103 -1.53083,-0.69201 -1.53188,-1.53808c-0.00105,-0.84998 0.67809,-1.53081 1.52807,-1.53187z" fill="#8dcea8"></path><path d="M40.11446,121.71793c-0.00108,0.86842 0.71816,1.53926 1.53086,1.54027l10.35231,0.01535c0.81256,0.00101 1.53354,-0.66779 1.53462,-1.53646c0.00105,-0.84837 -0.68243,-1.53359 -1.5308,-1.53465l-10.35231,-0.01535c-0.84837,-0.00105 -1.53363,0.68246 -1.53468,1.53084z" fill="#8dcea8"></path><path d="M108.5362,111.54087c0.00108,0.86842 -0.71816,1.53926 -1.53086,1.54027l-14.8523,0.02157c-0.81257,0.00101 -1.53354,-0.6678 -1.53462,-1.53647c-0.00105,-0.84837 0.68243,-1.53359 1.53081,-1.53465l14.8523,-0.02156c0.84837,-0.00105 1.53362,0.68246 1.53468,1.53084z" fill="#8dcea8"></path><path d="M80.54321,112.70979c0.00108,0.86842 -0.71816,1.53926 -1.53087,1.54027l-2.8523,0.02157c-0.81256,0.00101 -1.53354,-0.6678 -1.53461,-1.53647c-0.00106,-0.84837 0.68243,-1.53359 1.5308,-1.53465l2.8523,-0.02156c0.84837,-0.00105 1.53362,0.68246 1.53468,1.53084z" fill="#8dcea8"></path><path d="M72.87299,112.70979c0.00108,0.86842 -0.71816,1.53926 -1.53086,1.54027l-15.3523,0.02157c-0.81256,0.00101 -1.53354,-0.6678 -1.53462,-1.53647c-0.00105,-0.84837 0.68243,-1.53359 1.5308,-1.53465l15.3523,-0.02156c0.84837,-0.00105 1.53362,0.68246 1.53468,1.53084z" fill="#8dcea8"></path><path d="M113.44769,33.30615v64.80083h-91.91416v-64.80083c0,-1.55248 1.42129,-2.80564 3.1582,-2.80564h85.59776c1.74745,0 3.1582,1.25315 3.1582,2.80564z" fill="#f2f404"></path><path d="M113.44769,94.88562v3.22136h-91.91416v-64.79569c0,-1.55802 1.42129,-2.81078 3.1582,-2.81078h0.18942v57.56342c0,3.7688 3.05308,6.82169 6.82169,6.82169z" fill="#797d7d"></path><path d="M113.44769,33.65871v20.47567c-3.73312,0.87801 -7.38295,-0.54079 -9.49567,-3.21089c-1.72663,2.116 -4.35846,3.47407 -7.29562,3.47407c-2.98817,0 -5.64543,-1.40217 -7.28483,-3.47407c-3.86293,4.73478 -11.00123,4.52317 -14.5802,0c-3.86353,4.73481 -11.00143,4.52322 -14.58045,0c-3.86248,4.73422 -11.00058,4.52398 -14.5802,0c-3.8633,4.73453 -11.00098,4.5238 -14.58045,0c-2.34796,2.87745 -6.11224,4.06202 -9.51674,3.21089v-20.47567c0,-1.74757 1.42129,-3.1582 3.1582,-3.1582h85.59776c1.74745,0 3.1582,1.41063 3.1582,3.1582z" fill="#797d7d"></path><path d="M116.77423,101.88632v4.71622h-98.55671v-4.71622c0,-2.08439 1.69476,-3.77934 3.77915,-3.77934h90.99816c2.08439,0 3.7794,1.69495 3.7794,3.77934z" fill="#ff000e"></path><path d="M116.77423,103.39172v3.21082h-98.55671v-4.71622c0,-1.90545 1.42104,-3.48454 3.25278,-3.73719c-0.03161,0.16841 -0.04215,0.34736 -0.04215,0.52637c0,1.29484 0.52637,2.47389 1.37914,3.33714c0.85278,0.85271 2.03196,1.37908 3.33708,1.37908z" fill="#3000ff"></path><path d="M70.63155,58.32513v29.4779h-40.54075v-29.4779c0,-1.16282 0.94265,-2.10546 2.10547,-2.10546h36.32981c1.16282,0 2.10547,0.94265 2.10547,2.10546z" fill="#84aed8"></path><path d="M70.62988,85.34455v2.45996h-40.53992v-29.47998c0,-1.15978 0.94019,-2.09998 2.09998,-2.09998h0.35999v0.00003c0,16.08251 13.03745,29.11996 29.11996,29.11996z" fill="#3f7fcc"></path><path d="M34.70152,30.50051l-3.6556,12.36961h-14.5789l4.31071,-10.41883c0.48853,-1.18076 1.64045,-1.95078 2.91828,-1.95078h11.0055z" fill="#ff000e"></path><path d="M47.81818,30.50051l-2.19336,12.36961h-14.5789l3.6556,-12.36961z" fill="#36270e"></path><path d="M60.93485,30.50051l-0.73112,12.36961h-14.5789l2.19336,-12.36961z" fill="#ff000e"></path><path d="M74.05151,30.50051l0.73112,12.36961h-14.5789l0.73112,-12.36961z" fill="#36270e"></path><path d="M87.16817,30.50051l2.19336,12.36961h-14.5789l-0.73112,-12.36961z" fill="#ff000e"></path><path d="M100.28484,30.50051l3.65559,12.36961h-14.5789l-2.19336,-12.36961z" fill="#36270e"></path><path d="M114.20862,32.45129l4.31071,10.41883h-14.5789l-3.65559,-12.36961h11.0055c1.27784,0 2.42975,0.77002 2.91828,1.95078z" fill="#ff000e"></path><path d="M31.05027,42.87012v2.13702c0,6.54527 -7.94315,9.68414 -12.44337,5.14788c-1.32645,-1.31591 -2.13708,-3.13712 -2.13708,-5.14788v-2.13702z" fill="#3000ff"></path><path d="M60.21117,42.87012v2.13702c0,6.54527 -7.94315,9.68414 -12.44337,5.14788c-1.32645,-1.31591 -2.13708,-3.13712 -2.13708,-5.14788v-2.13702z" fill="#3000ff"></path><path d="M89.37208,42.87012v2.13702c0,6.54527 -7.94315,9.68414 -12.44337,5.14788c-1.32645,-1.31591 -2.13708,-3.13712 -2.13708,-5.14788v-2.13702z" fill="#3000ff"></path><path d="M118.53298,42.87012v2.13702c0,4.02145 -3.26357,7.28496 -7.29562,7.28496c-4.02228,0 -7.28483,-3.26333 -7.28483,-7.28496v-2.13702z" fill="#3000ff"></path><path d="M45.63072,42.87012v2.13702c0,6.54527 -7.94315,9.68414 -12.44337,5.14788c-1.32645,-1.31591 -2.13708,-3.13712 -2.13708,-5.14788v-2.13702z" fill="#382a4d"></path><path d="M74.79163,42.87012v2.13702c0,6.54527 -7.94315,9.68414 -12.44337,5.14788c-1.32645,-1.31591 -2.13708,-3.13712 -2.13708,-5.14788v-2.13702z" fill="#382a4d"></path><path d="M103.95253,42.87012v2.13702c0,6.54527 -7.94315,9.68414 -12.44337,5.14788c-2.83716,-2.81462 -1.98407,-6.15825 -2.13708,-7.28489z" fill="#382a4d"></path><g><path d="M111.77375,27.06859v3.43192h-88.55575v-3.43192c0,-1.36854 1.1157,-2.48443 2.48431,-2.48443h83.58688c1.36861,0 2.48457,1.11589 2.48457,2.48443z" fill="#f2f404"></path><path d="M111.77375,28.13186v2.36865h-88.55575v-3.43192c0,-1.32645 1.05273,-2.42127 2.36865,-2.48443c0,0.97903 0.39992,1.86329 1.0422,2.50551c0.64202,0.64215 1.52641,1.04219 2.50538,1.04219z" fill="#797d7d"></path></g><g><path d="M106.73499,69.86451v28.21002h-28.71997v-28.21002c0,-3.40997 1.18994,-6.53998 3.17993,-9c2.63,-3.26996 6.65991,-5.35999 11.17993,-5.35999c3.96021,0 7.56006,1.60999 10.15015,4.21002c2.59985,2.58997 4.20996,6.19 4.20996,10.14996z" fill="#36270e"></path><path d="M106.73999,94.89454v3.17999h-28.72998v-28.21002c0,-3.40997 1.18994,-6.53998 3.17993,-9v23.89001c0,5.60004 6.6499,10.14001 12.23999,10.14001h13.31006z" fill="#382a4d"></path></g><g fill="#ff000e"><path d="M72.56358,88.87684v2.22125c0,0.58953 -0.48434,1.07381 -1.08421,1.07381h-42.2463c-0.6,0 -1.08435,-0.48428 -1.08435,-1.07381v-2.22125c0,-0.58952 0.48434,-1.07381 1.08435,-1.07381h42.2463c0.59987,0 1.08422,0.48428 1.08422,1.07381z"></path></g><g fill="#3000ff"><path d="M72.56358,90.64542v0.45267c0,0.58953 -0.48434,1.07381 -1.08421,1.07381h-42.2463c-0.6,0 -1.08435,-0.48428 -1.08435,-1.07381v-2.22125c0,-0.58952 0.48434,-1.07381 1.08435,-1.07381h0.44219v1.76859c0,0.58953 0.48434,1.07381 1.08422,1.07381z"></path></g><g fill="#f2f404" opacity="0.3"><path d="M66.72464,84.50241c-0.61707,0 -1.11638,-0.49932 -1.11638,-1.11639l0.00001,-12.81377c0,-0.61707 0.49932,-1.11639 1.11639,-1.11639c0.61706,0 1.11638,0.49932 1.11638,1.11639l-0.00001,12.81377c0,0.61707 -0.49932,1.11639 -1.11639,1.11639z"></path><path d="M66.72466,67.67336c-0.61707,0 -1.11639,-0.49932 -1.11638,-1.11639v-1.76724c0,-0.61707 0.49932,-1.11638 1.11638,-1.11638c0.61707,0 1.11639,0.49932 1.11639,1.11638l-0.00001,1.76724c0,0.61707 -0.49932,1.11639 -1.11638,1.11639z"></path></g><g fill="#f48c21"><path d="M104.38989,79.54113c0,2.17999 -0.65991,3.94 -1.46997,3.94c-0.81006,0 -1.45996,-1.76001 -1.45996,-3.94c0,-2.16998 0.6499,-3.92999 1.45996,-3.92999c0.81006,0 1.46997,1.76001 1.46997,3.92999z"></path></g><g fill="#f2f404" opacity="0.3"><path d="M101.73486,70.96479c-0.60742,0 -1.09961,-0.49268 -1.09961,-1.1001c0,-2.20703 -0.86328,-4.28223 -2.42871,-5.84229c-0.43066,-0.42871 -0.43164,-1.12549 -0.00293,-1.55566c0.42969,-0.43066 1.12598,-0.43115 1.55566,-0.00293c1.9834,1.97607 3.0752,4.60449 3.0752,7.40088c0,0.60742 -0.49219,1.1001 -1.09961,1.1001z"></path><path d="M95.30322,62.1352c-0.93066,-0.35205 -1.91602,-0.53076 -2.92871,-0.53076c-0.60742,0 -1.09961,-0.49268 -1.09961,-1.1001c0,-0.60742 0.49219,-1.1001 1.09961,-1.1001c1.28027,0 2.52734,0.22656 3.70801,0.67334c0.56836,0.21533 0.85449,0.8501 0.63867,1.41797c-0.21282,0.5646 -0.84327,0.85516 -1.41797,0.63965z"></path></g><g><path d="M63.6641,72.00986c0,7.34545 -5.96112,13.29921 -13.30666,13.29921c-7.34545,0 -13.29921,-5.95376 -13.29921,-13.29921c0,-7.34544 5.95376,-13.29921 13.29921,-13.29921c7.34554,0 13.30666,5.95376 13.30666,13.29921z" fill="#36270e"></path><path d="M60.62389,80.46853c-2.44034,2.95583 -6.13277,4.84352 -10.2674,4.84352c-7.34821,0 -13.29675,-5.95775 -13.29675,-13.30596c0,-4.15296 1.89697,-7.85472 4.88045,-10.29489c-1.90619,2.30207 -3.03879,5.23953 -3.03879,8.45322c0,7.34822 5.94853,13.30597 13.29675,13.30597c3.19537,0 6.13288,-1.13261 8.42574,-3.00186z" fill="#382a4d"></path><path d="M56.82587,78.48459c-3.57291,3.57291 -9.3632,3.57291 -12.93611,0c-3.57291,-3.57285 -3.57291,-9.37148 0,-12.94438c3.57291,-3.57291 9.37158,-3.57291 12.94448,0c3.5728,3.57291 3.56443,9.37153 -0.00838,12.94438z" fill="#382a4d"></path><path d="M57.52287,66.31294c-1.56018,-1.24245 -3.54381,-1.99075 -5.69687,-1.99075c-5.05453,0 -9.14891,4.10149 -9.14891,9.14895c0,2.1531 0.74118,4.12971 1.99062,5.69691c-2.11074,-1.67307 -3.45902,-4.25682 -3.45902,-7.15821c0,-5.05448 4.09446,-9.1489 9.14891,-9.1489c2.90147,0 5.48514,1.34832 7.16527,3.452z" fill="#f48c21"></path><g fill="#f2f404"><path d="M53.45184,72.48232c0.63976,-0.53937 1.04771,-1.34547 1.04771,-2.24582c0,-1.36459 -0.93644,-2.51151 -2.19957,-2.84026v-0.60773c0,-0.38866 -0.31506,-0.70371 -0.70359,-0.70371c-0.38853,0 -0.70359,0.31505 -0.70359,0.70371v0.51009h-1.06305v-0.51009c0,-0.38866 -0.31505,-0.70371 -0.70359,-0.70371c-0.38853,0 -0.70359,0.31505 -0.70359,0.70371v0.51009h-0.39144h-1.10478c-0.38853,0 -0.70358,0.31506 -0.70358,0.70372c0,0.38866 0.31505,0.70372 0.70358,0.70372h0.40119v3.76466c0,0.00398 0.00112,0.00766 0.00119,0.01163c-0.00007,0.00397 -0.00119,0.00765 -0.00119,0.01163v3.76466h-0.40119c-0.38853,0 -0.70358,0.31506 -0.70358,0.70372c0,0.38866 0.31505,0.70372 0.70358,0.70372h1.10478h0.39144v0.42445c0,0.38866 0.31506,0.70372 0.70359,0.70372c0.38853,0 0.70359,-0.31506 0.70359,-0.70372v-0.42445h1.06305v0.42445c0,0.38866 0.31506,0.70372 0.70359,0.70372c0.38853,0 0.70359,-0.31506 0.70359,-0.70372v-0.52209c1.26313,-0.32874 2.19957,-1.47568 2.19957,-2.84026c0,-0.90034 -0.40796,-1.70645 -1.04771,-2.24582zM53.09238,70.2365c0,0.84393 -0.68667,1.53047 -1.53061,1.53047h-2.82703v-3.06094h2.82703c0.84394,0 1.53061,0.68654 1.53061,1.53047zM51.56177,76.25861h-2.82703v-3.06094h2.82703c0.84394,0 1.53061,0.68654 1.53061,1.53047c0,0.84393 -0.68667,1.53047 -1.53061,1.53047z"></path></g></g><g fill="#f2f404" opacity="0.3"><path d="M84.77541,100.9538c0,-0.61707 0.49932,-1.11639 1.11639,-1.11639l12.81377,0.00002c0.61707,0 1.11639,0.49932 1.11638,1.11639c0,0.61706 -0.49931,1.11638 -1.11638,1.11638l-12.81377,-0.00002c-0.61707,0 -1.11639,-0.49932 -1.11639,-1.11638z"></path><path d="M101.60446,100.95382c0,-0.61707 0.49932,-1.11639 1.11639,-1.11638h1.76724c0.61707,0 1.11638,0.49932 1.11638,1.11638c0,0.61707 -0.49932,1.11639 -1.11638,1.11639l-1.76724,-0.00001c-0.61707,0 -1.11639,-0.49932 -1.11639,-1.11638z"></path></g><g fill="#f2f404" opacity="0.3"><path d="M61.64697,72.71252c0,0 0,0 -0.00098,0c-0.38672,-0.00049 -0.69922,-0.31445 -0.69922,-0.70068c0.00195,-1.88037 -0.49414,-3.72607 -1.43457,-5.33838c-0.19531,-0.3335 -0.08203,-0.76221 0.25195,-0.95703c0.33398,-0.1958 0.7627,-0.08105 0.95703,0.25195c1.06543,1.82617 1.62793,3.9165 1.62598,6.04443c-0.00098,0.38672 -0.31348,0.69971 -0.7002,0.69971z"></path><path d="M58.25146,64.94495c-0.12891,-0.14355 -0.2627,-0.28467 -0.40039,-0.42285c-0.27246,-0.27393 -0.27148,-0.71679 0.00195,-0.98974c0.27441,-0.27344 0.71777,-0.27197 0.99023,0.00146c0.15527,0.15576 0.30469,0.31445 0.44922,0.47558c0.25879,0.28809 0.23438,0.73047 -0.05273,0.98877c-0.2887,0.25921 -0.73157,0.23354 -0.98828,-0.05322z"></path></g><g fill="#323b47"><rect x="45.304" y="20.943" width="3.448" height="9.556"></rect><rect x="86.248" y="20.943" width="3.448" height="9.556"></rect></g><g><path d="M97.90271,17.76868c0,4.92826 -3.99815,8.92641 -8.93692,8.92641h-42.93227c-4.9389,0 -8.92634,-3.99815 -8.92634,-8.92641c0,-2.46945 0.99425,-4.69298 2.60849,-6.30722c1.61424,-1.61424 3.84834,-2.61913 6.31785,-2.61913h42.93227c4.93877,0 8.93692,3.99815 8.93692,8.92634z" fill="#ff000e"></path><path d="M96.70996,22.21869c-1.54004,2.67999 -4.42993,4.47998 -7.73999,4.47998h-42.93994c-4.94006,0 -8.92017,-4 -8.92017,-8.92999c0,-2.46997 0.98999,-4.69 2.61011,-6.31c0.55005,-0.53998 1.16992,-1.01996 1.83997,-1.39996c-0.75,1.29999 -1.17004,2.81 -1.17004,4.42999c0,4.92999 3.97998,8.92999 8.92004,8.92999h42.93005c1.62988,0 3.15991,-0.42999 4.46997,-1.20001z" fill="#3000ff"></path><path d="M46.03405,23.48807c-3.15384,0 -5.71992,-2.56556 -5.71992,-5.71939c0,-1.52837 0.59298,-2.96279 1.66931,-4.03965c1.08364,-1.08312 2.52119,-1.67975 4.05061,-1.67975h42.93227c3.15906,0 5.72931,2.56556 5.72931,5.7194c0,3.15384 -2.57025,5.71939 -5.72931,5.71939z" fill="#f2f404"></path></g><g fill="#797d7d"><path d="M70.59028,15.53967c0,0.60999 -0.5,1.10999 -1.11011,1.10999h-20.42993c-0.62,0 -1.12,-0.5 -1.12,-1.10999c0,-0.62 0.5,-1.12 1.12,-1.12h20.42993c0.61011,0 1.11011,0.5 1.11011,1.12z"></path><path d="M87.07964,15.53967c0,0.60999 -0.5,1.10999 -1.11011,1.10999h-10.42993c-0.62,0 -1.12,-0.5 -1.12,-1.10999c0,-0.62 0.5,-1.12 1.12,-1.12h10.42993c0.61011,0 1.11011,0.5 1.11011,1.12z"></path><g><path d="M64.41961,20.00776c0,0.60999 0.5,1.10999 1.11011,1.10999h20.42993c0.62,0 1.12,-0.5 1.12,-1.10999c0,-0.62 -0.5,-1.12 -1.12,-1.12h-20.42993c-0.61011,0 -1.11011,0.5 -1.11011,1.12z"></path><path d="M47.93024,20.00776c0,0.60999 0.5,1.10999 1.11011,1.10999h10.42993c0.62,0 1.12,-0.5 1.12,-1.10999c0,-0.62 -0.5,-1.12 -1.12,-1.12h-10.42993c-0.61011,0 -1.11011,0.5 -1.11011,1.12z"></path></g></g></g></g></g></svg>