<svg version="1.1" xmlns="http://www.w3.org/2000/svg" xmlns:xlink="http://www.w3.org/1999/xlink" width="100%" height="100%" viewBox="0,0,256,256"><g transform=""><g fill-opacity="0" fill="#dddddd" fill-rule="nonzero" stroke="none" stroke-width="1" stroke-linecap="butt" stroke-linejoin="miter" stroke-miterlimit="10" stroke-dasharray="" stroke-dashoffset="0" font-family="none" font-weight="none" font-size="none" text-anchor="none" style="mix-blend-mode: normal"><path d="M0,256v-256h256v256z" id="bgRectangle"></path></g><g fill="none" fill-rule="nonzero" stroke="none" stroke-width="none" stroke-linecap="butt" stroke-linejoin="none" stroke-miterlimit="10" stroke-dasharray="" stroke-dashoffset="0" font-family="none" font-weight="none" font-size="none" text-anchor="none" style="mix-blend-mode: normal"><path transform="scale(3.2,3.2)" d="M78.83203,39.44531l0.39844,0.59375l-0.43359,0.56641c0,0 -16.16016,21.39453 -38.79687,21.39453c-22.63672,0 -38.79687,-21.39453 -38.79687,-21.39453l-0.42969,-0.56641l0.39453,-0.59375c0,0 14.25,-21.44531 38.83203,-21.44531c24.58203,0 38.83203,21.44531 38.83203,21.44531z" id="strokeMainSVG" fill="#88ff7f" stroke="#88ff7f" stroke-width="9" stroke-linejoin="round"></path><g transform="scale(3.2,3.2)" fill="#2700f6" stroke="none" stroke-width="1" stroke-linejoin="miter"><path d="M40,18c-24.58203,0 -38.83203,21.44531 -38.83203,21.44531l-0.39453,0.59375l0.42969,0.56641c0,0 16.16016,21.39453 38.79688,21.39453c22.63672,0 38.79688,-21.39453 38.79688,-21.39453l0.43359,-0.56641l-0.39844,-0.59375c0,0 -14.25,-21.44531 -38.83203,-21.44531zM40,20c22.34375,0 35.51172,18.24609 36.70703,19.96484c-1.32422,1.66797 -16.28906,20.03516 -36.70703,20.03516c-20.41797,0 -35.38281,-18.36719 -36.70703,-20.03516c1.19531,-1.71875 14.36328,-19.96484 36.70703,-19.96484zM40,22c-9.92969,0 -18,8.07031 -18,18c0,9.92969 8.07031,18 18,18c9.92969,0 18,-8.07031 18,-18c0,-9.92969 -8.07031,-18 -18,-18zM40,24c8.84766,0 16,7.15234 16,16c0,8.84766 -7.15234,16 -16,16c-8.84766,0 -16,-7.15234 -16,-16c0,-8.84766 7.15234,-16 16,-16zM40,26c-0.55078,0 -1,0.44922 -1,1c0,0.55078 0.44922,1 1,1c0.55078,0 1,-0.44922 1,-1c0,-0.55078 -0.44922,-1 -1,-1zM35.03125,26.98828c-0.13281,0 -0.26562,0.02344 -0.39062,0.07422c-0.50781,0.21484 -0.75,0.79688 -0.53906,1.30859c0.21094,0.51172 0.79688,0.75391 1.30469,0.53906c0.51172,-0.21094 0.75391,-0.79297 0.54297,-1.30078c-0.15234,-0.375 -0.51562,-0.61719 -0.91797,-0.62109zM44.99609,26.98828c-0.41016,-0.00781 -0.78516,0.23828 -0.94531,0.61719c-0.21094,0.51172 0.03125,1.09375 0.54297,1.30469c0.50781,0.21484 1.09375,-0.02734 1.30469,-0.53906c0.21094,-0.51172 -0.03125,-1.09375 -0.53906,-1.30859c-0.11719,-0.04687 -0.23828,-0.07031 -0.36328,-0.07422zM30.82422,29.80859c-0.27344,-0.00391 -0.53516,0.10156 -0.72656,0.29297c-0.38672,0.39063 -0.38672,1.02344 0,1.41406c0.39063,0.39063 1.02734,0.39063 1.41797,0c0.38672,-0.39062 0.38672,-1.02344 0,-1.41406c-0.1875,-0.18359 -0.43359,-0.28906 -0.69141,-0.29297zM49.20313,29.80859c-0.26953,-0.00391 -0.52734,0.10156 -0.71875,0.29297c-0.39062,0.39063 -0.39062,1.02344 0,1.41406c0.39063,0.39063 1.02344,0.39063 1.41406,0c0.39063,-0.39062 0.39063,-1.02344 0,-1.41406c-0.18359,-0.18359 -0.43359,-0.28906 -0.69531,-0.29297zM52.01563,34.02344c-0.13281,0 -0.26562,0.02344 -0.39062,0.07422c-0.50781,0.21484 -0.75,0.79688 -0.53906,1.30859c0.21094,0.51172 0.79688,0.75391 1.30469,0.54297c0.51172,-0.21484 0.75391,-0.79687 0.54297,-1.30859c-0.15234,-0.37109 -0.51562,-0.61328 -0.91797,-0.61719zM28.01172,34.02734c-0.41406,-0.01172 -0.78906,0.23438 -0.94922,0.61328c-0.21094,0.51172 0.03125,1.09766 0.54297,1.30859c0.51172,0.21094 1.09375,-0.03125 1.30469,-0.54297c0.21484,-0.50781 -0.02734,-1.09375 -0.53906,-1.30469c-0.11328,-0.04687 -0.23437,-0.07422 -0.35937,-0.07422zM40,35c-2.76172,0 -5,2.23828 -5,5c0,2.76172 2.23828,5 5,5c2.76172,0 5,-2.23828 5,-5c0,-0.65625 -0.13281,-1.28125 -0.36328,-1.85547c-0.36328,0.51563 -0.96094,0.85547 -1.63672,0.85547c-1.10547,0 -2,-0.89453 -2,-2c0,-0.67578 0.33984,-1.27344 0.85547,-1.63672c-0.57422,-0.23047 -1.19922,-0.36328 -1.85547,-0.36328zM27,39c-0.55078,0 -1,0.44922 -1,1c0,0.55078 0.44922,1 1,1c0.55078,0 1,-0.44922 1,-1c0,-0.55078 -0.44922,-1 -1,-1zM53,39c-0.55078,0 -1,0.44922 -1,1c0,0.55078 0.44922,1 1,1c0.55078,0 1,-0.44922 1,-1c0,-0.55078 -0.44922,-1 -1,-1zM27.99609,43.97266c-0.13281,0 -0.26562,0.02734 -0.38672,0.07813c-0.51172,0.21094 -0.75391,0.79688 -0.54297,1.30859c0.21094,0.50781 0.79688,0.75 1.30859,0.53906c0.50781,-0.21094 0.75,-0.79687 0.53906,-1.30469c-0.15234,-0.375 -0.51562,-0.61719 -0.91797,-0.62109zM52.03125,43.97266c-0.41016,-0.00781 -0.78516,0.23828 -0.94141,0.62109c-0.21484,0.50781 0.02734,1.09375 0.53906,1.30469c0.51172,0.21094 1.09375,-0.03125 1.30859,-0.53906c0.21094,-0.51172 -0.03125,-1.09766 -0.54297,-1.30859c-0.11328,-0.04687 -0.23828,-0.07422 -0.36328,-0.07812zM30.82422,48.19141c-0.27344,-0.00391 -0.53516,0.10156 -0.72656,0.29297c-0.38672,0.39063 -0.38672,1.02734 0,1.41797c0.39063,0.38672 1.02734,0.38672 1.41797,0c0.38672,-0.39062 0.38672,-1.02734 0,-1.41797c-0.1875,-0.18359 -0.43359,-0.28516 -0.69141,-0.29297zM49.20703,48.19141c-0.26953,-0.00391 -0.53125,0.10156 -0.72266,0.29297c-0.39062,0.39063 -0.39062,1.02734 0,1.41797c0.39063,0.38672 1.02344,0.38672 1.41406,0c0.39063,-0.39062 0.39063,-1.02734 0,-1.41797c-0.18359,-0.18359 -0.42969,-0.28516 -0.69141,-0.29297zM35.04688,51.01172c-0.41406,-0.01172 -0.78906,0.23438 -0.94531,0.61328c-0.21094,0.51172 0.03125,1.09766 0.53906,1.30859c0.51172,0.21094 1.09766,-0.03125 1.30859,-0.54297c0.21094,-0.50781 -0.03125,-1.09375 -0.54297,-1.30469c-0.11328,-0.04687 -0.23437,-0.07422 -0.35937,-0.07422zM44.98438,51.01172c-0.13672,-0.00391 -0.26562,0.02344 -0.39062,0.07422c-0.51172,0.21094 -0.75391,0.79688 -0.54297,1.30469c0.21484,0.51172 0.79688,0.75391 1.30859,0.54297c0.51172,-0.21094 0.75391,-0.79687 0.54297,-1.30859c-0.15625,-0.37109 -0.51953,-0.61328 -0.91797,-0.61328zM40,52c-0.55078,0 -1,0.44922 -1,1c0,0.55078 0.44922,1 1,1c0.55078,0 1,-0.44922 1,-1c0,-0.55078 -0.44922,-1 -1,-1z"></path></g></g></g></svg>