<svg version="1.1" xmlns="http://www.w3.org/2000/svg" xmlns:xlink="http://www.w3.org/1999/xlink" width="100%" height="100%" viewBox="0,0,256,256"><g fill-opacity="0" fill="#dddddd" fill-rule="nonzero" stroke="none" stroke-width="1" stroke-linecap="butt" stroke-linejoin="miter" stroke-miterlimit="10" stroke-dasharray="" stroke-dashoffset="0" font-family="none" font-weight="none" font-size="none" text-anchor="none" style="mix-blend-mode: normal"><path d="M0,256v-256h256v256z" id="bgRectangle"></path></g><g fill="none" fill-rule="nonzero" stroke="none" stroke-width="1" stroke-linecap="butt" stroke-linejoin="miter" stroke-miterlimit="10" stroke-dasharray="" stroke-dashoffset="0" font-family="none" font-weight="none" font-size="none" text-anchor="none" style="mix-blend-mode: normal"><g transform="scale(2.56,2.56)"><path d="M64.269,14.907c-15.238,-6.216 -35.68,0.898 -43.973,15.13c-0.635,1.089 -0.757,2.231 -0.531,3.293c-3.93,9.365 -3.627,20.189 1.761,29.457c7.677,13.207 23.825,19.242 38.41,15.346c14.074,-3.76 23.775,-15.889 25.027,-30.287c1.241,-14.29 -7.574,-27.587 -20.694,-32.939zM71.245,58.532c-7.216,11.243 -23.33,14.123 -34.233,6.598c-12.037,-8.307 -12.994,-25.2 -3.09,-35.492c0.341,-0.354 0.607,-0.723 0.819,-1.099c8.227,-6.383 20.654,-7.952 29.436,-2.54c11.115,6.85 14.071,21.622 7.068,32.533z" fill="#ffe600"></path><path d="M55.126,21.18c-9.349,-1.887 -20.234,0.269 -25.718,8.785c-0.953,1.479 -1.686,3.049 -2.248,4.666c-2.581,4.825 -3.627,10.486 -2.313,16.159c3.268,14.107 16.796,20.803 29.362,18.417c4.542,-0.34 8.98,-1.801 12.287,-4.301c5.537,-4.185 8.24,-10.55 8.326,-17.126c1.142,-11.762 -6.676,-23.972 -19.696,-26.6z" fill="#545454"></path><path d="M52.824,38.135c0.952,3.063 5.78,1.756 4.821,-1.329c-0.813,-2.614 -2.903,-4.733 -5.472,-5.482c0.038,-0.175 0.07,-0.351 0.071,-0.536c0,-0.75 0,-1.5 0,-2.25c0.013,-0.344 -0.059,-0.665 -0.215,-0.963c-0.101,-0.31 -0.273,-0.578 -0.517,-0.804c-0.226,-0.244 -0.495,-0.416 -0.805,-0.517c-0.298,-0.156 -0.619,-0.228 -0.963,-0.215c-0.222,0.03 -0.443,0.06 -0.665,0.089c-0.424,0.119 -0.791,0.333 -1.103,0.643c-0.13,0.169 -0.261,0.337 -0.391,0.506c-0.226,0.39 -0.34,0.811 -0.341,1.262c0,0.75 0,1.5 0,2.25c-0.01,0.259 0.044,0.501 0.131,0.734c-3.137,1.063 -5.852,3.746 -6.175,7.119c-0.399,4.167 3.125,6.835 6.31,8.704c2.013,1.181 5.934,4.014 3.921,6.831c-0.693,0.969 -2.083,1.274 -3.208,1.131c-1.862,-0.236 -3.374,-1.626 -4.561,-2.967c-0.895,-1.011 -2.622,-0.914 -3.536,0c-1.005,1.005 -0.898,2.522 0,3.536c1.67,1.886 3.878,3.508 6.338,4.152c-0.036,0.316 -0.034,0.633 0.051,0.949c0.094,0.375 0.188,0.75 0.282,1.125c0.077,0.325 0.227,0.609 0.447,0.85c0.176,0.272 0.41,0.487 0.701,0.644c0.287,0.183 0.597,0.282 0.93,0.297c0.332,0.074 0.665,0.059 0.997,-0.045c0.199,-0.084 0.398,-0.168 0.597,-0.252c0.376,-0.222 0.675,-0.521 0.897,-0.897c0.084,-0.199 0.168,-0.398 0.252,-0.597c0.119,-0.443 0.119,-0.886 0,-1.329c-0.073,-0.291 -0.146,-0.581 -0.219,-0.872c2.985,-0.946 5.156,-3.392 5.444,-6.737c0.33,-3.842 -2.219,-7.118 -5.233,-9.164c-1.618,-1.098 -6.593,-2.981 -5.175,-5.717c1.287,-2.479 5.413,-3.288 6.389,-0.149z" fill="#ffe600"></path><path d="M51.6,77.447c0,0 0.647,-0.024 1.874,-0.162c1.221,-0.154 3.043,-0.384 5.3,-1.071c2.264,-0.635 5.013,-1.632 7.914,-3.37c2.892,-1.723 6.008,-4.109 8.733,-7.429c2.718,-3.299 5.184,-7.434 6.618,-12.317c0.768,-2.424 1.243,-5.021 1.457,-7.734c0.254,-2.721 0.046,-5.557 -0.476,-8.395c-1.015,-5.7 -3.809,-11.341 -7.949,-16.087c-4.169,-4.738 -9.814,-8.457 -16.291,-10.375c-6.514,-1.807 -13.255,-1.508 -19.281,0.12c-6.046,1.623 -11.493,4.524 -15.843,8.293c-2.185,1.843 -4.059,4.098 -5.52,6.403c-1.488,2.321 -2.444,4.814 -3.234,7.23c-1.405,4.898 -1.74,9.666 -1.319,13.918c0.409,4.259 1.471,8.014 2.836,11.102c0.653,1.558 1.466,2.914 2.205,4.147c0.779,1.213 1.578,2.258 2.332,3.165c1.52,1.806 2.874,3.039 3.815,3.836c0.944,0.796 1.469,1.174 1.469,1.174c0,0 -0.492,-0.422 -1.37,-1.282c-0.874,-0.861 -2.124,-2.182 -3.494,-4.056c-0.679,-0.941 -1.392,-2.015 -2.074,-3.245c-0.642,-1.25 -1.343,-2.602 -1.884,-4.147c-1.137,-3.057 -1.95,-6.724 -2.134,-10.81c-0.198,-4.079 0.347,-8.588 1.837,-13.089c0.828,-2.213 1.793,-4.476 3.217,-6.526c1.421,-2.055 3.078,-3.95 5.17,-5.62c4.105,-3.356 9.213,-5.927 14.81,-7.335c5.582,-1.419 11.724,-1.61 17.536,0.003c5.761,1.708 10.951,5.033 14.787,9.273c3.821,4.252 6.488,9.314 7.559,14.483c0.549,2.574 0.83,5.16 0.68,7.666c-0.109,2.509 -0.458,4.964 -1.085,7.254c-1.153,4.624 -3.289,8.622 -5.71,11.891c-2.426,3.287 -5.278,5.742 -7.973,7.577c-2.703,1.85 -5.319,2.999 -7.5,3.775c-2.173,0.829 -3.958,1.189 -5.16,1.434c-1.209,0.229 -1.852,0.306 -1.852,0.306z" fill="#000000"></path><path d="M78.356,61.356c-3.421,-1.421 -7.259,-1.775 -10.527,-0.609c-9.453,3.375 -12.945,14.437 -7.87,22.884c5.809,9.668 20.663,8.939 26.385,-0.393c5.115,-8.342 0.837,-19.471 -7.988,-21.882z" fill="#4b7702"></path><path d="M81.825,75.555c0.004,-0.049 0.015,-0.096 0.015,-0.145c0,-1.097 -0.916,-1.984 -2,-2c-1.315,-0.019 -2.629,-0.018 -3.944,-0.014c-0.042,-1.374 -0.077,-2.748 -0.146,-4.121c-0.054,-1.079 -0.88,-2 -2,-2c-0.383,0 -0.748,0.121 -1.061,0.321c-0.049,-0.004 -0.096,-0.015 -0.145,-0.015c-1.097,0 -1.984,0.916 -2,2c-0.019,1.296 -0.017,2.593 -0.014,3.889c-0.227,0.006 -0.453,0.006 -0.68,0.012c-0.315,0.009 -0.613,0.096 -0.882,0.233c-0.107,0.003 -0.214,-0.002 -0.321,0.002c-0.943,0.039 -2.14,-0.034 -2.98,0.44c-1,0.563 -1.456,1.705 -1.143,2.804c0.33,1.156 1.434,1.753 2.549,1.89c0.482,0.06 0.969,0.047 1.456,0.016c0.692,0.003 1.383,-0.009 2.075,-0.012c0.006,0.238 0.006,0.476 0.013,0.714c0.009,0.315 0.096,0.613 0.233,0.882c0.003,0.107 -0.002,0.214 0.002,0.321c0.039,0.943 -0.034,2.14 0.44,2.98c0.563,1 1.705,1.456 2.805,1.143c1.156,-0.33 1.753,-1.434 1.89,-2.549c0.06,-0.482 0.047,-0.969 0.016,-1.456c0.004,-0.71 -0.009,-1.419 -0.012,-2.129c1.386,-0.042 2.771,-0.078 4.156,-0.147c1.079,-0.054 2,-0.88 2,-2c-0.001,-0.381 -0.122,-0.746 -0.322,-1.059z" fill="#ffffff"></path><path d="M60.09,70.948c0,0 -0.101,0.285 -0.287,0.811c-0.169,0.536 -0.414,1.33 -0.58,2.377c-0.345,2.062 -0.444,5.231 0.963,8.649c1.335,3.407 4.377,6.922 8.927,8.228c4.457,1.342 10.151,0.477 14.229,-2.968c0.59,-0.414 1.015,-0.993 1.519,-1.483c0.473,-0.52 0.832,-1.125 1.258,-1.671c0.683,-1.205 1.313,-2.437 1.62,-3.75c0.737,-2.593 0.618,-5.292 -0.07,-7.669c-0.674,-2.387 -1.911,-4.476 -3.459,-6.011c-1.535,-1.555 -3.33,-2.574 -5.052,-3.16l-0.073,-0.025l-0.002,-0.001c-2.966,-1.399 -5.675,-1.699 -7.489,-1.611c-0.913,0.04 -1.616,0.163 -2.088,0.261c-0.464,0.113 -0.714,0.173 -0.714,0.173c0,0 0.24,-0.095 0.686,-0.272c0.458,-0.161 1.148,-0.38 2.076,-0.536c1.839,-0.318 4.696,-0.342 8.001,0.848l-0.074,-0.025c1.943,0.452 4.067,1.408 5.949,3.039c1.894,1.609 3.484,3.903 4.421,6.625c0.95,2.709 1.24,5.886 0.457,9.017c-0.329,1.58 -1.035,3.085 -1.845,4.541c-0.492,0.675 -0.931,1.406 -1.495,2.041c-0.595,0.605 -1.125,1.293 -1.825,1.799c-2.443,2.062 -5.392,3.307 -8.319,3.782c-2.933,0.48 -5.867,0.201 -8.439,-0.705c-2.579,-0.898 -4.768,-2.447 -6.338,-4.264l-0.591,-0.67c-0.18,-0.233 -0.328,-0.487 -0.49,-0.726c-0.305,-0.49 -0.648,-0.946 -0.895,-1.436c-0.527,-0.964 -0.897,-1.955 -1.202,-2.904c-1.183,-3.856 -0.679,-7.16 -0.074,-9.214c0.301,-1.046 0.652,-1.812 0.894,-2.324c0.261,-0.497 0.401,-0.766 0.401,-0.766z" fill="#000000"></path></g></g></svg>