<svg version="1.1" xmlns="http://www.w3.org/2000/svg" xmlns:xlink="http://www.w3.org/1999/xlink" width="100%" height="100%" viewBox="0,0,256,256"><g fill-opacity="0" fill="#dddddd" fill-rule="nonzero" stroke="none" stroke-width="1" stroke-linecap="butt" stroke-linejoin="miter" stroke-miterlimit="10" stroke-dasharray="" stroke-dashoffset="0" font-family="none" font-weight="none" font-size="none" text-anchor="none" style="mix-blend-mode: normal"><path d="M0,256v-256h256v256z" id="bgRectangle"></path></g><g fill="none" fill-rule="nonzero" stroke="none" stroke-width="1" stroke-linecap="butt" stroke-linejoin="miter" stroke-miterlimit="10" stroke-dasharray="" stroke-dashoffset="0" font-family="none" font-weight="none" font-size="none" text-anchor="none" style="mix-blend-mode: normal"><g transform="scale(4,4)"><g><path d="M27.71,2.5h-19.71c-3.03528,0.0055 -5.4945,2.46472 -5.5,5.5v19.71c0,0.82843 0.67157,1.5 1.5,1.5h19.71c3.03757,0 5.5,-2.46243 5.5,-5.5v-19.71c0,-0.82843 -0.67157,-1.5 -1.5,-1.5z" fill="#30044b"></path><path d="M23.71,34.79h-19.71c-0.82843,0 -1.5,0.67157 -1.5,1.5v19.71c0.0055,3.03528 2.46472,5.4945 5.5,5.5h19.71c0.82843,0 1.5,-0.67157 1.5,-1.5v-19.71c0,-3.03757 -2.46243,-5.5 -5.5,-5.5z" fill="#30044b"></path><path d="M60,34.79h-19.71c-3.03757,0 -5.5,2.46243 -5.5,5.5v19.71c0,0.82843 0.67157,1.5 1.5,1.5h19.71c3.03528,-0.0055 5.4945,-2.46472 5.5,-5.5v-19.71c0,-0.82843 -0.67157,-1.5 -1.5,-1.5z" fill="#30044b"></path><path d="M56,10.36h-2.36v-2.36c0,-3.03757 -2.46243,-5.5 -5.5,-5.5c-3.03757,0 -5.5,2.46243 -5.5,5.5v2.36h-2.35c-3.03757,0 -5.5,2.46243 -5.5,5.5c0,3.03757 2.46243,5.5 5.5,5.5h2.35v2.35c0,3.03757 2.46243,5.5 5.5,5.5c3.03757,0 5.5,-2.46243 5.5,-5.5v-2.35h2.36c3.03757,0 5.5,-2.46243 5.5,-5.5c0,-3.03757 -2.46243,-5.5 -5.5,-5.5z" fill="#780007"></path><path d="M27.71,2.5h-19.71c-3.03528,0.0055 -5.4945,2.46472 -5.5,5.5v19.71c0,0.82843 0.67157,1.5 1.5,1.5h19.71c3.03757,0 5.5,-2.46243 5.5,-5.5v-19.71c0,-0.82843 -0.67157,-1.5 -1.5,-1.5zM26.21,23.71c0,1.38071 -1.11929,2.5 -2.5,2.5h-18.21v-18.21c0,-1.38071 1.11929,-2.5 2.5,-2.5h18.21z" fill="#112552"></path><path d="M23.71,34.79h-19.71c-0.82843,0 -1.5,0.67157 -1.5,1.5v19.71c0.0055,3.03528 2.46472,5.4945 5.5,5.5h19.71c0.82843,0 1.5,-0.67157 1.5,-1.5v-19.71c0,-3.03757 -2.46243,-5.5 -5.5,-5.5zM26.21,58.5h-18.21c-1.38071,0 -2.5,-1.11929 -2.5,-2.5v-18.21h18.21c1.38071,0 2.5,1.11929 2.5,2.5z" fill="#112552"></path><path d="M60,34.79h-19.71c-3.03757,0 -5.5,2.46243 -5.5,5.5v19.71c0,0.82843 0.67157,1.5 1.5,1.5h19.71c3.03528,-0.0055 5.4945,-2.46472 5.5,-5.5v-19.71c0,-0.82843 -0.67157,-1.5 -1.5,-1.5zM58.5,56c0,1.38071 -1.11929,2.5 -2.5,2.5h-18.21v-18.21c0,-1.38071 1.11929,-2.5 2.5,-2.5h18.21z" fill="#112552"></path><path d="M40.29,21.36h2.35v2.35c0,3.03757 2.46243,5.5 5.5,5.5c3.03757,0 5.5,-2.46243 5.5,-5.5v-2.35h2.36c3.03757,0 5.5,-2.46243 5.5,-5.5c0,-3.03757 -2.46243,-5.5 -5.5,-5.5h-2.36v-2.36c0,-3.03757 -2.46243,-5.5 -5.5,-5.5c-3.03757,0 -5.5,2.46243 -5.5,5.5v2.36h-2.35c-3.03757,0 -5.5,2.46243 -5.5,5.5c0,3.03757 2.46243,5.5 5.5,5.5zM40.29,13.36h3.85c0.82843,0 1.5,-0.67157 1.5,-1.5v-3.86c0,-1.38071 1.11929,-2.5 2.5,-2.5c1.38071,0 2.5,1.11929 2.5,2.5v3.86c0,0.82843 0.67157,1.5 1.5,1.5h3.86c1.38071,0 2.5,1.11929 2.5,2.5c0,1.38071 -1.11929,2.5 -2.5,2.5h-3.86c-0.82843,0 -1.5,0.67157 -1.5,1.5v3.85c0,1.38071 -1.11929,2.5 -2.5,2.5c-1.38071,0 -2.5,-1.11929 -2.5,-2.5v-3.85c0,-0.82843 -0.67157,-1.5 -1.5,-1.5h-3.85c-1.38071,0 -2.5,-1.11929 -2.5,-2.5c0,-1.38071 1.11929,-2.5 2.5,-2.5z" fill="#112552"></path></g></g></g></svg>