<svg version="1.1" xmlns="http://www.w3.org/2000/svg" xmlns:xlink="http://www.w3.org/1999/xlink" width="100%" height="100%" viewBox="0,0,256,256"><g fill-opacity="0" fill="#dddddd" fill-rule="nonzero" stroke="none" stroke-width="1" stroke-linecap="butt" stroke-linejoin="miter" stroke-miterlimit="10" stroke-dasharray="" stroke-dashoffset="0" font-family="none" font-weight="none" font-size="none" text-anchor="none" style="mix-blend-mode: normal"><path d="M0,256v-256h256v256z" id="bgRectangle"></path></g><g fill="none" fill-rule="nonzero" stroke="none" stroke-width="1" stroke-linecap="butt" stroke-linejoin="miter" stroke-miterlimit="10" stroke-dasharray="" stroke-dashoffset="0" font-family="none" font-weight="none" font-size="none" text-anchor="none" style="mix-blend-mode: normal"><g transform="scale(2.56,2.56)"><path d="M45.025,75.36h-24.25c-2.567,0 -4.667,-2.1 -4.667,-4.667v-28.477c0,-2.567 2.1,-4.667 4.667,-4.667l51.197,0.362" fill="#002178"></path><path d="M36.892,54.339l-19.788,-14.029M71.972,40.31l-20.47,13.971M16.736,71.774l26.141,-18.35c0.618,-0.434 1.474,-0.448 2.109,-0.036l28.329,18.386" fill="none"></path><path d="M64.765,43.087v-10.486c-5.291,-4.687 -7.052,-6.602 -12.344,-11.289l-22.875,-0.031c-3.227,0 -5.772,1.608 -5.772,4.466v16.527" fill="#002178"></path><path d="M64.39,33.482h-7.832c-3.381,0 -6.147,-2.414 -6.147,-5.365v-6.836h2.323z" fill="#ceccbe"></path><path d="M59.799,70.44v4.045c0,1.112 5.371,2.013 11.996,2.013c6.625,0 11.996,-0.901 11.996,-2.013v-4.045z" fill="#c2a901"></path><path d="M71.795,68.436c-6.62521,0 -11.996,0.90125 -11.996,2.013c0,1.11175 5.37079,2.013 11.996,2.013c6.62521,0 11.996,-0.90125 11.996,-2.013c0,-1.11175 -5.37079,-2.013 -11.996,-2.013z" fill="#ffe700"></path><path d="M59.799,63.168v4.045c0,1.112 5.371,2.013 11.996,2.013c6.625,0 11.996,-0.901 11.996,-2.013v-4.045z" fill="#c2a901"></path><path d="M71.795,61.164c-6.62521,0 -11.996,0.90125 -11.996,2.013c0,1.11175 5.37079,2.013 11.996,2.013c6.62521,0 11.996,-0.90125 11.996,-2.013c0,-1.11175 -5.37079,-2.013 -11.996,-2.013z" fill="#ffe700"></path><path d="M59.799,56.482v4.045c0,1.112 5.371,2.013 11.996,2.013c6.625,0 11.996,-0.901 11.996,-2.013v-4.045z" fill="#c2a901"></path><path d="M71.795,54.478c-6.62521,0 -11.996,0.90125 -11.996,2.013c0,1.11175 5.37079,2.013 11.996,2.013c6.62521,0 11.996,-0.90125 11.996,-2.013c0,-1.11175 -5.37079,-2.013 -11.996,-2.013z" fill="#ffe700"></path><path d="M59.799,49.797v4.045c0,1.112 5.371,2.013 11.996,2.013c6.625,0 11.996,-0.901 11.996,-2.013v-4.045z" fill="#c2a901"></path><path d="M71.795,47.793c-6.62521,0 -11.996,0.90125 -11.996,2.013c0,1.11175 5.37079,2.013 11.996,2.013c6.62521,0 11.996,-0.90125 11.996,-2.013c0,-1.11175 -5.37079,-2.013 -11.996,-2.013z" fill="#ffe700"></path><path d="M48.472,72.467v4.045c0,1.112 5.371,2.013 11.996,2.013c6.625,0 11.996,-0.901 11.996,-2.013v-4.045z" fill="#c2a901"></path><path d="M60.468,70.463c-6.62521,0 -11.996,0.90125 -11.996,2.013c0,1.11175 5.37079,2.013 11.996,2.013c6.62521,0 11.996,-0.90125 11.996,-2.013c0,-1.11175 -5.37079,-2.013 -11.996,-2.013z" fill="#ffe700"></path><path d="M48.472,65.779v4.045c0,1.112 5.371,2.013 11.996,2.013c6.625,0 11.996,-0.901 11.996,-2.013v-4.045z" fill="#c2a901"></path><path d="M60.468,63.775c-6.62521,0 -11.996,0.90125 -11.996,2.013c0,1.11175 5.37079,2.013 11.996,2.013c6.62521,0 11.996,-0.90125 11.996,-2.013c0,-1.11175 -5.37079,-2.013 -11.996,-2.013z" fill="#ffe700"></path><path d="M48.472,59.404v4.045c0,1.112 5.371,2.013 11.996,2.013c6.625,0 11.996,-0.901 11.996,-2.013v-4.045z" fill="#c2a901"></path><path d="M60.468,57.4c-6.62521,0 -11.996,0.90125 -11.996,2.013c0,1.11175 5.37079,2.013 11.996,2.013c6.62521,0 11.996,-0.90125 11.996,-2.013c0,-1.11175 -5.37079,-2.013 -11.996,-2.013z" fill="#ffe700"></path><path d="M59.799,43.111v4.045c0,1.112 5.371,2.013 11.996,2.013c6.625,0 11.996,-0.901 11.996,-2.013v-4.045z" fill="#c2a901"></path><path d="M71.795,41.107c-6.62521,0 -11.996,0.90125 -11.996,2.013c0,1.11175 5.37079,2.013 11.996,2.013c6.62521,0 11.996,-0.90125 11.996,-2.013c0,-1.11175 -5.37079,-2.013 -11.996,-2.013z" fill="#ffe700"></path><path d="M59.799,36.425v4.045c0,1.112 5.371,2.013 11.996,2.013c6.625,0 11.996,-0.901 11.996,-2.013v-4.045z" fill="#c2a901"></path><path d="M71.795,34.421c-6.62521,0 -11.996,0.90125 -11.996,2.013c0,1.11175 5.37079,2.013 11.996,2.013c6.62521,0 11.996,-0.90125 11.996,-2.013c0,-1.11175 -5.37079,-2.013 -11.996,-2.013z" fill="#ffe700"></path><path d="M43.524,35.841c-0.245,-0.245 -0.531,-0.439 -0.858,-0.582c-0.327,-0.142 -0.679,-0.214 -1.056,-0.214c-0.378,0 -0.73,0.072 -1.057,0.214c-0.327,0.143 -0.613,0.337 -0.858,0.582c-0.245,0.245 -0.439,0.531 -0.582,0.857c-0.143,0.327 -0.214,0.679 -0.214,1.057c0,0.377 0.071,0.73 0.214,1.056c0.143,0.327 0.337,0.613 0.582,0.858c0.245,0.244 0.531,0.439 0.858,0.582c0.327,0.142 0.679,0.214 1.057,0.214c0.377,0 0.73,-0.072 1.056,-0.214c0.327,-0.143 0.613,-0.338 0.858,-0.582c0.245,-0.245 0.439,-0.531 0.582,-0.858c0.143,-0.326 0.215,-0.679 0.215,-1.056c0,-0.378 -0.072,-0.73 -0.215,-1.057c-0.143,-0.326 -0.337,-0.612 -0.582,-0.857zM42.934,38.323c-0.077,0.174 -0.179,0.323 -0.307,0.452c-0.128,0.127 -0.281,0.229 -0.459,0.306c-0.179,0.077 -0.365,0.115 -0.559,0.115c-0.205,0 -0.393,-0.038 -0.567,-0.115c-0.174,-0.076 -0.324,-0.178 -0.452,-0.306c-0.128,-0.128 -0.23,-0.278 -0.306,-0.452c-0.077,-0.174 -0.115,-0.363 -0.115,-0.567c0,-0.194 0.038,-0.38 0.115,-0.559c0.076,-0.178 0.178,-0.331 0.306,-0.459c0.128,-0.127 0.278,-0.23 0.452,-0.306c0.174,-0.076 0.362,-0.115 0.567,-0.115c0.194,0 0.38,0.039 0.559,0.115c0.179,0.076 0.332,0.179 0.459,0.306c0.128,0.128 0.23,0.281 0.307,0.459c0.076,0.179 0.115,0.365 0.115,0.559c0,0.203 -0.038,0.393 -0.115,0.567zM36.019,34.463c0.327,-0.143 0.613,-0.337 0.858,-0.582c0.245,-0.245 0.439,-0.531 0.582,-0.858c0.143,-0.326 0.215,-0.678 0.215,-1.057c0,-0.377 -0.072,-0.73 -0.215,-1.056c-0.143,-0.327 -0.337,-0.613 -0.582,-0.858c-0.245,-0.244 -0.531,-0.438 -0.858,-0.582c-0.327,-0.142 -0.679,-0.214 -1.056,-0.214c-0.378,0 -0.731,0.072 -1.057,0.214c-0.327,0.143 -0.613,0.338 -0.858,0.582c-0.245,0.245 -0.439,0.531 -0.582,0.858c-0.143,0.326 -0.215,0.679 -0.215,1.056c0,0.378 0.072,0.73 0.215,1.057c0.143,0.327 0.337,0.613 0.582,0.858c0.245,0.245 0.531,0.439 0.858,0.582c0.326,0.142 0.679,0.214 1.057,0.214c0.376,0 0.729,-0.072 1.056,-0.214zM33.943,32.985c-0.128,-0.127 -0.23,-0.278 -0.307,-0.452c-0.076,-0.173 -0.115,-0.362 -0.115,-0.567c0,-0.193 0.038,-0.38 0.115,-0.559c0.077,-0.178 0.179,-0.331 0.307,-0.459c0.127,-0.127 0.278,-0.229 0.452,-0.307c0.174,-0.076 0.362,-0.114 0.567,-0.114c0.194,0 0.38,0.038 0.559,0.114c0.178,0.077 0.332,0.179 0.459,0.307c0.128,0.128 0.23,0.281 0.307,0.459c0.076,0.179 0.115,0.366 0.115,0.559c0,0.205 -0.038,0.393 -0.115,0.567c-0.077,0.174 -0.179,0.325 -0.307,0.452c-0.128,0.127 -0.281,0.229 -0.459,0.307c-0.179,0.076 -0.365,0.114 -0.559,0.114c-0.205,0 -0.393,-0.038 -0.567,-0.114c-0.173,-0.078 -0.324,-0.18 -0.452,-0.307zM41.104,28.948l-6.647,11.32l1.041,0.505l6.632,-11.319z" fill="#ffffff"></path><path d="M83.984,40.511v-4.045c0,-2.43 -11.221,-2.5 -12.5,-2.5c-0.623,0 -3.605,0.018 -6.5,0.315v-0.793c0,-0.009 -0.005,-0.017 -0.005,-0.026c0,-0.009 0.005,-0.016 0.005,-0.025c0,-0.206 -0.125,-0.383 -0.303,-0.459l-11.894,-11.895c-0.094,-0.094 -0.221,-0.146 -0.354,-0.146h-23.08c-3.512,0 -6.369,2.556 -6.369,5.697v10.303h-2.333c-3.125,0 -5.667,2.542 -5.667,5.667v28.666c0,3.125 2.542,5.667 5.667,5.667h24.333c0.552,0 1,-0.447 1,-1c0,-0.553 -0.448,-1 -1,-1h-24.333c-1.574,0 -2.908,-1.002 -3.427,-2.397l25.99,-18.244c0.45,-0.314 1.087,-0.326 1.55,-0.026l5.569,3.614c-1.388,0.364 -2.349,0.871 -2.349,1.581v4.045c0,0.506 0.486,0.909 1.259,1.231c-0.774,0.321 -1.259,0.721 -1.259,1.224v4.045c0,0.507 0.488,0.91 1.264,1.233c-0.775,0.32 -1.264,0.719 -1.264,1.222v4.045c0,2.443 11.221,2.514 12.5,2.514c1.186,0 10.905,-0.062 12.322,-2.016c3.302,-0.069 11.178,-0.449 11.178,-2.498v-4.045c0,-0.585 -0.654,-1.033 -1.66,-1.376c1.002,-0.345 1.66,-0.792 1.66,-1.379v-4.045c0,-0.068 -0.015,-0.131 -0.04,-0.19c-0.127,-0.492 -0.734,-0.88 -1.628,-1.184c1.006,-0.345 1.668,-0.792 1.668,-1.381v-4.045c0,-0.584 -0.656,-1.029 -1.659,-1.372c1.005,-0.345 1.659,-0.795 1.659,-1.383v-4.045c0,-0.584 -0.654,-1.03 -1.658,-1.372c1.004,-0.345 1.658,-0.795 1.658,-1.383v-4.045c0,-0.584 -0.657,-1.029 -1.66,-1.372c1.006,-0.344 1.66,-0.794 1.66,-1.382zM82.953,36.466c-0.519,0.539 -4.301,1.5 -11.468,1.5c-7.167,0 -10.949,-0.961 -11.468,-1.5c0.519,-0.539 4.301,-1.5 11.468,-1.5c7.167,0 10.948,0.961 11.468,1.5zM63.226,32.937h-6.595c-3.114,0 -5.647,-2.183 -5.647,-4.865v-6.135h1.242zM45.308,53.431c-0.809,-0.523 -1.881,-0.504 -2.668,0.047l-25.635,17.995c-0.004,-0.068 -0.021,-0.133 -0.021,-0.203v-28.666c0,-0.417 0.085,-0.812 0.214,-1.187l19.456,13.793c0.088,0.062 0.188,0.092 0.289,0.092c0.157,0 0.311,-0.073 0.408,-0.211c0.16,-0.226 0.107,-0.537 -0.119,-0.697l-19.584,-13.884c0.663,-0.949 1.76,-1.573 3.002,-1.573h2.333v4.5c0,0.276 0.224,0.5 0.5,0.5c0.276,0 0.5,-0.224 0.5,-0.5v-16.803c0,-2.59 2.409,-4.697 5.369,-4.697h20.631v6.135c0,3.234 2.982,5.865 6.647,5.865h7.353v0.46c-2.662,0.344 -5,0.96 -5,2.069v4.045c0,0.588 0.654,1.038 1.66,1.383c-0.895,0.306 -1.502,0.696 -1.623,1.191c-0.023,0.056 -0.037,0.116 -0.037,0.18v4.045c0,0.438 0.365,0.799 0.964,1.097l-8.678,5.922c-0.228,0.156 -0.287,0.467 -0.131,0.695c0.097,0.142 0.254,0.218 0.414,0.218c0.097,0 0.195,-0.028 0.281,-0.087l7.15,-4.88v3.834c0,0.588 0.653,1.037 1.657,1.382c-1.004,0.343 -1.657,0.789 -1.657,1.373c0,0.041 0.01,0.08 0.017,0.119c-1.823,0.042 -4.861,0.177 -7.288,0.603zM60.484,57.966c7.167,0 10.949,0.961 11.468,1.5c-0.519,0.539 -4.301,1.5 -11.468,1.5c-7.167,0 -10.949,-0.961 -11.468,-1.5c0.519,-0.539 4.301,-1.5 11.468,-1.5zM48.984,63.511v-2.935c2.776,1.342 10.455,1.39 11.5,1.39c1.046,0 8.73,-0.048 11.503,-1.392l0.008,2.883c-0.293,0.529 -4.082,1.567 -11.511,1.567c-7.429,0 -11.218,-1.038 -11.5,-1.513zM50.985,65.257c3.42,0.736 8.65,0.768 9.499,0.768c0.849,0 6.076,-0.032 9.497,-0.767c1.115,0.247 1.777,0.507 1.972,0.709c-0.519,0.539 -4.301,1.5 -11.468,1.5c-7.167,0 -10.949,-0.961 -11.468,-1.5c0.193,-0.203 0.853,-0.463 1.968,-0.71zM48.984,70.011v-2.935c2.776,1.342 10.455,1.39 11.5,1.39c1.046,0 8.73,-0.048 11.503,-1.392l0.008,2.883c-0.293,0.529 -4.082,1.567 -11.511,1.567c-7.429,0 -11.218,-1.038 -11.5,-1.513zM50.986,71.757c3.42,0.736 8.649,0.768 9.498,0.768c0.849,0 6.075,-0.032 9.495,-0.767c1.115,0.247 1.779,0.507 1.973,0.708c-0.519,0.539 -4.301,1.5 -11.468,1.5c-7.167,0 -10.949,-0.961 -11.468,-1.5c0.194,-0.202 0.856,-0.462 1.97,-0.709zM60.484,78.024c-7.429,0 -11.218,-1.038 -11.5,-1.514v-2.935c2.776,1.342 10.455,1.39 11.5,1.39c1.046,0 8.73,-0.048 11.503,-1.392l0.008,2.883c-0.293,0.53 -4.082,1.568 -11.511,1.568zM72.984,76.006v-3.06c2.649,-0.062 7.835,-0.321 10.003,-1.38l0.008,2.891c-0.272,0.492 -3.58,1.42 -10.011,1.549zM82.953,70.466c-0.486,0.505 -3.851,1.376 -10.163,1.484c-0.208,-0.271 -0.578,-0.506 -1.065,-0.708c0.672,-0.28 1.125,-0.621 1.232,-1.038c1.812,-0.042 4.831,-0.177 7.262,-0.602c1.587,0.29 2.498,0.619 2.734,0.864zM72.984,69.204v-3.059c2.648,-0.061 7.835,-0.321 10.003,-1.38l0.008,2.892c-0.272,0.492 -3.582,1.419 -10.011,1.547zM82.953,63.666c-0.494,0.513 -3.961,1.403 -10.47,1.489c-0.201,-0.15 -0.457,-0.287 -0.758,-0.412c0.774,-0.323 1.26,-0.726 1.26,-1.232v-0.107c1.813,-0.042 4.814,-0.177 7.231,-0.6c1.583,0.289 2.502,0.618 2.737,0.862zM72.984,62.405v-2.939c0,-0.041 -0.011,-0.08 -0.018,-0.12c2.641,-0.061 7.844,-0.317 10.021,-1.378l0.008,2.889c-0.272,0.492 -3.581,1.419 -10.011,1.548zM82.953,56.866c-0.506,0.526 -4.128,1.451 -10.958,1.496c-2.766,-1.348 -10.464,-1.396 -11.511,-1.396c-0.077,0 -0.192,0 -0.336,0.001c-0.055,-0.035 -0.101,-0.069 -0.132,-0.101c0.235,-0.244 1.15,-0.573 2.731,-0.861c3.387,0.592 7.949,0.62 8.737,0.62c0.788,0 5.348,-0.028 8.734,-0.619c1.582,0.287 2.5,0.616 2.735,0.86zM71.484,55.624c-7.429,0 -11.218,-1.038 -11.5,-1.514v-2.935c2.776,1.342 10.455,1.39 11.5,1.39c1.046,0 8.73,-0.048 11.503,-1.392l0.008,2.883c-0.293,0.53 -4.082,1.568 -11.511,1.568zM82.953,50.066c-0.519,0.539 -4.301,1.5 -11.468,1.5c-7.167,0 -10.949,-0.961 -11.468,-1.5c0.235,-0.244 1.152,-0.573 2.734,-0.861c3.386,0.592 7.946,0.619 8.734,0.619c0.788,0 5.35,-0.028 8.737,-0.62c1.58,0.289 2.496,0.618 2.731,0.862zM71.484,48.824c-7.429,0 -11.218,-1.038 -11.5,-1.514v-2.935c2.776,1.342 10.455,1.39 11.5,1.39c1.046,0 8.73,-0.048 11.503,-1.392l0.008,2.883c-0.293,0.53 -4.082,1.568 -11.511,1.568zM82.953,43.266c-0.519,0.539 -4.301,1.5 -11.468,1.5c-7.167,0 -10.949,-0.961 -11.468,-1.5c0.235,-0.244 1.151,-0.573 2.733,-0.861c3.386,0.592 7.947,0.62 8.735,0.62c0.788,0 5.343,-0.028 8.728,-0.618c1.582,0.287 2.505,0.615 2.74,0.859zM71.484,42.024c-7.429,0 -11.218,-1.038 -11.5,-1.514v-2.935c2.776,1.342 10.455,1.39 11.5,1.39c1.046,0 8.73,-0.048 11.503,-1.392l0.008,2.883c-0.293,0.53 -4.082,1.568 -11.511,1.568z" fill="#ffffff"></path></g></g></svg>