<svg version="1.1" xmlns="http://www.w3.org/2000/svg" xmlns:xlink="http://www.w3.org/1999/xlink" width="100%" height="100%" viewBox="0,0,256,256"><g fill-opacity="0" fill="#dddddd" fill-rule="nonzero" stroke="none" stroke-width="1" stroke-linecap="butt" stroke-linejoin="miter" stroke-miterlimit="10" stroke-dasharray="" stroke-dashoffset="0" font-family="none" font-weight="none" font-size="none" text-anchor="none" style="mix-blend-mode: normal"><path d="M0,256v-256h256v256z" id="bgRectangle"></path></g><g fill="none" fill-rule="nonzero" stroke="none" stroke-width="1" stroke-linecap="butt" stroke-linejoin="miter" stroke-miterlimit="10" stroke-dasharray="" stroke-dashoffset="0" font-family="none" font-weight="none" font-size="none" text-anchor="none" style="mix-blend-mode: normal"><g transform="scale(0.49231,0.49231)"><path d="M440,60c13.8,0 25,11.19 25,25c0,13.81 -11.2,25 -25,25c-13.811,0 -25,-11.19 -25,-25c0,-13.81 11.189,-25 25,-25z" fill="#2b4891"></path><circle cx="90" cy="435" r="35" fill="#2b4891"></circle><path d="M260,75c99.41,0 180,80.59 180,180c0,99.41 -80.59,180 -180,180c-99.41,0 -180,-80.59 -180,-180c0,-99.41 80.59,-180 180,-180z" fill="#a7adc0"></path><circle cx="260" cy="160" r="30" fill="#b90011"></circle><path d="M295,215v142.5c0,7.6 -3.08,14.47 -8.061,19.45c-4.979,4.97 -11.85,8.05 -19.439,8.05c-15.19,0 -27.5,-12.31 -27.5,-27.5v-92.5h-20c-6.9,0 -13.16,-2.8 -17.68,-7.32c-4.52,-4.52 -7.32,-10.78 -7.32,-17.68c0,-13.81 11.19,-25 25,-25h20h35z" fill="#b90011"></path><path d="M467.5,180c4.14,0 7.5,3.36 7.5,7.5c0,4.14 -3.36,7.5 -7.5,7.5c-4.15,0 -7.5,-3.36 -7.5,-7.5c0,-4.14 3.35,-7.5 7.5,-7.5z" fill="#000000"></path><path d="M452.5,385c4.14,0 7.5,3.36 7.5,7.5c0,4.14 -3.36,7.5 -7.5,7.5c-4.15,0 -7.5,-3.36 -7.5,-7.5c0,-4.14 3.35,-7.5 7.5,-7.5z" fill="#000000"></path><path d="M377.5,45c4.14,0 7.5,3.36 7.5,7.5c0,4.14 -3.36,7.5 -7.5,7.5c-4.15,0 -7.5,-3.36 -7.5,-7.5c0,-4.14 3.35,-7.5 7.5,-7.5z" fill="#000000"></path><path d="M342.5,445c4.14,0 7.5,3.36 7.5,7.5c0,4.14 -3.36,7.5 -7.5,7.5c-4.15,0 -7.5,-3.36 -7.5,-7.5c0,-4.14 3.35,-7.5 7.5,-7.5z" fill="#000000"></path><path d="M202.5,45c4.14,0 7.5,3.36 7.5,7.5c0,4.14 -3.36,7.5 -7.5,7.5c-4.15,0 -7.5,-3.36 -7.5,-7.5c0,-4.14 3.35,-7.5 7.5,-7.5z" fill="#000000"></path><path d="M167.5,435c4.14,0 7.5,3.36 7.5,7.5c0,4.14 -3.36,7.5 -7.5,7.5c-4.15,0 -7.5,-3.36 -7.5,-7.5c0,-4.14 3.35,-7.5 7.5,-7.5z" fill="#000000"></path><path d="M57.5,315c4.14,0 7.5,3.36 7.5,7.5c0,4.14 -3.36,7.5 -7.5,7.5c-4.15,0 -7.5,-3.36 -7.5,-7.5c0,-4.14 3.35,-7.5 7.5,-7.5z" fill="#000000"></path><path d="M52.5,130c4.14,0 7.5,3.36 7.5,7.5c0,4.14 -3.36,7.5 -7.5,7.5c-4.15,0 -7.5,-3.36 -7.5,-7.5c0,-4.14 3.35,-7.5 7.5,-7.5z" fill="#000000"></path><path d="M260,440c-102.009,0 -185,-82.99 -185,-185c0,-102.009 82.991,-185 185,-185c102.01,0 185,82.991 185,185c0,102.01 -82.99,185 -185,185zM260,80c-96.495,0 -175,78.505 -175,175c0,96.495 78.505,175 175,175c96.495,0 175,-78.505 175,-175c0,-96.495 -78.505,-175 -175,-175z" fill="#000000"></path><path d="M351.92,351.92c-1.279,0 -2.56,-0.488 -3.535,-1.465c-1.953,-1.953 -1.953,-5.118 0,-7.071c23.609,-23.605 36.613,-54.994 36.613,-88.384c0,-33.39 -13.004,-64.779 -36.613,-88.384c-1.953,-1.952 -1.953,-5.118 0,-7.071c1.951,-1.953 5.117,-1.954 7.07,-0.001c25.5,25.494 39.543,59.395 39.543,95.456c0,36.061 -14.043,69.962 -39.543,95.456c-0.976,0.976 -2.256,1.464 -3.535,1.464z" fill="#000000"></path><path d="M168.07,351.92c-1.279,0 -2.559,-0.488 -3.535,-1.464c-25.5,-25.494 -39.542,-59.395 -39.542,-95.456c0,-36.061 14.043,-69.962 39.542,-95.456c1.953,-1.951 5.119,-1.951 7.071,0.001c1.952,1.953 1.952,5.119 -0.001,7.071c-23.61,23.605 -36.613,54.994 -36.613,88.384c0,33.39 13.003,64.778 36.613,88.384c1.953,1.953 1.953,5.118 0.001,7.071c-0.977,0.977 -2.256,1.465 -3.536,1.465z" fill="#000000"></path><path d="M267.5,390c-17.92,0 -32.5,-14.579 -32.5,-32.5v-87.5h-15c-8.017,0 -15.551,-3.12 -21.216,-8.785c-5.664,-5.664 -8.784,-13.198 -8.784,-21.215c0,-16.542 13.458,-30 30,-30h75c2.762,0 5,2.239 5,5v142.5c0,8.68 -3.383,16.843 -9.524,22.985c-6.15,6.137 -14.308,9.515 -22.976,9.515zM220,220c-11.028,0 -20,8.972 -20,20c0,5.346 2.08,10.369 5.855,14.144c3.776,3.777 8.799,5.856 14.145,5.856h20c2.761,0 5,2.238 5,5v92.5c0,12.406 10.093,22.5 22.5,22.5c6.001,0 11.65,-2.34 15.908,-6.589c4.25,-4.25 6.592,-9.902 6.592,-15.911v-137.5z" fill="#000000"></path><path d="M260,195c-19.299,0 -35,-15.701 -35,-35c0,-19.299 15.701,-35 35,-35c19.299,0 35,15.701 35,35c0,19.299 -15.701,35 -35,35zM260,135c-13.785,0 -25,11.215 -25,25c0,13.785 11.215,25 25,25c13.785,0 25,-11.215 25,-25c0,-13.785 -11.215,-25 -25,-25z" fill="#000000"></path><path d="M440,115c-16.542,0 -30,-13.458 -30,-30c0,-16.542 13.458,-30 30,-30c16.542,0 30,13.458 30,30c0,16.542 -13.458,30 -30,30zM440,65c-11.027,0 -20,8.972 -20,20c0,11.028 8.973,20 20,20c11.027,0 20,-8.972 20,-20c0,-11.028 -8.973,-20 -20,-20z" fill="#000000"></path><path d="M90,475c-22.056,0 -40,-17.944 -40,-40c0,-22.056 17.944,-40 40,-40c22.056,0 40,17.944 40,40c0,22.056 -17.944,40 -40,40zM90,405c-16.542,0 -30,13.458 -30,30c0,16.542 13.458,30 30,30c16.542,0 30,-13.458 30,-30c0,-16.542 -13.458,-30 -30,-30z" fill="#000000"></path></g></g></svg>