<svg version="1.1" xmlns="http://www.w3.org/2000/svg" xmlns:xlink="http://www.w3.org/1999/xlink" width="100%" height="100%" viewBox="0,0,256,256"><g fill-opacity="0" fill="#dddddd" fill-rule="nonzero" stroke="none" stroke-width="1" stroke-linecap="butt" stroke-linejoin="miter" stroke-miterlimit="10" stroke-dasharray="" stroke-dashoffset="0" font-family="none" font-weight="none" font-size="none" text-anchor="none" style="mix-blend-mode: normal"><path d="M0,256v-256h256v256z" id="bgRectangle"></path></g><g fill="none" fill-rule="nonzero" stroke="none" stroke-width="1" stroke-linecap="butt" stroke-linejoin="miter" stroke-miterlimit="10" stroke-dasharray="" stroke-dashoffset="0" font-family="none" font-weight="none" font-size="none" text-anchor="none" style="mix-blend-mode: normal"><g transform="scale(4,4)"><g><path d="M7,9h50c2.20914,0 4,1.79086 4,4v32c0,2.20914 -1.79086,4 -4,4h-49c-2.76142,0 -5,-2.23858 -5,-5v-31c0,-2.20914 1.79086,-4 4,-4z" fill="#c0c0c0"></path><path d="M61,37v8c0,2.20914 -1.79086,4 -4,4h-49c-2.76142,0 -5,-2.23858 -5,-5v-31c0,-2.20914 1.79086,-4 4,-4h16v8c-0.00159,5.30482 2.10503,10.39282 5.85611,14.14389c3.75107,3.75107 8.83908,5.8577 14.14389,5.85611z" fill="#808688"></path><path d="M11,57h42c1.10457,0 2,0.89543 2,2v2h-46v-2c0,-1.10457 0.89543,-2 2,-2z" fill="#c0c0c0"></path><path d="M55,59v2h-46v-2c0.00329,-1.1032 0.8968,-1.99671 2,-2h1.18c0.41463,1.20184 1.54867,2.00612 2.82,2z" fill="#808688"></path><path d="M42,49h-20c-0.94777,3.15931 -3.2845,5.714 -6.347,6.939l-2.653,1.061h38l-2.653,-1.061c-3.0625,-1.225 -5.39923,-3.77969 -6.347,-6.939z" fill="#808688"></path><path d="M42,49h-20c-0.94777,3.15931 -3.2845,5.714 -6.347,6.939l-2.653,1.061z" fill="#0c272b"></path><path d="M23.636,23.636l-4.243,-4.243c-2.81701,2.81052 -4.39795,6.62773 -4.393,10.607h6c-0.00311,-2.38757 0.94556,-4.67791 2.636,-6.364z" fill="#450c7d"></path><path d="M39,30h6c0.00495,-3.97927 -1.57599,-7.79648 -4.393,-10.607l-4.243,4.243c1.69044,1.68609 2.63911,3.97643 2.636,6.364z" fill="#ff0000"></path><path d="M23.636,36.364l-4.243,4.243c2.81052,2.81701 6.62773,4.39795 10.607,4.393v-6c-2.38757,0.00311 -4.67791,-0.94556 -6.364,-2.636z" fill="#337d8b"></path><path d="M45,30h-6c0.00311,2.38757 -0.94556,4.67791 -2.636,6.364l4.243,4.243c2.81701,-2.81052 4.39795,-6.62773 4.393,-10.607z" fill="#0d8311"></path><path d="M30,39v6c3.97927,0.00495 7.79648,-1.57599 10.607,-4.393l-4.243,-4.243c-1.68609,1.69044 -3.97643,2.63911 -6.364,2.636z" fill="#1d4076"></path><path d="M36.364,23.636l4.243,-4.243c-2.81052,-2.81701 -6.62773,-4.39795 -10.607,-4.393v6c2.38757,-0.00311 4.67791,0.94556 6.364,2.636z" fill="#b7a866"></path><path d="M21,30h-6c-0.00495,3.97927 1.57599,7.79648 4.393,10.607l4.243,-4.243c-1.69044,-1.68609 -2.63911,-3.97643 -2.636,-6.364z" fill="#00b4d8"></path><path d="M30,21v-6c-3.97927,-0.00495 -7.79648,1.57599 -10.607,4.393l4.243,4.243c1.68609,-1.69044 3.97643,-2.63911 6.364,-2.636z" fill="#b08a29"></path><path d="M43.27,37c-0.70734,1.32569 -1.60335,2.5417 -2.66,3.61l-4.25,-4.25c0.12395,-0.11675 0.23769,-0.24388 0.34,-0.38c2.03145,0.67672 4.1588,1.02115 6.3,1.02z" fill="#9d0600"></path><path d="M24.02,23.3c-0.13612,0.10231 -0.26325,0.21605 -0.38,0.34l-4.25,-4.25c1.0683,-1.05665 2.28431,-1.95266 3.61,-2.66v0.27c-0.00115,2.1412 0.34328,4.26855 1.02,6.3z" fill="#554d3f"></path><rect x="7" y="24" width="4" height="4" fill="#00b4d8"></rect><rect x="7" y="32" width="4" height="4" fill="#0d8311"></rect><rect x="7" y="40" width="4" height="4" fill="#b7a866"></rect><circle cx="52" cy="40" r="5" fill="#ff0000"></circle><path d="M57,40h-5v-5c2.76142,0 5,2.23858 5,5z" fill="#337d8b"></path><circle cx="9.5" cy="15.5" r="2.5" fill="#b7a866"></circle><path d="M49.9,12.3l-6,10.392l-0.134,2.232l-1,1.732c-0.55226,0.95656 -0.22454,2.1797 0.732,2.732v0c0.45945,0.26552 1.00558,0.33757 1.51817,0.20028c0.51259,-0.13729 0.9496,-0.47266 1.21483,-0.93228l1,-1.732l1.869,-1.237l6,-10.392z" fill="#20acc9"></path><path d="M55.1,15.29l-6,10.4l-1.87,1.23l-1,1.73c-0.3569,0.61817 -1.0162,0.99927 -1.73,1c-0.35171,0.0028 -0.6975,-0.09056 -1,-0.27c-0.705,-0.39851 -1.09389,-1.18821 -0.98,-1.99c0.95311,0.54071 2.16397,0.21006 2.71,-0.74l1,-1.73l1.87,-1.23l2.7,-4.68c1.10227,-1.91673 0.44459,-4.36402 -1.47,-5.47l-0.11,-0.07l0.68,-1.18z" fill="#337d8b"></path><path transform="translate(11.00306,-27.33) rotate(30)" d="M56.5,2.867v0c1.65685,0 3,1.34315 3,3v5h-6v-5c0,-1.65685 1.34315,-3 3,-3z" fill="#0c272b"></path><rect x="47.36286" y="-18.30314" transform="rotate(30)" width="10" height="4" fill="#0c272b"></rect><path d="M53.13,18.7l-4.03,6.99l-1.87,1.23l-1,1.73c-0.3569,0.61817 -1.0162,0.99927 -1.73,1c-0.35171,0.0028 -0.6975,-0.09056 -1,-0.27c-0.95461,-0.55293 -1.28123,-1.77441 -0.73,-2.73l1,-1.73l0.13,-2.23l3.23,-5.61c0.88443,0.02581 1.73962,0.32251 2.45,0.85c0.73913,0.56083 1.64219,0.86302 2.57,0.86c0.20404,0.00162 0.40792,-0.01175 0.61,-0.04z" fill="#ff0000"></path><path d="M60,6.01c-0.00004,0.52319 -0.13801,1.03713 -0.4,1.49l-2.5,4.33l-5.2,-3l1.3,-2.25l1.3,0.75c0.68946,0.39828 1.50897,0.50613 2.278,0.29981c0.76903,-0.20633 1.42449,-0.7099 1.822,-1.39981l1,-1.73c0.26126,0.46044 0.39905,0.9806 0.4,1.51z" fill="#4e7bce"></path><path d="M58.83,12.83l-2,3.46l-8.66,-5l1.05,-1.82l4.01,2.32c1.06677,0.62233 2.40673,0.52293 3.37,-0.25z" fill="#4e7bce"></path><path d="M53.13,18.7l-4.03,6.99l-1.87,1.23l-1,1.73c-0.3569,0.61817 -1.0162,0.99927 -1.73,1c-0.35171,0.0028 -0.6975,-0.09056 -1,-0.27c-0.705,-0.39851 -1.09389,-1.18821 -0.98,-1.99c0.95311,0.54071 2.16397,0.21006 2.71,-0.74l1,-1.73l1.87,-1.23l2.7,-4.68c0.074,-0.11955 0.13437,-0.24701 0.18,-0.38c0.57919,0.1595 1.18464,0.20032 1.78,0.12z" fill="#0d8311"></path><path d="M57,40c0,2.76142 -2.23858,5 -5,5c-2.76142,0 -5,-2.23858 -5,-5c-0.00431,-1.08255 0.34702,-2.13655 1,-3h8c0.65298,0.86345 1.00431,1.91745 1,3z" fill="#0d8311"></path><path d="M57,40h-5v-3h4c0.65298,0.86345 1.00431,1.91745 1,3z" fill="#00b4d8"></path><rect x="7" y="40" width="2" height="4" fill="#b08a29"></rect><rect x="7" y="24" width="2" height="4" fill="#450c7d"></rect><rect x="7" y="32" width="2" height="4" fill="#9d0600"></rect><path d="M9.5,18c-1.38071,0 -2.5,-1.11929 -2.5,-2.5c0,-1.38071 1.11929,-2.5 2.5,-2.5z" fill="#b08a29"></path><g fill="#000000"><path d="M61,16c-0.55228,0 -1,0.44772 -1,1v28c0,1.65685 -1.34315,3 -3,3h-49c-2.20914,0 -4,-1.79086 -4,-4v-14c0,-0.55228 -0.44772,-1 -1,-1c-0.55228,0 -1,0.44772 -1,1v14c0.00331,3.31234 2.68766,5.99669 6,6h12.545c-1.04377,2.28539 -2.929,4.07999 -5.263,5.01l-2.474,0.99h-1.808c-1.65685,0 -3,1.34315 -3,3v2c0,0.55228 0.44772,1 1,1h23c0.55228,0 1,-0.44772 1,-1c0,-0.55228 -0.44772,-1 -1,-1h-22v-1c0,-0.55228 0.44772,-1 1,-1h42c0.55228,0 1,0.44772 1,1v1h-18c-0.55228,0 -1,0.44772 -1,1c0,0.55228 0.44772,1 1,1h19c0.55228,0 1,-0.44772 1,-1v-2c0,-1.65685 -1.34315,-3 -3,-3h-1.808l-2.474,-0.99c-2.334,-0.93001 -4.21923,-2.72461 -5.263,-5.01h13.545c2.76005,-0.00331 4.99669,-2.23995 5,-5v-28c0,-0.55228 -0.44772,-1 -1,-1zM46.232,56h-28.464c2.28445,-1.37925 4.03101,-3.49544 4.952,-6h18.56c0.92099,2.50456 2.66755,4.62075 4.952,6z"></path><path d="M3,27c0.55228,0 1,-0.44772 1,-1v-13c0,-1.65685 1.34315,-3 3,-3h37.494c0.55228,0 1,-0.44772 1,-1c0,-0.55228 -0.44772,-1 -1,-1h-37.494c-2.76005,0.00331 -4.99669,2.23995 -5,5v13c0,0.55228 0.44772,1 1,1z"></path><path d="M47.669,12.161l0.866,0.5l-5.051,8.749c-3.67293,-5.8191 -10.67357,-8.61346 -17.344,-6.923c-0.53627,0.1331 -0.8631,0.67573 -0.73,1.212c0.1331,0.53627 0.67573,0.8631 1.212,0.73c0.78108,-0.18786 1.57653,-0.30996 2.378,-0.365v3.987c-1.95398,0.19543 -3.80643,0.96473 -5.324,2.211l-2.837,-2.837c0.71396,-0.6177 1.48819,-1.1621 2.311,-1.625c0.46937,-0.27621 0.63142,-0.87722 0.3645,-1.35194c-0.26691,-0.47472 -0.86462,-0.64857 -1.3445,-0.39106c-6.77208,3.79361 -9.84437,11.90074 -7.28732,19.22973c2.55704,7.32898 10.00571,11.76541 17.66788,10.52299c7.66217,-1.24242 13.32731,-7.80525 13.43744,-15.56672c0.46041,-0.25896 0.84355,-0.63588 1.11,-1.092l0.881,-1.527l1.669,-1.1c0.12985,-0.08528 0.23804,-0.19963 0.316,-0.334l5.5,-9.526l0.866,0.5c0.22979,0.13404 0.50353,0.17099 0.76064,0.10268c0.25711,-0.06831 0.4764,-0.23626 0.60936,-0.46668l2,-3.464c0.13292,-0.22977 0.16903,-0.50296 0.10038,-0.75937c-0.06865,-0.25641 -0.23644,-0.47501 -0.46638,-0.60763l-0.866,-0.5l2,-3.464c1.10457,-1.91339 0.44889,-4.35993 -1.4645,-5.4645c-1.91339,-1.10457 -4.35993,-0.44889 -5.4645,1.4645l-0.683,1.185c-0.27169,0.47786 -0.10674,1.08542 0.36931,1.36027c0.47605,0.27485 1.08469,0.11394 1.36269,-0.36027l0.68,-1.19c0.56434,-0.92967 1.76812,-1.23799 2.70989,-0.69409c0.94177,0.5439 1.27631,1.74067 0.75311,2.69409l-2,3.464l-6.063,-3.5c-0.2298,-0.13252 -0.50284,-0.1683 -0.75903,-0.09947c-0.25619,0.06883 -0.47453,0.23663 -0.60697,0.46647l-2,3.464c-0.27613,0.47828 -0.11227,1.08985 0.366,1.366zM20.051,29h-4.013c0.2207,-3.01345 1.40984,-5.87477 3.39,-8.157l2.834,2.833c-1.24648,1.51745 -2.01581,3.36996 -2.211,5.324zM20.051,31c0.19519,1.95404 0.96452,3.80655 2.211,5.324l-2.83,2.83c-1.98183,-2.27919 -3.16853,-5.14116 -3.381,-8.154zM23.676,37.738c1.51757,1.24627 3.37002,2.01557 5.324,2.211v4c-3.01284,-0.21247 -5.87481,-1.39917 -8.154,-3.381zM31,39.949c1.95398,-0.19543 3.80643,-0.96473 5.324,-2.211l2.83,2.83c-2.27919,1.98183 -5.14116,3.16853 -8.154,3.381zM37.738,36.324c1.24648,-1.51745 2.01581,-3.36996 2.211,-5.324h4c-0.21247,3.01284 -1.39917,5.87481 -3.381,8.154zM39.949,29c-0.19519,-1.95404 -0.96452,-3.80655 -2.211,-5.324l2.842,-2.842c0.91003,1.04991 1.65857,2.22952 2.221,3.5l-0.018,0.294l-0.883,1.523c-0.39957,0.68865 -0.50756,1.50836 -0.3,2.277c0.05381,0.19761 0.12752,0.38926 0.22,0.572zM36.324,22.262c-1.51757,-1.24627 -3.37002,-2.01557 -5.324,-2.211v-4.014c3.01586,0.21597 5.88056,1.40325 8.165,3.384zM30,22c4.41828,0 8,3.58172 8,8c0,4.41828 -3.58172,8 -8,8c-4.41828,0 -8,-3.58172 -8,-8c0.00496,-4.41622 3.58378,-7.99504 8,-8zM48.35,24.982l-1.669,1.1c-0.12968,0.0859 -0.23781,0.20053 -0.316,0.335l-1,1.733c-0.13158,0.2299 -0.34988,0.39741 -0.606,0.465c-0.39073,0.1048 -0.8061,-0.03614 -1.05238,-0.35707c-0.24628,-0.32093 -0.27494,-0.75863 -0.07262,-1.10893l1,-1.732c0.07735,-0.13452 0.12252,-0.28512 0.132,-0.44l0.12,-2l2.789,-4.83c0.47064,0.09282 0.91471,0.28923 1.3,0.575c0.70372,0.53351 1.53241,0.87779 2.407,1zM52.516,17.765c-0.83139,0.10136 -1.66945,-0.12655 -2.335,-0.635c-0.44667,-0.33328 -0.94402,-0.59259 -1.473,-0.768l1.559,-2.7l3.464,2zM50.535,9.2l6.065,3.5v0l0.866,0.5l-1,1.732l-6.062,-3.5v0l-0.866,-0.5z"></path><path d="M12,24c0,-0.55228 -0.44772,-1 -1,-1h-4c-0.55228,0 -1,0.44772 -1,1v4c0,0.55228 0.44772,1 1,1h4c0.55228,0 1,-0.44772 1,-1zM10,27h-2v-2h2z"></path><path d="M12,32c0,-0.55228 -0.44772,-1 -1,-1h-4c-0.55228,0 -1,0.44772 -1,1v4c0,0.55228 0.44772,1 1,1h4c0.55228,0 1,-0.44772 1,-1zM10,35h-2v-2h2z"></path><path d="M7,43c-0.55228,0 -1,0.44772 -1,1c0,0.55228 0.44772,1 1,1h4c0.55228,0 1,-0.44772 1,-1v-4c0,-0.55228 -0.44772,-1 -1,-1h-4c-0.55228,0 -1,0.44772 -1,1c0,0.55228 0.44772,1 1,1h3v2z"></path><path d="M52,34c-3.31371,0 -6,2.68629 -6,6c0,3.31371 2.68629,6 6,6c3.31371,0 6,-2.68629 6,-6c-0.00331,-3.31234 -2.68766,-5.99669 -6,-6zM55.858,39h-2.858v-2.858c1.39931,0.36589 2.49211,1.45869 2.858,2.858zM52,44c-2.01177,0.0025 -3.71107,-1.49237 -3.96503,-3.48804c-0.25397,-1.99568 1.01676,-3.86851 2.96503,-4.36996v3.858c0,0.55228 0.44772,1 1,1h3.858c-0.45459,1.76069 -2.03959,2.99319 -3.858,3z"></path><path d="M57,30h-4c-0.55228,0 -1,0.44772 -1,1c0,0.55228 0.44772,1 1,1h4c0.55228,0 1,-0.44772 1,-1c0,-0.55228 -0.44772,-1 -1,-1z"></path><path d="M57,26h-3c-0.55228,0 -1,0.44772 -1,1c0,0.55228 0.44772,1 1,1h3c0.55228,0 1,-0.44772 1,-1c0,-0.55228 -0.44772,-1 -1,-1z"></path><path d="M9.5,12c-1.933,0 -3.5,1.567 -3.5,3.5c0,1.933 1.567,3.5 3.5,3.5c1.933,0 3.5,-1.567 3.5,-3.5c0,-1.933 -1.567,-3.5 -3.5,-3.5zM9.5,17c-0.82843,0 -1.5,-0.67157 -1.5,-1.5c0,-0.82843 0.67157,-1.5 1.5,-1.5c0.82843,0 1.5,0.67157 1.5,1.5c0,0.82843 -0.67157,1.5 -1.5,1.5z"></path></g></g></g></g></svg>