<svg version="1.1" xmlns="http://www.w3.org/2000/svg" xmlns:xlink="http://www.w3.org/1999/xlink" width="100%" height="100%" viewBox="0,0,256,256"><g fill-opacity="0" fill="#dddddd" fill-rule="nonzero" stroke="none" stroke-width="1" stroke-linecap="butt" stroke-linejoin="miter" stroke-miterlimit="10" stroke-dasharray="" stroke-dashoffset="0" font-family="none" font-weight="none" font-size="none" text-anchor="none" style="mix-blend-mode: normal"><path d="M0,256v-256h256v256z" id="bgRectangle"></path></g><g fill="none" fill-rule="nonzero" stroke="none" stroke-width="1" stroke-linecap="butt" stroke-linejoin="miter" stroke-miterlimit="10" stroke-dasharray="" stroke-dashoffset="0" font-family="none" font-weight="none" font-size="none" text-anchor="none" style="mix-blend-mode: normal"><g transform="scale(4,4)"><path d="M32,5c-14.91169,0 -27,12.08831 -27,27c0,14.91169 12.08831,27 27,27c14.91169,0 27,-12.08831 27,-27c0,-14.91169 -12.08831,-27 -27,-27z" fill="#19f900"></path><path d="M32,4c-15.464,0 -28,12.536 -28,28h28z" fill="#00e1ff"></path><path d="M51.799,51.799c5.067,-5.067 8.201,-12.067 8.201,-19.799c0,-15.464 -12.536,-28 -28,-28v28z" fill="#de00ff"></path><path d="M32,33h-27c-0.553,0 -1,-0.448 -1,-1c0,-15.439 12.561,-28 28,-28c0.553,0 1,0.448 1,1v27c0,0.552 -0.447,1 -1,1zM6.019,31h24.981v-24.981c-13.542,0.515 -24.466,11.439 -24.981,24.981z" fill="#23257a"></path><path d="M32,60c-15.439,0 -28,-12.561 -28,-28c0,-15.439 12.561,-28 28,-28c15.439,0 28,12.561 28,28c0,15.439 -12.561,28 -28,28zM32,6c-14.337,0 -26,11.664 -26,26c0,14.336 11.663,26 26,26c14.337,0 26,-11.664 26,-26c0,-14.336 -11.663,-26 -26,-26z" fill="#23257a"></path><path d="M45.879,2.801l-8.879,25.199l24.511,-10.54c-2.953,-6.529 -8.397,-11.931 -15.632,-14.659z" fill="#00e1ff"></path><path d="M37,29c-0.249,0 -0.494,-0.093 -0.683,-0.27c-0.29,-0.271 -0.393,-0.688 -0.261,-1.063l8.879,-25.199c0.09,-0.253 0.277,-0.46 0.521,-0.574c0.244,-0.113 0.524,-0.124 0.775,-0.029c7.248,2.732 12.998,8.125 16.191,15.183c0.11,0.245 0.118,0.523 0.021,0.773c-0.098,0.25 -0.291,0.451 -0.537,0.557l-24.512,10.54c-0.126,0.055 -0.26,0.082 -0.394,0.082zM46.477,4.115l-7.776,22.065l21.462,-9.229c-2.893,-5.815 -7.7,-10.322 -13.686,-12.836z" fill="#23257a"></path><path transform="translate(-17.18986,41.50102) rotate(-45.001)" d="M40.499,28.065h2v26.87h-2z" fill="#23257a"></path><path d="M10.154,40.212c-0.42,0 -0.811,-0.267 -0.95,-0.687c-0.173,-0.525 0.112,-1.09 0.637,-1.263l1.899,-0.626c0.524,-0.172 1.09,0.113 1.263,0.637c0.173,0.525 -0.112,1.091 -0.637,1.264l-1.899,0.626c-0.104,0.033 -0.21,0.049 -0.313,0.049zM12.367,44.944c-0.337,0 -0.667,-0.171 -0.855,-0.479c-0.287,-0.472 -0.138,-1.087 0.333,-1.374l1.708,-1.041c0.472,-0.291 1.086,-0.138 1.375,0.333c0.287,0.472 0.138,1.087 -0.333,1.374l-1.708,1.041c-0.163,0.099 -0.343,0.146 -0.52,0.146zM15.562,49.072c-0.26,0 -0.519,-0.101 -0.715,-0.301c-0.386,-0.395 -0.379,-1.028 0.016,-1.414l1.43,-1.398c0.394,-0.387 1.027,-0.38 1.414,0.016c0.386,0.395 0.379,1.028 -0.016,1.414l-1.43,1.398c-0.194,0.191 -0.447,0.285 -0.699,0.285zM19.614,52.364c-0.185,0 -0.372,-0.051 -0.539,-0.158c-0.465,-0.298 -0.601,-0.916 -0.303,-1.381l1.079,-1.685c0.298,-0.467 0.917,-0.602 1.382,-0.303c0.465,0.298 0.601,0.916 0.303,1.381l-1.079,1.685c-0.19,0.299 -0.513,0.461 -0.843,0.461zM24.304,54.661c-0.111,0 -0.224,-0.019 -0.334,-0.058c-0.521,-0.185 -0.792,-0.757 -0.608,-1.277l0.669,-1.885c0.185,-0.521 0.759,-0.792 1.277,-0.607c0.521,0.185 0.792,0.757 0.608,1.277l-0.669,1.885c-0.146,0.409 -0.532,0.665 -0.943,0.665zM29.395,55.838c-0.038,0 -0.076,-0.002 -0.114,-0.006c-0.549,-0.062 -0.943,-0.558 -0.881,-1.106l0.225,-1.987c0.062,-0.549 0.559,-0.937 1.106,-0.882c0.549,0.062 0.943,0.558 0.881,1.106l-0.225,1.987c-0.058,0.511 -0.491,0.888 -0.992,0.888zM34.612,55.851c-0.502,0 -0.935,-0.377 -0.992,-0.888l-0.226,-1.987c-0.062,-0.548 0.332,-1.044 0.881,-1.105c0.553,-0.075 1.043,0.332 1.105,0.881l0.226,1.986c0.062,0.549 -0.332,1.045 -0.881,1.106c-0.037,0.005 -0.076,0.007 -0.113,0.007zM39.703,54.676c-0.411,0 -0.797,-0.256 -0.942,-0.665l-0.67,-1.885c-0.185,-0.521 0.087,-1.092 0.607,-1.277c0.518,-0.185 1.092,0.087 1.277,0.607l0.67,1.885c0.185,0.521 -0.087,1.092 -0.607,1.277c-0.11,0.039 -0.224,0.058 -0.335,0.058z" fill="#23257a"></path></g></g></svg>