<svg version="1.1" xmlns="http://www.w3.org/2000/svg" xmlns:xlink="http://www.w3.org/1999/xlink" width="100%" height="100%" viewBox="0,0,256,256"><g fill-opacity="0" fill="#dddddd" fill-rule="nonzero" stroke="none" stroke-width="1" stroke-linecap="butt" stroke-linejoin="miter" stroke-miterlimit="10" stroke-dasharray="" stroke-dashoffset="0" font-family="none" font-weight="none" font-size="none" text-anchor="none" style="mix-blend-mode: normal"><path d="M0,256v-256h256v256z" id="bgRectangle"></path></g><g fill="none" fill-rule="nonzero" stroke="none" stroke-width="1" stroke-linecap="butt" stroke-linejoin="miter" stroke-miterlimit="10" stroke-dasharray="" stroke-dashoffset="0" font-family="none" font-weight="none" font-size="none" text-anchor="none" style="mix-blend-mode: normal"><g transform="scale(0.53333,0.53333)"><path d="M365.96,40c0,-17.67 -14.33,-32 -32,-32h-188c-17.67,0 -32,14.33 -32,32c0,124.63 0.04,275.388 0.04,400c0,17.66 14.31,31.98 31.96,32h188c17.67,0 32,-14.33 32,-32z" fill="#01570b"></path><path d="M350.54,133.573c3.238,-8.188 15.42,-5.833 15.42,2.973v303.454c0,17.673 -14.327,32 -32,32h-188c-17.673,0 -32,-14.327 -32,-32v-162.476c0,-4.778 4.155,-8.468 8.904,-7.946c107.888,11.849 191.808,-45.307 227.676,-136.005z" fill="#2f7a6e"></path><path d="M311.96,8l-14.28,25.71c-3.53,6.35 -10.22,10.29 -17.49,10.29h-80.46c-7.27,0 -13.96,-3.94 -17.49,-10.29l-14.28,-25.71c36.21,0 107.95,0 144,0z" fill="#554c09"></path><path d="M456,286c8.837,0 16,7.163 16,16v73.22c0,8.837 -7.163,16 -16,16h-154.347c-1.8,0 -3.358,1.21 -3.851,2.941c-5.089,17.864 -19.714,29.318 -37.313,31.95c-3.452,0.516 -5.866,-3.301 -3.918,-6.198c4.955,-7.366 6.677,-16.686 4.122,-25.717c-0.494,-1.747 -2.056,-2.977 -3.871,-2.977h-36.912c-8.837,0 -16,-7.164 -16,-16v-73.219c0,-8.837 7.163,-16 16,-16z" fill="#860612"></path><path d="M260.09,130.48c8.837,0 16,7.163 16,16v73.21c0,8.837 -7.163,16 -16,16h-236.09c-8.837,0 -16,-7.163 -16,-16v-73.21c0,-8.837 7.163,-16 16,-16h154.84c1.816,0 3.377,-1.232 3.871,-2.98c2.549,-9.032 0.828,-18.355 -4.129,-25.722c-1.948,-2.896 0.467,-6.715 3.919,-6.199c17.604,2.631 32.229,14.086 37.312,31.958c0.493,1.732 2.051,2.943 3.852,2.943z" fill="#860612"></path><path d="M212.71,147.5c-0.65,1.935 -2.164,2.98 -3.87,2.98h-154.84c-8.837,0 -16,7.163 -16,16v55.21c0,7.732 -6.268,14 -14,14c-8.809,0 -16,-7.136 -16,-16v-73.21c0,-8.837 7.163,-16 16,-16h154.84c1.82,0 3.381,-1.23 3.871,-2.98c2.55,-9.03 0.819,-18.354 -4.129,-25.722c-1.945,-2.897 0.469,-6.717 3.919,-6.199c10.202,1.532 19.401,6.014 26.316,12.996c3.145,3.176 3.775,7.985 1.898,12.042c-3.847,8.318 3.405,22.684 1.995,26.883z" fill="#2a6eb7"></path><path d="M457.078,286.036c12.667,0.842 11.701,19.964 -0.994,19.964h-206.174c-8.837,0 -16,7.163 -16,16v55.22c0,7.732 -6.268,14 -14,14c-8.809,0 -16,-7.136 -16,-16v-73.22c0,-8.837 7.163,-16 16,-16c250.637,0 236.332,-0.02 237.168,0.036z" fill="#2a6eb7"></path><path d="M284.091,219.693v-73.218c0,-13.233 -10.767,-24 -24,-24h-33.479c-7.708,-22.408 -28.838,-36.414 -54.457,-35.428c-7.327,0.285 -10.443,9.511 -4.77,14.175c7.783,6.396 10.547,16.979 6.879,26.333c-1.613,4.113 0.414,8.755 4.527,10.368c4.111,1.612 8.755,-0.415 10.368,-4.528c3.6,-9.181 3.541,-19.059 0.289,-27.846c11.808,4.325 20.512,13.887 23.289,26.629c0.801,3.676 4.055,6.297 7.816,6.297h39.537c4.411,0 8,3.589 8,8v73.218c0,4.411 -3.589,8 -8,8h-236.09c-4.411,0 -8,-3.589 -8,-8v-73.218c0,-4.411 3.589,-8 8,-8h90c4.418,0 8,-3.582 8,-8v-90.475c0,-13.233 10.766,-24 24,-24h17.719l11.999,21.598c4.935,8.883 14.313,14.402 24.476,14.402h81.612c4.418,0 8,-3.582 8,-8c0,-4.418 -3.582,-8 -8,-8h-81.612c-4.355,0 -8.375,-2.365 -10.49,-6.172l-7.682,-13.828h151.978c13.233,0 24,10.767 24,24v202.549c0,4.418 3.582,8 8,8c4.418,0 8,-3.582 8,-8v-202.549c0,-22.056 -17.944,-40 -40,-40h-188c-21.987,0 -39.888,17.832 -40,39.794c-0.026,1.673 0,-10.167 0,82.682h-82c-13.233,0 -24,10.767 -24,24v73.218c0,13.233 10.767,24 24,24h236.091c13.233,-0.001 24,-10.767 24,-24.001z" fill="#000000"></path><path d="M456,278h-236.091c-13.233,0 -24,10.767 -24,24v73.219c0,4.418 3.582,8 8,8c4.418,0 8,-3.582 8,-8v-73.219c0,-4.411 3.589,-8 8,-8h236.091c4.411,0 8,3.589 8,8v73.219c0,4.411 -3.589,8 -8,8h-157.465c-3.762,0 -7.016,2.621 -7.816,6.297c-2.776,12.743 -11.479,22.305 -23.289,26.63c3.252,-8.787 3.312,-18.666 -0.288,-27.848c-1.613,-4.113 -6.257,-6.137 -10.369,-4.527c-4.113,1.613 -6.14,6.256 -4.527,10.369c3.668,9.354 0.903,19.936 -6.879,26.333c-5.663,4.654 -2.569,13.889 4.771,14.174c25.521,0.992 46.717,-12.929 54.456,-35.428h53.406v40.781c0,13.233 -10.767,24 -24,24h-188c-13.234,0 -24,-10.767 -24,-24v-150.484c0,-4.418 -3.582,-8 -8,-8c-4.418,0 -8,3.582 -8,8v150.484c0,22.056 17.944,40 40,40h188c22.056,0 40,-17.944 40,-40v-40.781h82c13.233,0 24,-10.767 24,-24v-73.219c0,-13.233 -10.767,-24 -24,-24z" fill="#000000"></path><path d="M231,192c4.418,0 8,-3.582 8,-8c0,-4.418 -3.582,-8 -8,-8h-4.581c-4.418,0 -8,3.582 -8,8c0,4.418 3.582,8 8,8z" fill="#000000"></path><path d="M45,184c0,4.418 3.582,8 8,8h138.193c4.418,0 8,-3.582 8,-8c0,-4.418 -3.582,-8 -8,-8h-138.193c-4.418,0 -8,3.582 -8,8z" fill="#000000"></path><path d="M248.742,346.517h35.612c4.418,0 8,-3.582 8,-8c0,-4.418 -3.582,-8 -8,-8h-35.612c-4.418,0 -8,3.582 -8,8c0,4.418 3.582,8 8,8z" fill="#000000"></path><path d="M426.742,346.517c4.418,0 8,-3.582 8,-8c0,-4.418 -3.582,-8 -8,-8h-103.903c-4.418,0 -8,3.582 -8,8c0,4.418 3.582,8 8,8z" fill="#000000"></path></g></g></svg>