<svg version="1.1" xmlns="http://www.w3.org/2000/svg" xmlns:xlink="http://www.w3.org/1999/xlink" width="100%" height="100%" viewBox="0,0,256,256"><g fill-opacity="0" fill="#dddddd" fill-rule="nonzero" stroke="none" stroke-width="1" stroke-linecap="butt" stroke-linejoin="miter" stroke-miterlimit="10" stroke-dasharray="" stroke-dashoffset="0" font-family="none" font-weight="none" font-size="none" text-anchor="none" style="mix-blend-mode: normal"><path d="M0,256v-256h256v256z" id="bgRectangle"></path></g><g fill="none" fill-rule="nonzero" stroke="none" stroke-width="1" stroke-linecap="butt" stroke-linejoin="miter" stroke-miterlimit="10" stroke-dasharray="" stroke-dashoffset="0" font-family="none" font-weight="none" font-size="none" text-anchor="none" style="mix-blend-mode: normal"><g transform="scale(2.56,2.56)"><path d="M15.5,83h2.5v0.5c0,3.584 2.916,6.5 6.5,6.5h66.25c3.584,0 6.5,-2.916 6.5,-6.5v-52c0,-3.584 -2.916,-6.5 -6.5,-6.5h-0.75v-0.5c0,-3.584 -2.916,-6.5 -6.5,-6.5h-68c-3.584,0 -6.5,2.916 -6.5,6.5v52c0,3.584 2.916,6.5 6.5,6.5z" fill-opacity="0.34902" fill="#000000"></path><path d="M13.5,81h2.5v0.5c0,3.584 2.916,6.5 6.5,6.5h66.25c3.584,0 6.5,-2.916 6.5,-6.5v-52c0,-3.584 -2.916,-6.5 -6.5,-6.5h-0.75v-0.5c0,-3.584 -2.916,-6.5 -6.5,-6.5h-68c-3.584,0 -6.5,2.916 -6.5,6.5v52c0,3.584 2.916,6.5 6.5,6.5z" fill="#f2f2f2"></path><rect x="22.5" y="29" width="65.75" height="52" fill="#d9eeff"></rect><rect x="28" y="35" width="55" height="41" fill="#70bfff"></rect><path d="M39.667,59l-11.667,10.436v6.564h35z" fill="#739f4d"></path><path d="M67.328,46l-29.328,30h45v-16.804z" fill="#96c362"></path><rect x="22.5" y="29.5" width="66.25" height="52" fill="#40396e" opacity="0.35"></rect><circle cx="48.5" cy="44.5" r="4" fill="#ffc571"></circle><rect x="13.5" y="22.5" width="66.5" height="50.5" fill="#d9eeff"></rect><rect x="19" y="28" width="57" height="41" fill="#70bfff"></rect><circle cx="40" cy="36" r="4" fill="#ffc571"></circle><path d="M30.667,52l-11.667,10.436v6.564h35z" fill="#739f4d"></path><path d="M60.328,39l-29.328,30h45v-16.804z" fill="#96c362"></path><path d="M88.75,83h-66.25c-0.829,0 -1.5,-0.672 -1.5,-1.5v-5.5h-7.5c-0.829,0 -1.5,-0.672 -1.5,-1.5v-52c0,-0.829 0.671,-1.5 1.5,-1.5h68c0.828,0 1.5,0.671 1.5,1.5v5.5h5.75c0.828,0 1.5,0.671 1.5,1.5v52c0,0.828 -0.672,1.5 -1.5,1.5zM24,80h63.25v-49h-5.75c-0.828,0 -1.5,-0.671 -1.5,-1.5v-5.5h-65v49h7.5c0.829,0 1.5,0.672 1.5,1.5z" fill="#40396e"></path></g></g></svg>