<svg version="1.1" xmlns="http://www.w3.org/2000/svg" xmlns:xlink="http://www.w3.org/1999/xlink" width="100%" height="100%" viewBox="0,0,256,256"><defs><linearGradient x1="13.08" y1="49.047" x2="13.08" y2="9.612" gradientUnits="userSpaceOnUse" id="color-1"><stop offset="0" stop-color="#b69b94"></stop><stop offset="0.054" stop-color="#b39790"></stop><stop offset="0.368" stop-color="#a5857c"></stop><stop offset="0.683" stop-color="#9c7a70"></stop><stop offset="1" stop-color="#99766c"></stop></linearGradient><linearGradient x1="48.74" y1="40.756" x2="25.188" y2="12.555" gradientUnits="userSpaceOnUse" id="color-2"><stop offset="0" stop-color="#99766c"></stop><stop offset="0.259" stop-color="#90695f"></stop><stop offset="0.628" stop-color="#875e53"></stop><stop offset="1" stop-color="#845a4f"></stop></linearGradient><linearGradient x1="11.136" y1="38.176" x2="1.219" y2="24.816" gradientUnits="userSpaceOnUse" id="color-3"><stop offset="0" stop-color="#535353"></stop><stop offset="0.098" stop-color="#4b4b4b"></stop><stop offset="0.397" stop-color="#373839"></stop><stop offset="0.698" stop-color="#2b2d2e"></stop><stop offset="1" stop-color="#27292a"></stop></linearGradient><linearGradient x1="65.40566" y1="154.06006" x2="-4.25135" y2="114.5011" gradientUnits="userSpaceOnUse" id="color-4"><stop offset="0" stop-color="#535353"></stop><stop offset="0.098" stop-color="#4b4b4b"></stop><stop offset="0.397" stop-color="#373839"></stop><stop offset="0.698" stop-color="#2b2d2e"></stop><stop offset="1" stop-color="#27292a"></stop></linearGradient></defs><g fill-opacity="0" fill="#ffffff" fill-rule="nonzero" stroke="none" stroke-width="1" stroke-linecap="butt" stroke-linejoin="miter" stroke-miterlimit="10" stroke-dasharray="" stroke-dashoffset="0" font-family="none" font-weight="none" font-size="none" text-anchor="none" style="mix-blend-mode: normal"><path d="M0,256v-256h256v256z" id="bgRectangle"></path></g><g fill="none" fill-rule="nonzero" stroke="none" stroke-width="1" stroke-linecap="butt" stroke-linejoin="miter" stroke-miterlimit="10" stroke-dasharray="" stroke-dashoffset="0" font-family="none" font-weight="none" font-size="none" text-anchor="none" style="mix-blend-mode: normal"><g transform="scale(5.33333,5.33333)"><path d="M25.116,43.3l-24.072,-4.3v-31.155l24.072,3.223z" fill="url(#color-1)"></path><path d="M47,37.925l-21.884,5.375v-32.232l21.884,-3.223z" fill="url(#color-2)"></path><path d="M47,7.845l-21.884,3.223l-24.072,-3.223l22.978,-2.145z" fill="#b69b94"></path><path d="M33.793,9.79l-23.626,-2.8l7.964,-0.745l24.749,2.275z" fill="#ede7e4"></path><path d="M42.858,14.584l-9.1,1.893c0.01333,-2.22933 0.026,-4.45833 0.038,-6.687l9.084,-1.27c-0.008,2.02133 -0.01533,4.04267 -0.022,6.064z" fill="#d3c2bd"></path><path d="M5.63,35.618l2.347,0.449c0,-1.522 0,-3.04433 0,-4.567l2.05,0.314c-1.06333,-1.222 -2.12567,-2.44467 -3.187,-3.668l-3,2.721l1.791,0.274z" fill="url(#color-3)"></path><path d="M3.461,35.928v1.618l6.955,1.343l0.069,-1.618z" fill="url(#color-4)"></path></g></g></svg>