<svg version="1.1" xmlns="http://www.w3.org/2000/svg" xmlns:xlink="http://www.w3.org/1999/xlink" width="100%" height="100%" viewBox="0,0,256,256"><g fill-opacity="0" fill="#dddddd" fill-rule="nonzero" stroke="none" stroke-width="1" stroke-linecap="butt" stroke-linejoin="miter" stroke-miterlimit="10" stroke-dasharray="" stroke-dashoffset="0" font-family="none" font-weight="none" font-size="none" text-anchor="none" style="mix-blend-mode: normal"><path d="M0,256v-256h256v256z" id="bgRectangle"></path></g><g fill="none" fill-rule="nonzero" stroke="none" stroke-width="1" stroke-linecap="butt" stroke-linejoin="miter" stroke-miterlimit="10" stroke-dasharray="" stroke-dashoffset="0" font-family="none" font-weight="none" font-size="none" text-anchor="none" style="mix-blend-mode: normal"><g transform="scale(4,4)"><path d="M53,23h-34c-1.10457,0 -2,-0.89543 -2,-2v-14h-1c-0.55228,0 -1,-0.44772 -1,-1v-2c0,-0.55228 0.44772,-1 1,-1h40c0.55228,0 1,0.44772 1,1v2c0,0.55228 -0.44772,1 -1,1h-1v14c0,1.10457 -0.89543,2 -2,2z" fill="#cfc5b7"></path><rect x="31" y="11" width="10" height="4" rx="2" ry="2" fill="#080001"></rect><path d="M17,7h38v4h-38z" fill="#76928a"></path><rect x="15" y="3" width="42" height="4" rx="2" ry="2" fill="#5a2c04"></rect><path d="M59,49h-34c-1.10457,0 -2,-0.89543 -2,-2v-20h-1c-0.55228,0 -1,-0.44772 -1,-1v-2c0,-0.55228 0.44772,-1 1,-1h40c0.55228,0 1,0.44772 1,1v2c0,0.55228 -0.44772,1 -1,1h-1v20c0,1.10457 -0.89543,2 -2,2z" fill="#cfc5b7"></path><rect x="14" y="49" width="49" height="8" rx="2" ry="2" fill="#263b6d"></rect><path d="M17,49h11v8h-11c-1.65685,0 -3,-1.34315 -3,-3v-2c0,-1.65685 1.34315,-3 3,-3z" fill="#7c828e"></path><path transform="translate(112,106) rotate(180)" d="M52,49h11v8h-11c-1.65685,0 -3,-1.34315 -3,-3v-2c0,-1.65685 1.34315,-3 3,-3z" fill="#7d96c6"></path><path d="M23,55c-2.20914,0 -4,1.79086 -4,4c0,2.20914 1.79086,4 4,4c2.20914,0 4,-1.79086 4,-4c0,-2.20914 -1.79086,-4 -4,-4zM55,55c-2.20914,0 -4,1.79086 -4,4c0,2.20914 1.79086,4 4,4c2.20914,0 4,-1.79086 4,-4c0,-2.20914 -1.79086,-4 -4,-4z" fill="#ed7899"></path><path d="M23,57c-1.10457,0 -2,0.89543 -2,2c0,1.10457 0.89543,2 2,2c1.10457,0 2,-0.89543 2,-2c0,-1.10457 -0.89543,-2 -2,-2zM55,57c-1.10457,0 -2,0.89543 -2,2c0,1.10457 0.89543,2 2,2c1.10457,0 2,-0.89543 2,-2c0,-1.10457 -0.89543,-2 -2,-2z" fill="#f283a5"></path><path d="M27,44h30c2.20914,0 4,1.79086 4,4v1h-38v-1c0,-2.20914 1.79086,-4 4,-4z" fill="#76928a"></path><rect x="21" y="23" width="42" height="4" rx="2" ry="2" fill="#5a2c04"></rect><rect x="37" y="31" width="10" height="4" rx="2" ry="2" fill="#080001"></rect><path d="M23,27h38v4h-38z" fill="#76928a"></path><path d="M3,7c-1.10457,0 -2,0.89543 -2,2c0,1.10457 0.89543,2 2,2c1.10457,0 2,-0.89543 2,-2c0,-1.10457 -0.89543,-2 -2,-2z" fill="#ed7899"></path><path d="M62,28c1.10457,0 2,-0.89543 2,-2v-2c0,-1.10457 -0.89543,-2 -2,-2h-6.18c0.11642,-0.32067 0.1773,-0.65886 0.18,-1v-13c1.10457,0 2,-0.89543 2,-2v-2c0,-1.10457 -0.89543,-2 -2,-2h-40c-1.10457,0 -2,0.89543 -2,2v2c0,1.10457 0.89543,2 2,2v13c0,1.65685 1.34315,3 3,3h1v2c0,1.10457 0.89543,2 2,2v19c0.0027,0.34114 0.06358,0.67933 0.18,1h-6.18c-1.12746,0.00151 -2.15888,0.63504 -2.67,1.64c-0.43676,-0.69266 -0.69449,-1.48302 -0.75,-2.3l-2.21,-32.81c-0.17794,-2.68237 -1.8763,-5.02587 -4.37,-6.03c-0.24296,-1.4375 -1.48419,-2.49223 -2.94206,-2.50001c-1.45787,-0.00777 -2.71027,1.03367 -2.96854,2.4685c-0.25827,1.43483 0.55238,2.84762 1.92145,3.3487c1.36907,0.50108 2.90018,-0.05464 3.62915,-1.31719c1.60465,0.78552 2.66823,2.36755 2.79,4.15l2.2,32.81c0.11504,1.86143 0.96812,3.6 2.37,4.83v2.71c0,1.65685 1.34315,3 3,3h2.1c-0.06883,0.32882 -0.10235,0.66406 -0.1,1c0,2.76142 2.23858,5 5,5c2.76142,0 5,-2.23858 5,-5c0.00235,-0.33594 -0.03117,-0.67118 -0.1,-1h22.2c-0.06883,0.32882 -0.10235,0.66406 -0.1,1c0,2.76142 2.23858,5 5,5c2.76142,0 5,-2.23858 5,-5c0.00235,-0.33594 -0.03117,-0.67118 -0.1,-1h1.1c1.65685,0 3,-1.34315 3,-3v-4c-0.00758,-1.35019 -0.91621,-2.52897 -2.22,-2.88c0.14433,-0.35581 0.21902,-0.73603 0.22,-1.12zM3,10c-0.55228,0 -1,-0.44772 -1,-1c0,-0.55228 0.44772,-1 1,-1c0.55228,0 1,0.44772 1,1c0,0.55228 -0.44772,1 -1,1zM19,22c-0.55228,0 -1,-0.44772 -1,-1v-13h23c0.55228,0 1,-0.44772 1,-1c0,-0.55228 -0.44772,-1 -1,-1h-25v-2h40v2h-3c-0.55228,0 -1,0.44772 -1,1c0,0.55228 0.44772,1 1,1h1v13c0,0.55228 -0.44772,1 -1,1zM24,47v-19h23c0.55228,0 1,-0.44772 1,-1c0,-0.55228 -0.44772,-1 -1,-1h-25v-2h40v2h-2v21c0,0.55228 -0.44772,1 -1,1h-34c-0.55228,0 -1,-0.44772 -1,-1zM26,59c0,1.65685 -1.34315,3 -3,3c-1.65685,0 -3,-1.34315 -3,-3c-0.00217,-0.34158 0.05885,-0.68062 0.18,-1c0.43063,-1.18645 1.55782,-1.97648 2.82,-1.97648c1.26218,0 2.38937,0.79002 2.82,1.97648c0.12115,0.31938 0.18217,0.65842 0.18,1zM58,59c0,1.65685 -1.34315,3 -3,3c-1.65685,0 -3,-1.34315 -3,-3c-0.00217,-0.34158 0.05885,-0.68062 0.18,-1c0.43063,-1.18645 1.55782,-1.97648 2.82,-1.97648c1.26218,0 2.38937,0.79002 2.82,1.97648c0.12115,0.31938 0.18217,0.65842 0.18,1zM62,55c0,0.55228 -0.44772,1 -1,1h-2c-0.94427,-1.25903 -2.42621,-2 -4,-2c-1.57379,0 -3.05573,0.74097 -4,2h-24c-0.94427,-1.25903 -2.42621,-2 -4,-2c-1.57379,0 -3.05573,0.74097 -4,2h-3c-0.55228,0 -1,-0.44772 -1,-1v-4c0,-0.55228 0.44772,-1 1,-1h45c0.55228,0 1,0.44772 1,1z" fill="#000000"></path><path d="M32,42c-0.55228,0 -1,0.44772 -1,1v2c0,0.55228 0.44772,1 1,1c0.55228,0 1,-0.44772 1,-1v-2c0,-0.55228 -0.44772,-1 -1,-1zM27,42c-0.55228,0 -1,0.44772 -1,1v2c0,0.55228 0.44772,1 1,1c0.55228,0 1,-0.44772 1,-1v-2c0,-0.55228 -0.44772,-1 -1,-1zM37,42c-0.55228,0 -1,0.44772 -1,1v2c0,0.55228 0.44772,1 1,1c0.55228,0 1,-0.44772 1,-1v-2c0,-0.55228 -0.44772,-1 -1,-1zM42,42c-0.55228,0 -1,0.44772 -1,1v2c0,0.55228 0.44772,1 1,1c0.55228,0 1,-0.44772 1,-1v-2c0,-0.55228 -0.44772,-1 -1,-1zM47,42c-0.55228,0 -1,0.44772 -1,1v2c0,0.55228 0.44772,1 1,1c0.55228,0 1,-0.44772 1,-1v-2c0,-0.55228 -0.44772,-1 -1,-1zM52,42c-0.55228,0 -1,0.44772 -1,1v2c0,0.55228 0.44772,1 1,1c0.55228,0 1,-0.44772 1,-1v-2c0,-0.55228 -0.44772,-1 -1,-1zM57,42c-0.55228,0 -1,0.44772 -1,1v2c0,0.55228 0.44772,1 1,1c0.55228,0 1,-0.44772 1,-1v-2c0,-0.55228 -0.44772,-1 -1,-1zM55,26h-4c-0.55228,0 -1,0.44772 -1,1c0,0.55228 0.44772,1 1,1h4c0.55228,0 1,-0.44772 1,-1c0,-0.55228 -0.44772,-1 -1,-1zM45,30h-6c-1.65685,0 -3,1.34315 -3,3c0,1.65685 1.34315,3 3,3h6c1.65685,0 3,-1.34315 3,-3c0,-1.65685 -1.34315,-3 -3,-3zM45,34h-6c-0.55228,0 -1,-0.44772 -1,-1c0,-0.55228 0.44772,-1 1,-1h6c0.55228,0 1,0.44772 1,1c0,0.55228 -0.44772,1 -1,1zM45,8h4c0.55228,0 1,-0.44772 1,-1c0,-0.55228 -0.44772,-1 -1,-1h-4c-0.55228,0 -1,0.44772 -1,1c0,0.55228 0.44772,1 1,1zM33,16h6c1.65685,0 3,-1.34315 3,-3c0,-1.65685 -1.34315,-3 -3,-3h-6c-1.65685,0 -3,1.34315 -3,3c0,1.65685 1.34315,3 3,3zM33,12h6c0.55228,0 1,0.44772 1,1c0,0.55228 -0.44772,1 -1,1h-6c-0.55228,0 -1,-0.44772 -1,-1c0,-0.55228 0.44772,-1 1,-1z" fill="#000000"></path></g></g></svg>