<svg version="1.1" xmlns="http://www.w3.org/2000/svg" xmlns:xlink="http://www.w3.org/1999/xlink" width="100%" height="100%" viewBox="0,0,256,256"><g fill-opacity="0" fill="#dddddd" fill-rule="nonzero" stroke="none" stroke-width="1" stroke-linecap="butt" stroke-linejoin="miter" stroke-miterlimit="10" stroke-dasharray="" stroke-dashoffset="0" font-family="none" font-weight="none" font-size="none" text-anchor="none" style="mix-blend-mode: normal"><path d="M0,256v-256h256v256z" id="bgRectangle"></path></g><g fill="none" fill-rule="nonzero" stroke="none" stroke-width="1" stroke-linecap="butt" stroke-linejoin="miter" stroke-miterlimit="10" stroke-dasharray="" stroke-dashoffset="0" font-family="none" font-weight="none" font-size="none" text-anchor="none" style="mix-blend-mode: normal"><g transform="scale(4,4)"><path d="M1,32c0,-17.1 13.9,-31 31,-31c17.1,0 31,13.9 31,31c0,17.1 -13.9,31 -31,31c-17.1,0 -31,-13.9 -31,-31z" fill="#00d300"></path><path d="M43.1,51.4c-0.7,0 -1.3,-0.1 -1.9,-0.4c-3.6,-1.6 -10.6,-5.1 -16.8,-11.3c-6.2,-6.2 -9.8,-13.3 -11.4,-16.9c-0.8,-1.8 -0.4,-3.9 1.1,-5.4l3.8,-3.8c0.5,-0.5 1.1,-0.9 1.8,-1c1,-0.2 2,0.2 2.7,0.9l4.9,4.9c1.3,1.3 1.3,3.4 0,4.8l-3.9,3.9c-0.4,0.4 -0.5,1 -0.3,1.5c0.7,1.5 2.3,4.6 5,7.3c2.7,2.7 5.8,4.3 7.3,5c0.5,0.2 1.1,0.1 1.5,-0.3l4,-4c0.5,-0.5 1,-0.8 1.7,-0.9c1,-0.2 2,0.1 2.8,0.9l5.1,5.1c1.2,1.2 1.2,3.2 0,4.4l-3.9,3.9c-0.9,0.9 -2.2,1.4 -3.5,1.4z" fill="#dce1e0"></path></g></g></svg>