<svg version="1.1" xmlns="http://www.w3.org/2000/svg" xmlns:xlink="http://www.w3.org/1999/xlink" width="100%" height="100%" viewBox="0,0,256,256"><g fill-opacity="0" fill="#dddddd" fill-rule="nonzero" stroke="none" stroke-width="1" stroke-linecap="butt" stroke-linejoin="miter" stroke-miterlimit="10" stroke-dasharray="" stroke-dashoffset="0" font-family="none" font-weight="none" font-size="none" text-anchor="none" style="mix-blend-mode: normal"><path d="M0,256v-256h256v256z" id="bgRectangle"></path></g><g fill="#045955" fill-rule="nonzero" stroke="none" stroke-width="1" stroke-linecap="butt" stroke-linejoin="miter" stroke-miterlimit="10" stroke-dasharray="" stroke-dashoffset="0" font-family="none" font-weight="none" font-size="none" text-anchor="none" style="mix-blend-mode: normal"><g transform="scale(3.55556,3.55556)"><path d="M51.457,11c3.614,0 6.543,2.929 6.543,6.543v36.915c0,3.613 -2.929,6.542 -6.543,6.542h-30.914c-3.614,0 -6.543,-2.929 -6.543,-6.543v-36.914c0,-3.614 2.929,-6.543 6.543,-6.543zM34,18v2c0,0.552 0.448,1 1,1h2c0.552,0 1,-0.448 1,-1v-2c0,-0.552 -0.448,-1 -1,-1h-2c-0.552,0 -1,0.448 -1,1zM24,54v-2c0,-0.552 -0.448,-1 -1,-1h-2c-0.552,0 -1,0.448 -1,1v2c0,0.552 0.448,1 1,1h2c0.552,0 1,-0.448 1,-1zM24,20v-2c0,-0.552 -0.448,-1 -1,-1h-2c-0.552,0 -1,0.448 -1,1v2c0,0.552 0.448,1 1,1h2c0.552,0 1,-0.448 1,-1zM31,54v-2c0,-0.552 -0.448,-1 -1,-1h-2c-0.552,0 -1,0.448 -1,1v2c0,0.552 0.448,1 1,1h2c0.552,0 1,-0.448 1,-1zM31,20v-2c0,-0.552 -0.448,-1 -1,-1h-2c-0.552,0 -1,0.448 -1,1v2c0,0.552 0.448,1 1,1h2c0.552,0 1,-0.448 1,-1zM31.191,41.359c0,0.932 1.058,1.469 1.81,0.92l7.333,-5.355c0.623,-0.455 0.623,-1.384 0,-1.839l-7.333,-5.355c-0.752,-0.549 -1.81,-0.012 -1.81,0.92zM38,54v-2c0,-0.552 -0.448,-1 -1,-1h-2c-0.552,0 -1,0.448 -1,1v2c0,0.552 0.448,1 1,1h2c0.552,0 1,-0.448 1,-1zM45,54v-2c0,-0.552 -0.448,-1 -1,-1h-2c-0.552,0 -1,0.448 -1,1v2c0,0.552 0.448,1 1,1h2c0.552,0 1,-0.448 1,-1zM45,20v-2c0,-0.552 -0.448,-1 -1,-1h-2c-0.552,0 -1,0.448 -1,1v2c0,0.552 0.448,1 1,1h2c0.552,0 1,-0.448 1,-1zM52,54v-2c0,-0.552 -0.448,-1 -1,-1h-2c-0.552,0 -1,0.448 -1,1v2c0,0.552 0.448,1 1,1h2c0.552,0 1,-0.448 1,-1zM52,20v-2c0,-0.552 -0.448,-1 -1,-1h-2c-0.552,0 -1,0.448 -1,1v2c0,0.552 0.448,1 1,1h2c0.552,0 1,-0.448 1,-1z"></path></g></g></svg>