<svg version="1.1" xmlns="http://www.w3.org/2000/svg" xmlns:xlink="http://www.w3.org/1999/xlink" width="100%" height="100%" viewBox="0,0,256,256"><g fill="none" fill-rule="nonzero" stroke="none" stroke-width="1" stroke-linecap="butt" stroke-linejoin="miter" stroke-miterlimit="10" stroke-dasharray="" stroke-dashoffset="0" font-family="none" font-weight="none" font-size="none" text-anchor="none" style="mix-blend-mode: normal"><g transform="scale(2.56,2.56)"><path d="M20.317,55.103c-0.48932,0 -0.886,0.39668 -0.886,0.886c0,0.48932 0.39668,0.886 0.886,0.886c0.48932,0 0.886,-0.39668 0.886,-0.886c0,-0.48932 -0.39668,-0.886 -0.886,-0.886zM79.368,30.434c-0.37776,0 -0.684,0.30624 -0.684,0.684c0,0.37776 0.30624,0.684 0.684,0.684c0.37776,0 0.684,-0.30624 0.684,-0.684c0,-0.37776 -0.30624,-0.684 -0.684,-0.684z" fill="#ffffff"></path><path d="M76.738,11.199c-0.48932,0 -0.886,0.39668 -0.886,0.886c0,0.48932 0.39668,0.886 0.886,0.886c0.48932,0 0.886,-0.39668 0.886,-0.886c0,-0.48932 -0.39668,-0.886 -0.886,-0.886zM20.813,62.777c-0.48932,0 -0.886,0.39668 -0.886,0.886c0,0.48932 0.39668,0.886 0.886,0.886c0.48932,0 0.886,-0.39668 0.886,-0.886c0,-0.48932 -0.39668,-0.886 -0.886,-0.886z" fill="#f1bc19"></path><path d="M49.633,11.87c-20.6803,0 -37.445,16.7647 -37.445,37.445c0,20.6803 16.7647,37.445 37.445,37.445c20.6803,0 37.445,-16.7647 37.445,-37.445c0,-20.6803 -16.7647,-37.445 -37.445,-37.445z" fill="#000000"></path><path d="M82.179,10.233c-2.213,0 -4.007,1.794 -4.007,4.007c0,2.213 1.794,4.007 4.007,4.007c2.213,0 4.007,-1.794 4.007,-4.007c0,-2.213 -1.794,-4.007 -4.007,-4.007z" fill="#f1bc19"></path><path d="M86.186,21.426c-1.0405,0 -1.884,0.8435 -1.884,1.884c0,1.0405 0.8435,1.884 1.884,1.884c1.0405,0 1.884,-0.8435 1.884,-1.884c0,-1.0405 -0.8435,-1.884 -1.884,-1.884z" fill="#77cbd2"></path><path d="M77.201,73.841c-1.0405,0 -1.884,0.8435 -1.884,1.884c0,1.0405 0.8435,1.884 1.884,1.884c1.0405,0 1.884,-0.8435 1.884,-1.884c0,-1.0405 -0.8435,-1.884 -1.884,-1.884zM14.04,58.77c-2.213,0 -4.007,1.794 -4.007,4.007c0,2.213 1.794,4.007 4.007,4.007c2.213,0 4.007,-1.794 4.007,-4.007c0,-2.213 -1.794,-4.007 -4.007,-4.007z" fill="#fbcd59"></path><path d="M24.278,85.028c-1.0405,0 -1.884,0.8435 -1.884,1.884c0,1.0405 0.8435,1.884 1.884,1.884c1.0405,0 1.884,-0.8435 1.884,-1.884c0,-1.0405 -0.8435,-1.884 -1.884,-1.884z" fill="#77cbd2"></path><path d="M75.853,27.809c-0.9919,0 -1.796,0.8041 -1.796,1.796c0,0.9919 0.8041,1.796 1.796,1.796c0.9919,0 1.796,-0.8041 1.796,-1.796c0,-0.9919 -0.8041,-1.796 -1.796,-1.796zM17.781,48.127c-1.40336,0 -2.541,1.13764 -2.541,2.541c0,1.40336 1.13764,2.541 2.541,2.541c1.40336,0 2.541,-1.13764 2.541,-2.541c0,-1.40336 -1.13764,-2.541 -2.541,-2.541z" fill="#ffffff"></path><path d="M68.121,70.526c-0.405,-2.146 -1.28,-3.403 -3.342,-4.026c-0.09,-0.027 -0.21,-0.071 -0.345,-0.123c-0.156,-0.068 -0.354,-0.148 -0.586,-0.238c-1.249,-0.528 -8.673,-3.267 -8.673,-3.267c-0.612,-0.155 -1.01,-0.591 -1.24,-1.082c-0.38,-0.811 -0.233,-2.914 -0.233,-2.914c0,0 -3.104,1.062 -5.041,1.424c-1.9,0.185 -5.983,-2.272 -5.983,-2.272c0,0 -0.096,3.037 -0.225,3.712c-0.102,0.53 -0.672,0.978 -1.284,1.133l-7.124,2.583c-0.788,0.206 -1.544,0.5 -2.209,0.911c-1.793,1.107 -2.701,2.769 -3.163,4.16c0,0 -0.469,3.316 -0.45,3.435c-0.044,0.464 -0.09,0.975 -0.137,1.512c7.764,5.257 14,6.73 24.699,6.262c4.861,-0.213 12.099,-2.613 15.891,-4.527c-0.201,-4.225 -0.555,-6.683 -0.555,-6.683z" fill="#fabf82"></path><path d="M64.779,66.541c-0.09,-0.027 -0.21,-0.071 -0.345,-0.123c-0.156,-0.068 -0.354,-0.148 -0.586,-0.238c-0.773,-0.327 -3.905,-1.498 -6.184,-2.345l-0.107,-0.028c-2.516,1.29 -6.096,3.226 -9.384,3.226c-3.288,0 -6.585,-1.75 -9.384,-3.226l-0.314,0.083l-4.431,1.607c-0.788,0.206 -1.544,0.5 -2.209,0.911c-1.793,1.107 -2.701,2.769 -3.163,4.16c0,0 -0.469,3.316 -0.45,3.435c-0.044,0.464 -0.09,5.444 -0.137,5.981c7.764,5.257 14,6.73 24.699,6.262c4.861,-0.213 12.099,-2.613 15.891,-4.527c-0.201,-4.224 -0.554,-11.151 -0.554,-11.151c-0.405,-2.147 -1.28,-3.404 -3.342,-4.027z" fill="#75eeff"></path><path d="M37.536,46.355c-0.158,-0.347 -3.837,-8.559 -1.042,-14.143c1.158,-2.313 3.257,-3.827 6.241,-4.502c1.718,-1.185 3.779,-1.836 5.816,-1.836c1.709,0 3.368,0.442 4.932,1.314c0.831,0.463 1.504,0.854 2.066,1.182c1.781,1.036 2.381,1.385 3.44,1.385c0.117,0 0.24,-0.004 0.371,-0.012l0.13,-0.008c0.15,-0.01 0.299,-0.02 0.438,-0.02c0.927,0 1.186,0.492 1.24,0.905c0.139,1.044 -0.228,1.944 -0.551,2.739c-0.291,0.716 -0.543,1.333 -0.372,1.893c1.838,6.036 -1.012,10.943 -1.134,11.149l-0.94,1.587l0.011,-1.845c0,-0.05 0.015,-4.724 -1.095,-7.715c-1.42,0.793 -3.144,1.21 -5.026,1.21c-3.247,0 -6.837,-1.185 -10.402,-3.43c-3.167,2.487 -3.168,9.858 -3.168,9.935l0.012,2.332z" fill="#f8f542"></path><path d="M48.551,26.375c1.512,0 3.109,0.37 4.69,1.251c3.534,1.971 4.191,2.63 5.751,2.63c0.126,0 0.259,-0.004 0.399,-0.013c0.184,-0.011 0.369,-0.026 0.539,-0.026c0.384,0 0.692,0.079 0.744,0.47c0.245,1.842 -1.346,3.266 -0.906,4.711c1.795,5.895 -1.085,10.75 -1.085,10.75c0,0 0.035,-5.381 -1.354,-8.449c-1.433,0.946 -3.231,1.44 -5.267,1.44c-3.077,0 -6.698,-1.13 -10.42,-3.534c-3.694,2.458 -3.65,10.543 -3.65,10.543c0,0 -6.996,-15.36 4.949,-17.971c1.517,-1.069 3.48,-1.802 5.61,-1.802M48.551,25.375c-2.106,0 -4.235,0.663 -6.02,1.87c-3.087,0.72 -5.268,2.315 -6.484,4.744c-2.901,5.796 0.872,14.219 1.034,14.575l1.93,4.238l-0.02,-4.657c-0.009,-1.965 0.479,-7.201 2.716,-9.315c3.542,2.169 7.109,3.311 10.354,3.311c1.74,0 3.355,-0.343 4.739,-0.999c0.894,2.891 0.881,6.956 0.881,7.002l-0.022,3.688l1.882,-3.172c0.127,-0.214 3.083,-5.306 1.181,-11.551c-0.118,-0.389 0.102,-0.931 0.357,-1.558c0.33,-0.81 0.74,-1.818 0.583,-2.994c-0.042,-0.314 -0.29,-1.339 -1.735,-1.339c-0.15,0 -0.31,0.01 -0.471,0.02l-0.127,0.008c-0.12,0.007 -0.233,0.011 -0.34,0.011c-0.891,0 -1.358,-0.252 -3.192,-1.318c-0.564,-0.328 -1.239,-0.72 -2.072,-1.185c-1.637,-0.915 -3.378,-1.379 -5.174,-1.379z" fill="#472b29"></path><path d="M34.903,84.213c-0.166,0 -0.3,-0.134 -0.3,-0.3v-3.949c0,-0.166 0.134,-0.3 0.3,-0.3c0.166,0 0.3,0.134 0.3,0.3v3.949c0,0.166 -0.134,0.3 -0.3,0.3zM61.231,84.908c-0.166,0 -0.3,-0.134 -0.3,-0.3v-4.645c0,-0.166 0.134,-0.3 0.3,-0.3c0.166,0 0.3,0.134 0.3,0.3v4.645c0,0.166 -0.134,0.3 -0.3,0.3z" fill="#000000"></path><path d="M60.418,44c-0.117,-0.008 -0.236,-0.009 -0.36,-0.009c-0.965,-0.047 -0.883,0.317 -0.839,-0.28c0.078,-1.06 -0.427,-5.34 -0.427,-5.557c0,-4.456 -4.653,-8.091 -10.466,-8.292v-0.013c-0.039,0.001 -0.077,0.006 -0.117,0.007c-0.039,-0.001 -0.077,-0.006 -0.117,-0.007v0.013c-5.814,0.202 -10.466,3.836 -10.466,8.292c0,0.217 -0.148,4.517 -0.07,5.578c0.044,0.597 -0.231,0.212 -1.196,0.259c-0.124,0 -0.243,0.001 -0.36,0.009c-1.058,0.071 -1.914,0.744 -2.097,1.578c0.13,0.079 0.611,3.731 1.391,5.17c0.436,0.803 1.116,0.915 1.815,1.434c0.387,0.287 0.462,0.612 0.568,1.041c0.392,1.59 1.481,2.942 2.674,4.096c0.589,0.57 4.499,4.738 7.858,4.527c3.375,-0.127 7.269,-3.957 7.858,-4.527c1.193,-1.154 2.282,-2.506 2.674,-4.096c0.106,-0.43 0.18,-0.754 0.568,-1.041c0.699,-0.519 1.379,-0.63 1.815,-1.434c0.78,-1.439 1.262,-5.091 1.391,-5.17c-0.183,-0.834 -1.039,-1.508 -2.097,-1.578z" fill="#ffd7b3"></path><path d="M48.269,51.059c0.683,0 1.345,-0.298 1.771,-0.797c0.043,-0.05 0.037,-0.126 -0.013,-0.169v0c-0.05,-0.043 -0.125,-0.038 -0.169,0.012c-0.347,0.397 -0.927,0.625 -1.589,0.625c-0.663,0 -1.242,-0.228 -1.589,-0.625c-0.024,-0.027 -0.057,-0.041 -0.091,-0.041c-0.028,0 -0.056,0.01 -0.078,0.029c-0.05,0.043 -0.056,0.119 -0.013,0.169c0.426,0.499 1.088,0.797 1.771,0.797zM46.091,41.833l0.433,-0.832c-1.832,-0.429 -3.941,-0.361 -5.682,0.179l0.546,0.811c1.431,-0.472 3.191,-0.532 4.703,-0.158zM55.262,41.833l0.433,-0.832c-1.832,-0.429 -3.941,-0.361 -5.682,0.179l0.546,0.811c1.432,-0.472 3.192,-0.532 4.703,-0.158zM43.454,43.007c-0.44,0 -0.826,0.291 -1.049,0.731c0.056,-0.017 0.113,-0.029 0.174,-0.029c0.361,0 0.653,0.327 0.653,0.729c0,0.403 -0.293,0.729 -0.653,0.729c-0.118,0 -0.227,-0.038 -0.323,-0.099c0.154,0.661 0.632,1.142 1.199,1.142c0.691,0 1.252,-0.717 1.252,-1.602c-0.001,-0.883 -0.562,-1.601 -1.253,-1.601zM53.031,43.007c-0.376,0 -0.712,0.213 -0.941,0.548c0.072,-0.03 0.149,-0.049 0.23,-0.049c0.361,0 0.653,0.327 0.653,0.729c0,0.403 -0.293,0.729 -0.653,0.729c-0.224,0 -0.421,-0.126 -0.539,-0.318c0.016,0.867 0.569,1.563 1.25,1.563c0.691,0 1.252,-0.717 1.252,-1.602c-0.001,-0.882 -0.561,-1.6 -1.252,-1.6zM53.562,52.915c0.051,-0.042 0.059,-0.117 0.018,-0.168v0c-0.041,-0.051 -0.117,-0.06 -0.169,-0.018c-1.128,0.899 -3.002,1.415 -5.141,1.415c-2.139,0 -4.013,-0.516 -5.142,-1.416c-0.022,-0.018 -0.048,-0.026 -0.075,-0.026c-0.035,0 -0.07,0.015 -0.094,0.045c-0.041,0.051 -0.034,0.127 0.017,0.169c1.274,1.041 3.253,1.663 5.293,1.663c2.04,-0.001 4.018,-0.622 5.293,-1.664zM49.666,58.185c0.062,0 0.114,-0.072 0.114,-0.157c0,-0.085 -0.052,-0.157 -0.114,-0.157h-2.571c-0.062,0 -0.114,0.072 -0.114,0.157c0,0.085 0.052,0.157 0.114,0.157z" fill="#512c2b"></path><path d="M49.324,86.962c-8.907,0 -14.656,-1.781 -21.52,-6.428c-0.15,-0.102 -0.233,-0.276 -0.218,-0.457c0.009,-0.107 0.014,-0.471 0.021,-0.999c0.032,-2.184 0.1,-6.727 0.581,-8.505c0.654,-2.417 1.612,-3.362 3.383,-4.455c0.664,-0.409 1.452,-0.734 2.345,-0.968l7.08,-2.569c0.504,-0.131 0.906,-0.457 0.964,-0.757c0.048,-0.251 0.103,-0.986 0.152,-2.039c-1.03,-0.729 -1.87,-1.385 -2.112,-1.622c-1.561,-1.526 -2.454,-2.918 -2.81,-4.381c-0.11,-0.447 -0.157,-0.603 -0.383,-0.772c-0.207,-0.154 -0.413,-0.27 -0.61,-0.381c-0.482,-0.272 -0.981,-0.554 -1.345,-1.231c-0.839,-1.563 -1.451,-4.521 -1.451,-5.465c0,-0.035 0.004,-0.071 0.012,-0.105c0.234,-1.086 1.284,-1.903 2.552,-1.989c0.128,-0.009 0.258,-0.01 0.394,-0.01c0.269,-0.013 0.502,0.007 0.685,0.03c-0.036,-1.205 0.035,-3.761 0.067,-4.915c0.008,-0.287 0.014,-0.477 0.014,-0.518c0,-4.739 4.752,-8.624 10.839,-8.882c0.041,-0.012 0.084,-0.018 0.128,-0.018c0.013,0 0.099,0.004 0.111,0.005l0.122,-0.005c0.046,0 0.09,0.006 0.131,0.018c6.086,0.259 10.836,4.144 10.836,8.882c0.003,0.067 0.035,0.354 0.08,0.76c0.196,1.801 0.401,3.787 0.346,4.562l-0.006,0.063c0.073,0.004 0.154,0.008 0.235,0.012l0.135,0.007c0.113,-0.002 0.241,0.001 0.369,0.009c1.268,0.086 2.317,0.903 2.552,1.989c0.008,0.034 0.012,0.07 0.012,0.105c0,1.09 -0.65,3.972 -1.451,5.465c-0.363,0.678 -0.862,0.959 -1.345,1.231c-0.197,0.111 -0.403,0.227 -0.61,0.382c-0.226,0.169 -0.272,0.324 -0.377,0.748c-0.361,1.486 -1.255,2.878 -2.815,4.404c-0.258,0.251 -1.16,0.986 -2.242,1.768c-0.003,0.869 0.073,1.526 0.213,1.825c0.142,0.3 0.414,0.685 0.911,0.811c0.354,0.127 7.499,2.764 8.745,3.292c0.225,0.086 0.428,0.169 0.589,0.238c0.103,0.039 0.212,0.079 0.293,0.104c2.121,0.64 3.225,1.959 3.688,4.411c0.004,0.022 0.007,0.045 0.008,0.067c0,0 0.354,6.928 0.555,11.152c0.01,0.196 -0.098,0.381 -0.273,0.47c-4.044,2.041 -11.347,4.373 -16.096,4.581c-1.217,0.053 -2.375,0.08 -3.484,0.08zM28.595,79.86c7.41,4.965 13.553,6.489 24.168,6.021c4.505,-0.197 11.396,-2.371 15.398,-4.33c-0.195,-4.064 -0.512,-10.272 -0.538,-10.788c-0.396,-2.065 -1.236,-3.078 -2.988,-3.606c-0.1,-0.03 -0.23,-0.078 -0.379,-0.135c-0.172,-0.073 -0.363,-0.15 -0.589,-0.237c-1.238,-0.525 -8.591,-3.238 -8.665,-3.266c-0.634,-0.157 -1.19,-0.639 -1.52,-1.338c-0.227,-0.482 -0.329,-1.33 -0.306,-2.52c0.003,-0.158 0.081,-0.306 0.21,-0.397c1.211,-0.862 2.129,-1.62 2.331,-1.817c1.42,-1.389 2.227,-2.629 2.537,-3.901c0.116,-0.477 0.23,-0.942 0.754,-1.335c0.244,-0.184 0.486,-0.321 0.718,-0.453c0.424,-0.238 0.729,-0.411 0.956,-0.833c0.754,-1.405 1.309,-4.022 1.331,-4.937c-0.163,-0.618 -0.839,-1.1 -1.629,-1.152c-0.106,-0.007 -0.215,-0.008 -0.327,-0.008l-0.158,-0.007c-0.549,-0.026 -0.823,-0.04 -1.037,-0.283c-0.196,-0.225 -0.174,-0.484 -0.152,-0.735l0.01,-0.128c0.055,-0.749 -0.213,-3.202 -0.342,-4.38c-0.053,-0.478 -0.086,-0.809 -0.086,-0.869c0,-4.226 -4.386,-7.69 -9.984,-7.887c-0.025,-0.001 -0.05,-0.004 -0.074,-0.009c-0.028,0.001 -0.046,0.003 -0.051,0.002v-0.002c-0.023,0.005 -0.048,0.008 -0.073,0.009c-5.599,0.196 -9.984,3.661 -9.984,7.887c0,0.043 -0.006,0.243 -0.014,0.545c-0.032,1.154 -0.118,4.219 -0.057,5.06c0.011,0.158 0.034,0.487 -0.21,0.712c-0.237,0.217 -0.529,0.17 -0.762,0.133c-0.177,-0.028 -0.395,-0.06 -0.699,-0.048c-0.137,0.001 -0.245,0.002 -0.352,0.009c-0.79,0.053 -1.466,0.534 -1.629,1.152c0.024,0.907 0.617,3.605 1.331,4.937c0.227,0.422 0.532,0.595 0.956,0.833c0.231,0.132 0.474,0.27 0.718,0.452c0.523,0.394 0.638,0.859 0.748,1.311c0.316,1.298 1.123,2.538 2.544,3.928c0.197,0.192 1.075,0.883 2.211,1.676c0.141,0.099 0.221,0.261 0.213,0.433c-0.057,1.298 -0.118,2.124 -0.181,2.455c-0.154,0.802 -0.94,1.343 -1.652,1.523l-7.076,2.568c-0.841,0.223 -1.538,0.509 -2.117,0.866c-1.605,0.99 -2.369,1.746 -2.943,3.865c-0.448,1.657 -0.517,6.282 -0.546,8.258c-0.005,0.316 -0.009,0.578 -0.014,0.766z" fill="#472b29"></path><path d="M60.479,48.881l-0.596,-0.066l0.2,-1.779l-1.011,0.438l-0.238,-0.551l1.486,-0.644c0.099,-0.042 0.213,-0.029 0.298,0.034c0.086,0.063 0.132,0.169 0.119,0.274zM36.263,48.538l-0.259,-2.294c-0.013,-0.105 0.033,-0.211 0.119,-0.274c0.086,-0.064 0.198,-0.078 0.298,-0.034l1.486,0.644l-0.238,0.551l-1.011,-0.438l0.2,1.779z" fill="#895d3d"></path><path d="M37.602,52.98c-0.001,0 -0.003,0 -0.004,0c-0.11,-0.002 -0.198,-0.094 -0.196,-0.204l0.164,-8.647c0.002,-0.109 0.092,-0.196 0.2,-0.196c0.001,0 0.003,0 0.004,0c0.11,0.002 0.198,0.094 0.196,0.204l-0.164,8.647c-0.002,0.11 -0.092,0.196 -0.2,0.196zM58.981,52.98c-0.108,0 -0.198,-0.087 -0.2,-0.196l-0.165,-8.647c-0.002,-0.11 0.086,-0.202 0.196,-0.204c0.001,0 0.003,0 0.004,0c0.108,0 0.198,0.087 0.2,0.196l0.165,8.647c0.002,0.11 -0.086,0.202 -0.196,0.204c-0.001,0 -0.003,0 -0.004,0zM48.32,62.095c-2.122,0 -5.698,-2.611 -5.855,-2.728c-0.111,-0.082 -0.135,-0.238 -0.053,-0.35c0.082,-0.11 0.239,-0.135 0.35,-0.053c0.039,0.028 3.869,2.842 5.76,2.619c1.915,-0.218 4.981,-2.379 5.013,-2.4c0.112,-0.08 0.269,-0.052 0.349,0.06c0.08,0.112 0.053,0.269 -0.06,0.349c-0.13,0.092 -3.203,2.257 -5.245,2.488c-0.084,0.01 -0.17,0.015 -0.259,0.015z" fill="#472b29"></path><path d="M60.673,30.75c-0.075,-0.565 -0.683,-0.48 -1.283,-0.444c-1.872,0.111 -2.329,-0.486 -6.15,-2.617c-3.808,-2.124 -7.704,-1.277 -10.301,0.551c-11.945,2.611 -4.949,17.971 -4.949,17.971c0,0 -0.044,-8.085 3.65,-10.543c6.186,3.996 12.088,4.47 15.687,2.094c1.389,3.067 1.354,8.449 1.354,8.449c0,0 2.88,-4.855 1.085,-10.75c-0.439,-1.445 1.152,-2.87 0.907,-4.711z" fill="#f8f542"></path><path d="M59.125,46.17l-0.5,-0.004c0,-0.052 0.018,-5.063 -1.241,-8.082c-3.924,2.353 -9.948,1.537 -15.848,-2.16c-3.47,2.459 -3.47,10.164 -3.47,10.243l-0.5,0.002c-0.002,-0.335 -0.002,-8.249 3.828,-10.753c0.081,-0.054 0.187,-0.056 0.271,-0.002c5.902,3.744 11.915,4.549 15.696,2.095c0.061,-0.039 0.138,-0.051 0.205,-0.03c0.07,0.021 0.127,0.069 0.158,0.136c1.421,3.081 1.402,8.332 1.401,8.555z" fill="#472b29"></path><g><path d="M69.603,58.422c-7.97057,0 -14.432,6.46143 -14.432,14.432c0,7.97057 6.46143,14.432 14.432,14.432c7.97057,0 14.432,-6.46143 14.432,-14.432c0,-7.97057 -6.46143,-14.432 -14.432,-14.432z" fill="#f8f542"></path><path d="M69.604,87.661c-8.164,0 -14.807,-6.643 -14.807,-14.807c0,-8.164 6.643,-14.807 14.807,-14.807c8.164,0 14.806,6.643 14.806,14.807c0,8.164 -6.642,14.807 -14.806,14.807zM69.604,58.798c-7.751,0 -14.057,6.306 -14.057,14.057c0,7.751 6.306,14.057 14.057,14.057c7.751,0 14.056,-6.307 14.056,-14.058c0,-7.751 -6.306,-14.056 -14.056,-14.056z" fill="#472b29"></path><path d="M69.603,60.919c-6.59152,0 -11.935,5.34348 -11.935,11.935c0,6.59152 5.34348,11.935 11.935,11.935c6.59152,0 11.935,-5.34348 11.935,-11.935c0,-6.59152 -5.34348,-11.935 -11.935,-11.935z" fill="#93bc39"></path><path d="M69.604,85.039c-6.719,0 -12.185,-5.466 -12.185,-12.185c0,-6.719 5.466,-12.184 12.185,-12.184c6.719,0 12.185,5.466 12.185,12.185c0,6.719 -5.467,12.184 -12.185,12.184zM69.604,61.17c-6.443,0 -11.685,5.241 -11.685,11.685c0,6.444 5.241,11.685 11.685,11.685c6.444,0 11.685,-5.241 11.685,-11.685c0,-6.444 -5.242,-11.685 -11.685,-11.685z" fill="#472b29"></path><g fill="#c0d078" opacity="0.79"><path d="M69.625,62.752c5.28,0 9.763,3.313 11.459,7.941c-0.945,-5.4 -5.709,-9.512 -11.459,-9.512c-5.75,0 -10.513,4.112 -11.459,9.512c1.697,-4.628 6.179,-7.941 11.459,-7.941z"></path></g><g><path d="M69.604,79.147c-0.648,0 -1.177,-0.528 -1.177,-1.177v-3.939h-3.939c-0.648,0 -1.177,-0.528 -1.177,-1.177c0,-0.649 0.528,-1.176 1.177,-1.176h3.939v-3.94c0,-0.648 0.528,-1.177 1.177,-1.177c0.649,0 1.177,0.528 1.177,1.177v3.94h3.939c0.648,0 1.177,0.527 1.177,1.176c0,0.649 -0.528,1.177 -1.177,1.177h-3.94v3.939c0,0.648 -0.528,1.177 -1.176,1.177z" fill="#f8f542"></path><path d="M69.603,66.811c0.511,0 0.926,0.416 0.926,0.926v4.19h4.19c0.511,0 0.926,0.416 0.926,0.926c0,0.51 -0.416,0.926 -0.926,0.926h-4.19v4.19c0,0.511 -0.416,0.926 -0.926,0.926c-0.51,0 -0.926,-0.416 -0.926,-0.926v-4.19h-4.19c-0.511,0 -0.926,-0.416 -0.926,-0.926c0,-0.51 0.416,-0.926 0.926,-0.926h4.19v-4.19c0,-0.51 0.416,-0.926 0.926,-0.926M69.603,66.311c-0.786,0 -1.426,0.64 -1.426,1.426v3.69h-3.69c-0.786,0 -1.426,0.64 -1.426,1.426c0,0.786 0.64,1.426 1.426,1.426h3.69v3.69c0,0.787 0.64,1.426 1.426,1.426c0.786,0 1.426,-0.64 1.426,-1.426v-3.69h3.69c0.786,0 1.426,-0.64 1.426,-1.426c0,-0.787 -0.64,-1.426 -1.426,-1.426h-3.69v-3.69c0.001,-0.786 -0.639,-1.426 -1.426,-1.426z" fill="#472b29"></path></g></g></g></g></svg>