<svg version="1.1" xmlns="http://www.w3.org/2000/svg" xmlns:xlink="http://www.w3.org/1999/xlink" width="100%" height="100%" viewBox="0,0,256,256"><g fill-opacity="0" fill="#dddddd" fill-rule="nonzero" stroke="none" stroke-width="1" stroke-linecap="butt" stroke-linejoin="miter" stroke-miterlimit="10" stroke-dasharray="" stroke-dashoffset="0" font-family="none" font-weight="none" font-size="none" text-anchor="none" style="mix-blend-mode: normal"><path d="M0,256v-256h256v256z" id="bgRectangle"></path></g><g fill="none" fill-rule="nonzero" stroke="none" stroke-width="1" stroke-linecap="butt" stroke-linejoin="miter" stroke-miterlimit="10" stroke-dasharray="" stroke-dashoffset="0" font-family="none" font-weight="none" font-size="none" text-anchor="none" style="mix-blend-mode: normal"><g transform="scale(0.5,0.5)"><path d="M292.33,313.21l-9.97,-16.52l27.82,-20.4l17.1,19.1c10.44139,-4.82442 21.6897,-7.66277 33.17,-8.37l6.3,-24.9l33,5l-1.41,25.64c10.74491,4.07382 20.63696,10.1135 29.17,17.81l22.03,-13.17l20.47,27.7l-19.17,17.03c4.7836,10.41522 7.63006,21.61467 8.4,33.05l25,6.27l-5.21,34.1l-25.74,-1.41c-4.09197,10.72173 -10.1566,20.58184 -17.88,29.07l13.23,21.93l-27.82,20.4l-17.1,-19.1c-10.4618,4.76647 -21.69922,7.60208 -33.17,8.37l-6.3,24.9l-33,-5l1.41,-25.64c-10.72153,-4.12142 -20.60529,-10.15604 -29.17,-17.81l-22.03,13.17l-5.03,-6.81l-15.44,-20.89l19.17,-17.03c-4.84289,-10.39417 -7.6922,-21.60485 -8.4,-33.05l-25,-6.27l5.21,-34.1l25.74,1.41c4.14612,-10.69495 10.20493,-20.5456 17.88,-29.07zM434.87,391.42c4.32756,-27.86988 -8.56949,-55.60049 -32.67133,-70.24832c-24.10185,-14.64783 -54.65622,-13.3247 -77.4016,3.3518c-22.74538,16.6765 -33.19694,45.4182 -26.47634,72.80965c6.7206,27.39145 29.28824,48.03175 57.16927,52.28686c18.25013,2.84925 36.88349,-1.68872 51.77984,-12.61045c14.89635,-10.92174 24.82847,-27.32747 27.60016,-45.58955z" fill="#00efd1"></path><path d="M376.44,312.35c37.84035,5.92061 63.73891,41.36572 57.88029,79.21572c-5.85862,37.85 -41.26127,63.80658 -79.12081,58.00996c-37.85954,-5.79662 -63.87408,-41.1567 -58.13948,-79.02568c2.77169,-18.26207 12.70381,-34.66781 27.60016,-45.58955c14.89635,-10.92174 33.52971,-15.4597 51.77984,-12.61045z" fill="#798487"></path><path d="M309.37,101.98c12.47,30.89 10.99,64.49 -1.79,95c-10.69,25.51 -27.82,48.06 -47.3,67.51c-8.77782,8.93795 -18.24354,17.17323 -28.31,24.63v-17.61c28.11768,-16.53237 45.37389,-46.72217 45.35,-79.34v-37.1l0.13,-8.74c0.31,-20.92 -9.67,-40.88 -27.09,-52.47c-6.87135,-4.63698 -14.69796,-7.66851 -22.9,-8.87c-44.83,82.04 -125.39,89.92 -128.53,90.19c-0.063,0.00806 -0.12651,0.0114 -0.19,0.01c-0.59441,-0.00106 -1.16478,0.23459 -1.58509,0.65491c-0.42031,0.42031 -0.65597,0.99068 -0.65491,1.58509v15.87c-0.01611,32.36688 17.28315,62.26961 45.35,78.39v13.23c-50.71,-25.96 -83.01,-81.05 -85.35,-137.56c-0.96744,-21.72757 3.56234,-43.34805 13.17,-62.86c16.81,-33.72 48.32,-57.96 84.26,-68.34c23.66,-6.84 46.94,-4.38 66.54,5.6c18.66,9.49 33.99,25.8 43.13,47.37l0.63,1.9c22.03,-5.23 37.79,12.73 45.14,30.95z" fill="#4b5d63"></path><path d="M292.33,313.21l3.26,5.41c-7.67507,8.5244 -13.73388,18.37505 -17.88,29.07l-25.74,-1.41l-5.21,34.1l25,6.27c0.7078,11.44515 3.55711,22.65583 8.4,33.05l-19.17,17.03l15.44,20.89h-248.67v-71.79c0.00166,-41.80175 33.88825,-75.68834 75.69,-75.69h38.4v1.43c0,24.88595 20.17405,45.06 45.06,45.06c24.88595,0 45.06,-20.17405 45.06,-45.06v-1.43h38.96c7.2432,-0.00196 14.44947,1.03184 21.4,3.07z" fill="#e9d991"></path><path d="M141.85,271.69c-28.06685,-16.12039 -45.36611,-46.02312 -45.35,-78.39v-15.87c-0.00106,-0.59441 0.23459,-1.16478 0.65491,-1.58509c0.42031,-0.42031 0.99068,-0.65597 1.58509,-0.65491c0.06349,0.0014 0.127,-0.00194 0.19,-0.01c3.14,-0.27 83.7,-8.15 128.53,-90.19c8.20204,1.20149 16.02865,4.23302 22.9,8.87c17.42,11.59 27.4,31.55 27.09,52.47l-0.13,8.74v37.1c0.02389,32.61783 -17.23232,62.80763 -45.35,79.34c-13.46357,7.89747 -28.77139,12.10557 -44.38,12.2c-16.04606,0.14634 -31.83896,-4.00387 -45.74,-12.02z" fill="#f7dac3"></path><path d="M141.85,284.92v-13.23c13.90104,8.01613 29.69394,12.16634 45.74,12.02c15.60861,-0.09443 30.91643,-4.30253 44.38,-12.2v40.06c0,24.88595 -20.17405,45.06 -45.06,45.06c-24.88595,0 -45.06,-20.17405 -45.06,-45.06z" fill="#fad4b9"></path><path d="M485.7,375.631l-20.849,-5.23c-1.03619,-9.15367 -3.32422,-18.12174 -6.8,-26.653l15.949,-14.163c2.32135,-2.06229 2.68571,-5.55499 0.84,-8.052l-20.47,-27.7c-1.83445,-2.48055 -5.25106,-3.1656 -7.9,-1.584l-18.319,10.951c-7.15293,-5.87007 -15.09144,-10.71126 -23.585,-14.383l1.175,-21.364c0.16934,-3.08759 -2.0356,-5.7982 -5.093,-6.261l-33,-5c-3.05207,-0.46173 -5.95645,1.46761 -6.714,4.46l-5.251,20.748c-9.21284,0.99079 -18.2421,3.26376 -26.826,6.753l-14.208,-15.868c-2.05914,-2.29977 -5.52724,-2.66185 -8.017,-0.837l-27.82,20.4c-2.50406,1.83664 -3.19291,5.28047 -1.588,7.939l2.942,4.806c-3.06498,-0.37306 -6.14852,-0.57338 -9.236,-0.6h-32.93v-11.858c9.28551,-7.28578 18.14509,-15.09863 26.535,-23.4c22.244,-22.211 38.586,-45.572 48.587,-69.437c13.8,-32.937 14.438,-68.3 1.816,-99.564c-4.443,-11.013 -11.147,-20.5 -18.875,-26.7c-8.434,-6.774 -18.033,-9.746 -28.023,-8.723c-9.643,-21.33 -25.1,-37.856 -44.847,-47.9c-21.427,-10.911 -46.617,-13.043 -70.928,-6.011c-38.865,11.222 -70.931,37.256 -87.965,71.424c-10.03205,20.42551 -14.75089,43.05119 -13.72,65.784c2.446,59.092 35.42,113.956 85.42,140.905v15.487h-32.55c-45.044,0 -81.45,36.786 -81.45,81.83v71.79c0,3.314 2.446,6.38 5.76,6.38h245.64l3.233,4.185c1.85634,2.45755 5.27601,3.10253 7.9,1.49l18.348,-11.017c7.15303,5.85015 15.07617,10.68943 23.547,14.382l-1.175,21.353c-0.16668,3.08572 2.03761,5.79336 5.093,6.256l33,5c0.29797,0.04406 0.59879,0.06612 0.9,0.066c2.74524,-0.00281 5.13842,-1.86843 5.811,-4.53l5.252,-20.758c9.19824,-1.03016 18.21241,-3.31331 26.792,-6.786l14.241,15.9c2.05914,2.29977 5.52724,2.66185 8.017,0.837l27.82,-20.4c2.5044,-1.83634 3.1937,-5.28022 1.589,-7.939l-10.972,-18.187c5.88365,-7.11581 10.73873,-15.0227 14.423,-23.489l21.474,1.177c3.08088,0.15793 5.78318,-2.03715 6.26,-5.085l5.21,-34.1c0.46709,-3.05648 -1.46503,-5.96743 -4.463,-6.724zM228.776,266.331c-12.53493,7.34639 -26.78033,11.26974 -41.309,11.377c-14.96508,0.12853 -29.6927,-3.74403 -42.659,-11.217h-0.235c-26.21226,-15.07482 -42.4284,-42.95341 -42.573,-73.191v-12.5c16,-2.136 86.08,-15.625 128.345,-89.134c5.90355,1.39764 11.51264,3.8306 16.567,7.186c15.572,10.362 24.6,28.076 24.317,47.386l-0.229,8.832v37.1c0.04631,30.45258 -16.01314,58.65968 -42.224,74.163zM148,310.14v-28.689c12.2757,5.47361 25.5703,8.28888 39.011,8.261c0.232,0 0.443,0 0.677,0c13.21369,-0.10371 26.26111,-2.9569 38.312,-8.378v30.236c-0.03196,21.56484 -17.51014,39.03632 -39.075,39.06c-10.34485,-0.00686 -20.26206,-4.12862 -27.56431,-11.4562c-7.30224,-7.32757 -11.38964,-17.25899 -11.36069,-27.6038zM62.5,147.114c-0.92489,-20.71548 3.38803,-41.3298 12.54,-59.937c15.54,-31.171 44.9,-54.955 80.556,-65.253c21.381,-6.179 43.451,-4.339 62.154,5.183c17.887,9.1 31.794,24.359 40.232,44.145l0.554,1.669c0.98019,2.95192 4.05369,4.66535 7.08,3.947c18.265,-4.336 31.706,11.287 38.191,27.359c11.431,28.317 10.805,60.434 -1.761,90.434c-9.394,22.417 -24.857,44.483 -45.991,65.584c-5.70919,5.85917 -11.73664,11.39956 -18.055,16.596v-1.968c28.11786,-18.09235 45.07966,-49.26437 45,-82.7v-37.014l0.29,-8.74c0.346,-23.407 -10.7,-44.923 -29.691,-57.558c-7.61391,-5.12148 -16.27715,-8.4747 -25.355,-9.814c-2.46432,-0.34137 -4.88229,0.87996 -6.07,3.066c-43,78.692 -119.54,86.686 -123.926,87.08c-4.50384,0.11187 -8.13012,3.73331 -8.248,8.237v15.87c0.15114,29.59336 13.80634,57.49814 37.081,75.776c-37.952,-27.041 -62.555,-72.922 -64.581,-121.962zM34,452v-66.17c0,-38.43 31.022,-69.83 69.45,-69.83h32.6c2.32119,26.35192 24.40607,46.55441 50.86,46.525c26.42007,-0.0563 48.455,-20.21429 50.857,-46.525h33.163c5.76844,0.02388 11.51188,0.75977 17.1,2.191c-5.78194,7.06535 -10.57713,14.88352 -14.254,23.24l-21.476,-1.159c-3.08427,-0.15979 -5.789,2.04072 -6.26,5.093l-5.21,34.1c-0.4727,3.06245 1.46439,5.98109 4.47,6.735l20.846,5.231c0.99326,9.16873 3.27054,18.15231 6.765,26.687l-15.906,14.13c-2.32389,2.13965 -2.68446,5.67753 -0.84,8.242l8.368,11.51zM473.922,409.261l-20.3,-1.113c-2.60619,-0.14407 -5.00654,1.4133 -5.937,3.852c-3.82604,10.01465 -9.48993,19.2261 -16.7,27.16c-1.79531,1.96251 -2.08429,4.87275 -0.71,7.15l10.4,17.234l-19.01,13.939l-13.471,-15.045c-1.7402,-1.9432 -4.53654,-2.53941 -6.918,-1.475c-9.80671,4.46694 -20.33856,7.12886 -31.09,7.858c-2.60518,0.1604 -4.8078,1.98662 -5.448,4.517l-4.964,19.625l-22.234,-3.363l1.111,-20.2c0.14348,-2.61062 -1.42007,-5.01359 -3.865,-5.94c-10.04348,-3.86988 -19.30244,-9.52798 -27.328,-16.7c-1.95735,-1.72669 -4.80645,-1.98989 -7.047,-0.651l-17.358,10.378l-1.8,-2.432v0l-12.181,-16.48l15.072,-13.388c1.98678,-1.76557 2.57519,-4.62787 1.446,-7.034c-4.51686,-9.71187 -7.17727,-20.18292 -7.844,-30.873c-0.16182,-2.60831 -1.99328,-4.81188 -4.528,-5.448l-19.7,-4.942l3.562,-23.32l20.3,1.113c2.60381,0.13874 5.00014,-1.41707 5.933,-3.852c3.89445,-10.01672 9.57487,-19.24329 16.765,-27.231c1.74247,-1.96347 2.0062,-4.83171 0.651,-7.08l-10.4,-17.237l19.009,-13.939l13.471,15.045c1.7623,1.96813 4.60454,2.552 7,1.438c9.76264,-4.50346 20.27638,-7.15571 31.007,-7.822c2.60518,-0.1604 4.8078,-1.98662 5.448,-4.517l4.964,-19.624l22.229,3.368l-1.111,20.2c-0.14318,2.60887 1.41838,5.01046 3.861,5.938c10.0412,3.81173 19.28703,9.45546 27.267,16.644c1.95616,1.77624 4.84405,2.06373 7.112,0.708l17.359,-10.379l13.978,18.914l-15.072,13.389c-1.9609,1.74262 -2.56235,4.5571 -1.485,6.949c4.47985,9.75677 7.15084,20.24591 7.883,30.957c0.16221,2.60916 1.9951,4.81299 4.531,5.448l19.7,4.942z" fill="#083863"></path><path d="M377.338,306.417c-41.266,-6.242 -79.942,22.119 -86.21,63.227c-2.9956,19.81111 2.01128,40.0002 13.91668,56.11588c11.9054,16.11567 29.73165,26.8345 49.54832,29.79312c3.81195,0.5728 7.66126,0.86093 11.516,0.862c37.30043,-0.11401 69.01608,-27.25596 74.891,-64.091v0c2.95239,-19.83469 -2.09659,-40.02976 -14.03593,-56.14136c-11.93934,-16.1116 -29.79074,-26.81956 -49.62607,-29.76764zM429,390.514v0c-5,34.575 -37.833,58.436 -72.582,53.172c-32.90421,-4.8637 -56.45725,-34.32661 -53.95573,-67.49413c2.50153,-33.16753 30.20724,-58.76445 63.46873,-58.63787c3.218,0.00071 6.43139,0.24339 9.613,0.726c16.75249,2.47668 31.81693,11.55503 41.833,25.21c10.023,13.624 13.623,30.324 11.623,47.024z" fill="#083863"></path></g></g></svg>