<svg version="1.1" xmlns="http://www.w3.org/2000/svg" xmlns:xlink="http://www.w3.org/1999/xlink" width="100%" height="100%" viewBox="0,0,256,256"><g fill-opacity="0" fill="#dddddd" fill-rule="nonzero" stroke="none" stroke-width="1" stroke-linecap="butt" stroke-linejoin="miter" stroke-miterlimit="10" stroke-dasharray="" stroke-dashoffset="0" font-family="none" font-weight="none" font-size="none" text-anchor="none" style="mix-blend-mode: normal"><path d="M0,256v-256h256v256z" id="bgRectangle"></path></g><g fill="none" fill-rule="nonzero" stroke="none" stroke-width="1" stroke-linecap="butt" stroke-linejoin="miter" stroke-miterlimit="10" stroke-dasharray="" stroke-dashoffset="0" font-family="none" font-weight="none" font-size="none" text-anchor="none" style="mix-blend-mode: normal"><g transform="scale(6.4,6.4)"><path d="M1.5,6.5h37v25h-37z" fill="#48445a"></path><path d="M38,7v24h-36v-24h36M39,6h-38v26h38v-26z" fill="#000000"></path><path d="M13.519,34.5c0.256,-3.352 3.065,-6 6.481,-6c3.416,0 6.225,2.648 6.481,6z" fill="#00356f"></path><path d="M20,29c2.968,0 5.439,2.166 5.917,5h-11.834c0.478,-2.834 2.949,-5 5.917,-5M20,28c-3.866,0 -7,3.134 -7,7h14c0,-3.866 -3.134,-7 -7,-7z" fill="#000000"></path><path d="M12,11.5c-3.58985,0 -6.5,2.91015 -6.5,6.5c0,3.58985 2.91015,6.5 6.5,6.5c3.58985,0 6.5,-2.91015 6.5,-6.5c0,-3.58985 -2.91015,-6.5 -6.5,-6.5z" fill="#124990"></path><path d="M12,12c3.308,0 6,2.692 6,6c0,3.308 -2.692,6 -6,6c-3.308,0 -6,-2.692 -6,-6c0,-3.308 2.692,-6 6,-6M12,11c-3.866,0 -7,3.134 -7,7c0,3.866 3.134,7 7,7c3.866,0 7,-3.134 7,-7c0,-3.866 -3.134,-7 -7,-7z" fill="#ffffff"></path><path d="M12.5,17.5v-5.981c3.187,0.244 5.737,2.794 5.981,5.981z" fill="#f00000"></path><path d="M13,12.083c2.509,0.423 4.494,2.408 4.917,4.917h-4.917v-4.917M12,11v7h7c0,-3.866 -3.134,-7 -7,-7z" fill="#430000"></path><path transform="translate(58,33) rotate(-180)" d="M23,16h12v1h-12z" fill="#ffffff"></path><path transform="translate(66,33) rotate(-180)" d="M31,16h4v1h-4z" fill="#2aac27"></path><path transform="translate(58,25) rotate(-180)" d="M23,12h12v1h-12z" fill="#ffffff"></path><path transform="translate(67,25) rotate(-180)" d="M32,12h3v1h-3z" fill="#2aac27"></path><path transform="translate(58,41) rotate(-180)" d="M23,20h12v1h-12z" fill="#ffffff"></path><path transform="translate(58,49) rotate(-180)" d="M23,24h12v1h-12z" fill="#ffffff"></path><path transform="translate(67,41) rotate(-180)" d="M32,20h3v1h-3z" fill="#2aac27"></path><path transform="translate(63,49) rotate(-180)" d="M28,24h7v1h-7z" fill="#2aac27"></path></g></g></svg>