<svg version="1.1" xmlns="http://www.w3.org/2000/svg" xmlns:xlink="http://www.w3.org/1999/xlink" width="100%" height="100%" viewBox="0,0,256,256"><g fill-opacity="0" fill="#ffffff" fill-rule="nonzero" stroke="none" stroke-width="1" stroke-linecap="butt" stroke-linejoin="miter" stroke-miterlimit="10" stroke-dasharray="" stroke-dashoffset="0" font-family="none" font-weight="none" font-size="none" text-anchor="none" style="mix-blend-mode: normal"><path d="M0,256v-256h256v256z" id="bgRectangle"></path></g><g fill="none" fill-rule="nonzero" stroke="none" stroke-width="1" stroke-linecap="butt" stroke-linejoin="miter" stroke-miterlimit="10" stroke-dasharray="" stroke-dashoffset="0" font-family="none" font-weight="none" font-size="none" text-anchor="none" style="mix-blend-mode: normal"><g transform="scale(2.66667,2.66667)"><path d="M18.421,64.985c-0.548,0 -1.1,-0.075 -1.637,-0.228c-1.824,-0.52 -3.25,-1.832 -3.912,-3.598c-1.576,-4.204 -2.375,-8.631 -2.375,-13.159c0,-6.081 1.49,-12.12 4.308,-17.465c0.773,-1.466 2.588,-2.028 4.053,-1.255c1.466,0.773 2.027,2.587 1.255,4.053c-2.365,4.485 -3.615,9.557 -3.615,14.667c0,3.806 0.67,7.525 1.993,11.053l6.569,-5.178c-0.515,-1.903 -0.762,-3.883 -0.762,-5.874c0,-3.067 0.578,-6.053 1.718,-8.875c0.621,-1.536 2.367,-2.278 3.906,-1.658c1.536,0.621 2.278,2.369 1.658,3.906c-0.851,2.104 -1.282,4.334 -1.282,6.627c0,1.491 0.185,2.97 0.55,4.398c0.595,2.33 -0.239,4.774 -2.124,6.228l-6.638,5.116c-1.057,0.813 -2.354,1.242 -3.665,1.242z" fill="#ffad00" opacity="0.3"></path><path d="M18.423,63.985c-0.457,0 -0.917,-0.063 -1.364,-0.19c-1.516,-0.432 -2.701,-1.521 -3.25,-2.987c-1.534,-4.092 -2.312,-8.401 -2.312,-12.809c0,-5.919 1.45,-11.797 4.192,-16.999c0.515,-0.978 1.727,-1.353 2.702,-0.836c0.977,0.515 1.352,1.725 0.836,2.702c-2.44,4.629 -3.73,9.862 -3.73,15.134c0,3.926 0.692,7.764 2.057,11.404c0.136,0.363 0.436,0.497 0.602,0.544c0.145,0.042 0.521,0.108 0.877,-0.166l6.638,-5.116c0.302,-0.233 0.433,-0.638 0.332,-1.03c-0.468,-1.832 -0.705,-3.728 -0.705,-5.636c0,-2.938 0.554,-5.797 1.646,-8.5c0.415,-1.024 1.582,-1.519 2.604,-1.105c1.024,0.414 1.519,1.58 1.105,2.604c-0.899,2.225 -1.354,4.58 -1.354,7.002c0,1.574 0.195,3.137 0.581,4.646c0.496,1.942 -0.197,3.979 -1.766,5.188l-6.638,5.116c-0.881,0.677 -1.961,1.034 -3.053,1.034z" fill="#ffad00" opacity="0.3"></path><path d="M73.902,73.882c-0.708,0 -1.42,-0.25 -1.991,-0.757c-1.239,-1.101 -1.351,-2.997 -0.251,-4.235c2.929,-3.298 7.842,-10.396 7.842,-20.89c0,-1.21 -0.098,-2.55 -0.29,-3.983l-28.212,-0.017v8h16.5c0.974,0 1.888,0.473 2.45,1.269c0.563,0.795 0.704,1.814 0.378,2.733c-0.896,2.531 -2.227,4.875 -3.954,6.968c-1.056,1.278 -2.947,1.458 -4.224,0.404c-1.278,-1.055 -1.458,-2.946 -0.404,-4.224c0.308,-0.373 0.599,-0.756 0.872,-1.15h-11.618c-3.309,0 -6,-2.691 -6,-6v-8c0,-3.309 2.691,-6 6,-6h28.207c2.993,0 5.552,2.243 5.952,5.217c0.228,1.697 0.344,3.306 0.344,4.782c0,12.477 -5.862,20.94 -9.356,24.875c-0.593,0.668 -1.417,1.008 -2.245,1.008z" fill="#4d4dff" opacity="0.3"></path><path d="M73.903,72.882c-0.473,0 -0.947,-0.167 -1.328,-0.504c-0.826,-0.734 -0.901,-1.998 -0.167,-2.824c3.023,-3.404 8.095,-10.73 8.095,-21.554c0,-1.254 -0.101,-2.639 -0.299,-4.116c-0.068,-0.504 -0.497,-0.884 -0.997,-0.884h-28.207c-0.551,0 -1,0.449 -1,1v8c0,0.551 0.449,1 1,1h16.5c0.649,0 1.258,0.315 1.633,0.846c0.375,0.531 0.469,1.21 0.252,1.822c-0.857,2.42 -2.13,4.663 -3.782,6.665c-0.703,0.853 -1.963,0.973 -2.815,0.27c-0.852,-0.703 -0.973,-1.964 -0.27,-2.815c0.723,-0.876 1.357,-1.808 1.897,-2.787h-13.415c-2.757,0 -5,-2.243 -5,-5v-8c0,-2.757 2.243,-5 5,-5h28.207c2.495,0 4.627,1.871 4.961,4.351c0.222,1.653 0.335,3.217 0.335,4.649c0,12.146 -5.704,20.382 -9.104,24.21c-0.396,0.444 -0.945,0.671 -1.496,0.671z" fill="#4d4dff" opacity="0.3"></path><path d="M31.244,38.855c-0.61,0 -1.227,-0.186 -1.758,-0.571c-0.723,-0.524 -1.143,-1.311 -1.225,-2.134c-0.935,0.317 -2.002,0.166 -2.831,-0.494l-4.799,-3.818c-1.277,-1.016 -2.094,-2.532 -2.24,-4.158c-0.146,-1.624 0.362,-3.188 1.43,-4.405c7.124,-8.121 17.394,-12.778 28.179,-12.778c8.267,0 16.118,2.661 22.704,7.695c1.376,1.052 2.231,2.646 2.346,4.375c0.115,1.728 -0.521,3.421 -1.746,4.645l-5.573,5.573c-2.057,2.059 -5.275,2.346 -7.655,0.685c-2.973,-2.075 -6.458,-3.172 -10.078,-3.172c-5.647,0 -11.001,2.736 -14.324,7.318c-0.586,0.81 -1.501,1.239 -2.43,1.239zM48,16.497c-9.057,0 -17.684,3.913 -23.668,10.735l4.833,3.729c0.487,0.388 0.822,0.896 0.995,1.449c4.474,-5.114 10.995,-8.112 17.838,-8.112c4.854,0 9.526,1.47 13.512,4.252l5.552,-5.581c-5.532,-4.238 -12.123,-6.472 -19.062,-6.472z" fill="#d22730" opacity="0.3"></path><path d="M31.245,37.855c-0.407,0 -0.818,-0.124 -1.172,-0.381c-0.895,-0.648 -1.094,-1.899 -0.445,-2.793c4.26,-5.875 11.127,-9.383 18.372,-9.383c4.648,0 9.123,1.408 12.939,4.072c0.388,0.271 0.917,0.221 1.258,-0.12l5.573,-5.573c0.28,-0.28 0.303,-0.608 0.292,-0.778c-0.011,-0.17 -0.077,-0.493 -0.393,-0.734c-5.708,-4.362 -12.509,-6.668 -19.669,-6.668c-9.345,0 -18.246,4.037 -24.42,11.075c-0.201,0.229 -0.224,0.486 -0.208,0.662c0.024,0.27 0.16,0.522 0.373,0.691l4.799,3.818c0.864,0.688 1.008,1.946 0.32,2.81c-0.687,0.865 -1.946,1.007 -2.81,0.32l-4.799,-3.818c-1.064,-0.847 -1.745,-2.109 -1.866,-3.464c-0.121,-1.349 0.3,-2.647 1.185,-3.657c6.933,-7.904 16.929,-12.437 27.426,-12.437c8.046,0 15.687,2.59 22.097,7.49c1.147,0.876 1.86,2.206 1.956,3.647c0.096,1.44 -0.434,2.851 -1.455,3.871l-5.573,5.573c-1.713,1.714 -4.394,1.954 -6.375,0.572c-3.142,-2.193 -6.825,-3.352 -10.65,-3.352c-5.966,0 -11.624,2.89 -15.133,7.731c-0.392,0.54 -1.003,0.826 -1.622,0.826z" fill="#d22730" opacity="0.3"></path><path d="M47.999,85.503c-12.296,0 -23.824,-6.059 -30.837,-16.207c-0.942,-1.363 -0.6,-3.231 0.763,-4.174c1.363,-0.94 3.231,-0.601 4.174,0.763c5.893,8.527 15.575,13.618 25.901,13.618c6.667,0 13.051,-2.081 18.459,-6.018l-6.225,-5.231c-3.707,2.271 -7.928,3.448 -12.235,3.448c-8.066,0 -15.502,-4.056 -19.891,-10.85c-0.899,-1.392 -0.5,-3.249 0.892,-4.148c1.392,-0.899 3.249,-0.5 4.148,0.892c3.278,5.075 8.83,8.105 14.851,8.105c3.211,0 6.358,-0.877 9.101,-2.537c2.235,-1.352 5.052,-1.146 7.009,0.509l6.227,5.27c1.408,1.192 2.177,2.933 2.109,4.777c-0.067,1.846 -0.963,3.528 -2.456,4.616c-6.441,4.688 -14.045,7.167 -21.99,7.167z" fill="#44d62c" opacity="0.3"></path><path d="M47.999,84.503c-11.968,0 -23.188,-5.897 -30.015,-15.775c-0.628,-0.909 -0.4,-2.155 0.508,-2.783c0.908,-0.628 2.155,-0.399 2.783,0.508c6.079,8.798 16.069,14.05 26.724,14.05c6.88,0 13.467,-2.147 19.048,-6.21c0.334,-0.244 0.396,-0.578 0.402,-0.755c0.006,-0.177 -0.029,-0.513 -0.343,-0.778l-6.227,-5.269c-0.322,-0.272 -0.79,-0.291 -1.191,-0.048c-3.523,2.132 -7.565,3.259 -11.689,3.259c-7.726,0 -14.848,-3.885 -19.051,-10.393c-0.599,-0.928 -0.333,-2.166 0.595,-2.765c0.928,-0.599 2.166,-0.333 2.766,0.595c3.463,5.362 9.329,8.563 15.691,8.563c3.394,0 6.72,-0.927 9.619,-2.681c1.868,-1.129 4.217,-0.962 5.846,0.417l6.227,5.269c1.172,0.992 1.813,2.442 1.756,3.978c-0.057,1.538 -0.802,2.938 -2.046,3.844c-6.271,4.562 -13.671,6.974 -21.403,6.974z" fill="#44d62c" opacity="0.3"></path><path d="M18.424,62.985c-0.366,0 -0.733,-0.05 -1.091,-0.152c-1.208,-0.344 -2.151,-1.21 -2.588,-2.376c-1.491,-3.979 -2.248,-8.17 -2.248,-12.458c0,-5.757 1.41,-11.474 4.077,-16.533c0.257,-0.489 0.862,-0.675 1.351,-0.418c0.489,0.258 0.676,0.863 0.418,1.351c-2.516,4.772 -3.846,10.167 -3.846,15.6c0,4.047 0.713,8.002 2.121,11.755c0.212,0.565 0.672,0.987 1.263,1.155c0.615,0.174 1.257,0.053 1.762,-0.336l6.638,-5.116c0.619,-0.477 0.89,-1.29 0.691,-2.07c-0.447,-1.751 -0.674,-3.564 -0.674,-5.388c0,-2.809 0.529,-5.542 1.573,-8.125c0.207,-0.512 0.79,-0.759 1.302,-0.553c0.512,0.207 0.76,0.79 0.553,1.302c-0.947,2.344 -1.427,4.826 -1.427,7.376c0,1.658 0.206,3.304 0.612,4.893c0.397,1.555 -0.155,3.183 -1.407,4.149l-6.638,5.116c-0.705,0.543 -1.568,0.828 -2.442,0.828z" fill="#ffad00"></path><path d="M73.903,71.882c-0.236,0 -0.473,-0.083 -0.664,-0.252c-0.413,-0.367 -0.45,-0.999 -0.083,-1.412c3.117,-3.51 8.347,-11.063 8.347,-22.218c0,-1.298 -0.104,-2.728 -0.308,-4.249c-0.135,-0.999 -0.989,-1.751 -1.988,-1.751h-28.207c-1.103,0 -2,0.897 -2,2v8c0,1.103 0.897,2 2,2h16.5c0.325,0 0.629,0.158 0.816,0.423c0.188,0.265 0.235,0.605 0.126,0.911c-0.818,2.31 -2.033,4.45 -3.611,6.362c-0.35,0.426 -0.981,0.487 -1.408,0.134c-0.426,-0.351 -0.486,-0.981 -0.135,-1.408c1.12,-1.356 2.038,-2.839 2.738,-4.423h-15.026c-2.206,0 -4,-1.794 -4,-4v-8c0,-2.206 1.794,-4 4,-4h28.207c1.996,0 3.703,1.498 3.97,3.484c0.216,1.609 0.326,3.128 0.326,4.516c0,11.816 -5.546,19.824 -8.852,23.546c-0.197,0.224 -0.472,0.337 -0.748,0.337z" fill="#4d4dff"></path><path d="M31.246,36.855c-0.203,0 -0.409,-0.062 -0.586,-0.19c-0.447,-0.324 -0.547,-0.949 -0.223,-1.396c4.072,-5.617 10.637,-8.97 17.562,-8.97c4.442,0 8.719,1.346 12.367,3.892c0.785,0.547 1.853,0.451 2.537,-0.233l5.573,-5.573c0.409,-0.409 0.621,-0.974 0.583,-1.551c-0.039,-0.578 -0.324,-1.111 -0.784,-1.462c-5.882,-4.498 -12.893,-6.875 -20.275,-6.875c-9.633,0 -18.808,4.161 -25.171,11.416c-0.339,0.386 -0.5,0.887 -0.453,1.41c0.048,0.542 0.32,1.046 0.746,1.385l4.799,3.818c0.432,0.344 0.504,0.973 0.16,1.405c-0.344,0.432 -0.973,0.503 -1.405,0.16l-4.799,-3.818c-0.852,-0.677 -1.396,-1.688 -1.493,-2.771c-0.096,-1.073 0.238,-2.106 0.941,-2.908c6.743,-7.688 16.466,-12.097 26.675,-12.097c7.824,0 15.255,2.519 21.49,7.284c0.918,0.702 1.488,1.765 1.565,2.918c0.077,1.153 -0.348,2.282 -1.164,3.098l-5.573,5.573c-1.371,1.37 -3.515,1.563 -5.096,0.459c-3.311,-2.311 -7.191,-3.532 -11.223,-3.532c-6.286,0 -12.246,3.044 -15.943,8.144c-0.196,0.271 -0.501,0.414 -0.81,0.414z" fill="#d22730"></path><path d="M47.999,83.503c-11.64,0 -22.552,-5.736 -29.192,-15.344c-0.314,-0.454 -0.2,-1.077 0.254,-1.391c0.454,-0.314 1.077,-0.2 1.391,0.254c6.266,9.067 16.563,14.481 27.546,14.481c7.093,0 13.883,-2.213 19.637,-6.401c0.494,-0.36 0.791,-0.917 0.813,-1.527c0.022,-0.609 -0.231,-1.185 -0.696,-1.578l-6.227,-5.269c-0.646,-0.545 -1.591,-0.603 -2.355,-0.14c-3.367,2.038 -7.23,3.115 -11.172,3.115c-7.385,0 -14.192,-3.714 -18.211,-9.935c-0.3,-0.464 -0.167,-1.083 0.297,-1.382c0.463,-0.3 1.083,-0.167 1.382,0.297c3.648,5.648 9.829,9.02 16.531,9.02c3.577,0 7.082,-0.977 10.137,-2.826c1.5,-0.908 3.38,-0.776 4.682,0.324l6.227,5.27c0.937,0.792 1.448,1.951 1.403,3.177c-0.045,1.229 -0.641,2.348 -1.635,3.072c-6.096,4.437 -13.293,6.783 -20.812,6.783z" fill="#44d62c"></path></g></g></svg>