<svg version="1.1" xmlns="http://www.w3.org/2000/svg" xmlns:xlink="http://www.w3.org/1999/xlink" width="100%" height="100%" viewBox="0,0,256,256"><g fill-opacity="0" fill="#dddddd" fill-rule="nonzero" stroke="none" stroke-width="1" stroke-linecap="butt" stroke-linejoin="miter" stroke-miterlimit="10" stroke-dasharray="" stroke-dashoffset="0" font-family="none" font-weight="none" font-size="none" text-anchor="none" style="mix-blend-mode: normal"><path d="M0,256v-256h256v256z" id="bgRectangle"></path></g><g fill="none" fill-rule="nonzero" stroke="none" stroke-width="1" stroke-linecap="butt" stroke-linejoin="miter" stroke-miterlimit="10" stroke-dasharray="" stroke-dashoffset="0" font-family="none" font-weight="none" font-size="none" text-anchor="none" style="mix-blend-mode: normal"><g transform="scale(2.56,2.56)"><path d="M69,82h-38c-7.18,0 -13,-5.82 -13,-13v-38c0,-7.18 5.82,-13 13,-13h38c7.18,0 13,5.82 13,13v38c0,7.18 -5.82,13 -13,13z" fill-opacity="0" fill="#b9b8a8"></path><path d="M69,83h-38c-7.72,0 -14,-6.28 -14,-14v-38c0,-7.72 6.28,-14 14,-14h38c7.72,0 14,6.28 14,14v38c0,7.72 -6.28,14 -14,14zM31,19c-6.617,0 -12,5.383 -12,12v38c0,6.617 5.383,12 12,12h38c6.617,0 12,-5.383 12,-12v-38c0,-6.617 -5.383,-12 -12,-12z" fill="#d8d8d8"></path><path d="M77.5,40c-0.276,0 -0.5,-0.224 -0.5,-0.5v-2c0,-0.276 0.224,-0.5 0.5,-0.5c0.276,0 0.5,0.224 0.5,0.5v2c0,0.276 -0.224,0.5 -0.5,0.5z" fill="#282b3b"></path><path d="M77.5,47c-0.276,0 -0.5,-0.224 -0.5,-0.5v-4c0,-0.276 0.224,-0.5 0.5,-0.5c0.276,0 0.5,0.224 0.5,0.5v4c0,0.276 -0.224,0.5 -0.5,0.5z" fill="#282b3b"></path><path d="M69,83h-38c-7.72,0 -14,-6.28 -14,-14v-38c0,-7.72 6.28,-14 14,-14h38c7.72,0 14,6.28 14,14v38c0,7.72 -6.28,14 -14,14zM31,19c-6.617,0 -12,5.383 -12,12v38c0,6.617 5.383,12 12,12h38c6.617,0 12,-5.383 12,-12v-38c0,-6.617 -5.383,-12 -12,-12z" fill="#282b3b"></path><path d="M61.665,49.344c-0.098,-0.127 -0.665,-0.756 -0.665,-0.756v-3.647c0,-6.157 -4.947,-10.941 -10.971,-10.941c-0.01,0 -0.019,0.001 -0.029,0.001c-0.01,0 -0.019,-0.001 -0.029,-0.001c-6.024,0 -10.971,4.784 -10.971,10.941v3.647c0,0 -0.567,0.629 -0.665,0.756c-0.163,0.215 -0.318,0.541 -0.334,0.99c-0.01,0.271 0.642,3.695 0.831,4.283c0.208,0.66 0.624,1.201 1.168,1.383v0.49c0,1.216 0.569,2.394 0.993,3.039c1.272,1.937 3.199,3.355 5.007,4.263c0,0.07 0,0.138 0,0.208c0,2.031 -2,2.75 -2,2.75c0,0 1,4.25 6,4.25c5,0 6,-4.25 6,-4.25c0,0 -2,-0.75 -2,-2.75c0,-0.07 0,-0.138 0,-0.208c1.808,-0.908 3.736,-2.326 5.007,-4.263c0.424,-0.645 0.993,-1.823 0.993,-3.039v-0.49c0.544,-0.182 0.96,-0.723 1.168,-1.384c0.189,-0.588 0.841,-4.012 0.831,-4.283c-0.017,-0.448 -0.171,-0.774 -0.334,-0.989z" fill="#efd2bd"></path><path d="M61.59,68.552l-5.59,-1.831c0,0 -0.328,-0.125 -0.716,-0.398l-0.154,0.177v0.01c-0.01,0.02 -0.99,1.49 -5.13,1.49c-4.13,0 -5.12,-1.47 -5.12,-1.48l-0.152,-0.177c-0.394,0.279 -0.728,0.407 -0.728,0.407l-5.59,1.832c-2.223,0.866 -3.893,3.126 -4.41,5.418l-0.778,3.5h33.562l-0.784,-3.529c-0.517,-2.293 -2.187,-4.552 -4.41,-5.419z" fill="#14cebc"></path><path d="M49.971,65c-1.933,0 -6.587,-1.828 -8.978,-5.471l0.836,-0.549c2.131,3.249 6.497,5.02 8.142,5.02c1.712,0 6.037,-1.724 8.201,-5.02l0.836,0.549c-2.392,3.643 -7.083,5.471 -9.037,5.471z" fill="#282b3b"></path><path d="M52.5,68.786c-0.236,0 -0.445,-0.167 -0.491,-0.407c-0.051,-0.271 0.127,-0.533 0.398,-0.584c2.137,-0.404 2.716,-1.276 2.722,-1.285c0.145,-0.227 0.447,-0.302 0.678,-0.167c0.232,0.136 0.318,0.425 0.191,0.662c-0.028,0.051 -0.705,1.263 -3.405,1.773c-0.031,0.005 -0.063,0.008 -0.093,0.008z" fill="#282b3b"></path><path d="M50,69c-4.834,0 -5.945,-1.9 -5.99,-1.981c-0.134,-0.241 -0.047,-0.545 0.194,-0.68c0.236,-0.133 0.533,-0.05 0.671,0.18c0.033,0.048 1.041,1.481 5.125,1.481c0.13,0 0.252,-0.004 0.375,-0.008l0.111,-0.004c0.244,0.007 0.506,0.209 0.515,0.485c0.008,0.276 -0.209,0.506 -0.485,0.515l-0.107,0.003c-0.135,0.005 -0.267,0.009 -0.409,0.009z" fill="#282b3b"></path><path d="M50.625,31.5c-5.921,0 -7.796,3.153 -8.125,4c-3,1 -5,4.157 -5,7.546c0,5.421 3,7.454 3,7.454c0,-6.099 3,-8.967 3,-11c1.186,1.935 3.535,3 7,3c3.372,0 5.438,-1.068 7,-2c2.25,2.875 2,10 2,10c0,0 3,-2.033 3,-6.099c0,-3.401 -2,-4.901 -2,-4.901c0.987,-0.678 2,-2.153 2,-3c-2.961,0 -5.296,-5 -11.875,-5z" fill="#d5d237"></path><path d="M40.5,51c-0.098,0 -0.196,-0.029 -0.28,-0.086c-0.132,-0.089 -3.22,-2.247 -3.22,-7.868c0,-3.591 2.099,-6.823 5.13,-7.946c0.452,-0.938 2.427,-4.1 8.495,-4.1c4.103,0 6.593,1.845 8.594,3.328c1.261,0.934 2.258,1.672 3.281,1.672c0.276,0 0.5,0.224 0.5,0.5c0,0.919 -0.845,2.22 -1.74,3.032c0.646,0.7 1.74,2.27 1.74,4.869c0,4.282 -3.088,6.424 -3.22,6.513c-0.155,0.104 -0.358,0.115 -0.522,0.023c-0.165,-0.091 -0.265,-0.267 -0.258,-0.455c0.002,-0.066 0.199,-6.418 -1.645,-9.319c-1.719,0.982 -3.772,1.837 -6.855,1.837c-3.001,0 -5.298,-0.796 -6.723,-2.316c-0.175,0.52 -0.438,1.08 -0.736,1.714c-0.861,1.834 -2.041,4.347 -2.041,8.102c0,0.185 -0.102,0.355 -0.266,0.442c-0.073,0.038 -0.154,0.058 -0.234,0.058zM57.5,40c0.149,0 0.296,0.067 0.394,0.192c1.804,2.304 2.084,7.029 2.113,9.199c0.823,-0.859 1.993,-2.516 1.993,-4.99c0,-3.086 -1.729,-4.446 -1.802,-4.502c-0.127,-0.097 -0.201,-0.25 -0.197,-0.411c0.004,-0.16 0.084,-0.309 0.216,-0.4c0.752,-0.517 1.439,-1.473 1.686,-2.144c-1.111,-0.207 -2.128,-0.961 -3.279,-1.813c-1.883,-1.395 -4.227,-3.131 -7.999,-3.131c-6.158,0 -7.601,3.531 -7.659,3.681c-0.054,0.139 -0.167,0.246 -0.308,0.293c-2.742,0.915 -4.658,3.822 -4.658,7.072c0,3.405 1.208,5.38 2.034,6.332c0.203,-3.36 1.289,-5.672 2.102,-7.405c0.483,-1.028 0.864,-1.84 0.864,-2.473c0,-0.224 0.149,-0.42 0.364,-0.481c0.216,-0.061 0.445,0.029 0.562,0.22c1.124,1.832 3.336,2.761 6.574,2.761c3.237,0 5.178,-0.996 6.744,-1.93c0.08,-0.047 0.168,-0.07 0.256,-0.07z" fill="#282b3b"></path><path d="M66.5,78h-33c-6.341,0 -11.5,-5.159 -11.5,-11.5v-33c0,-6.341 5.159,-11.5 11.5,-11.5h33c0.354,0 0.7,0.021 1.045,0.053c0.275,0.025 0.478,0.268 0.453,0.543c-0.025,0.275 -0.277,0.479 -0.543,0.453c-0.315,-0.028 -0.633,-0.049 -0.955,-0.049h-33c-5.79,0 -10.5,4.71 -10.5,10.5v33c0,5.79 4.71,10.5 10.5,10.5h33c5.79,0 10.5,-4.71 10.5,-10.5v-17c0,-0.276 0.224,-0.5 0.5,-0.5c0.276,0 0.5,0.224 0.5,0.5v17c0,6.341 -5.159,11.5 -11.5,11.5z" fill="#282b3b"></path><path d="M53.036,64.5c0.304,2.298 2.526,3.126 2.652,3.171l5.538,1.813c1.794,0.7 3.32,2.591 3.797,4.704l0.737,3.312h2.05l-0.833,-3.75c-0.628,-2.779 -2.599,-5.185 -5.074,-6.148l-5.555,-1.819c-0.049,-0.019 -1.069,-0.423 -1.297,-1.414c1.536,-0.852 3.44,-2.229 4.794,-4.291c0.266,-0.405 1.123,-1.837 1.156,-3.489c0.503,-0.376 0.897,-0.955 1.121,-1.667c0.178,-0.554 0.896,-4.129 0.878,-4.625c-0.027,-0.74 -0.307,-1.256 -0.541,-1.564c-0.096,-0.125 -0.531,-0.707 -0.532,-0.708l-1.602,1.197c0,0 0.449,0.601 0.544,0.725c0.055,0.073 0.123,0.205 0.131,0.352c-0.032,0.41 -0.629,3.527 -0.786,4.016c-0.136,0.431 -0.365,0.68 -0.531,0.736c-0.408,0.137 -0.683,0.519 -0.683,0.949v0.49c0,0.905 -0.428,1.88 -0.829,2.49c-1.009,1.537 -2.65,2.929 -4.62,3.918c-0.338,0.17 -0.551,0.517 -0.551,0.894v0.208c0,0.109 0.031,0.488 0.032,0.5z" fill="#282b3b"></path><path d="M34.247,77.5l0.729,-3.28c0.478,-2.116 2.004,-4.007 3.746,-4.688l5.616,-1.841c0.102,-0.037 2.343,-0.87 2.631,-3.191c0.02,-0.16 0.031,-0.326 0.031,-0.5v-0.208c0,-0.378 -0.213,-0.724 -0.551,-0.894c-1.97,-0.99 -3.611,-2.381 -4.62,-3.918c-0.401,-0.61 -0.829,-1.584 -0.829,-2.49v-0.49c0,-0.43 -0.275,-0.812 -0.683,-0.948c-0.167,-0.056 -0.396,-0.305 -0.533,-0.742c-0.155,-0.482 -0.752,-3.6 -0.783,-3.94c0.008,-0.216 0.075,-0.348 0.125,-0.414c0.107,-0.135 0.615,-0.696 0.617,-0.698l-1.484,-1.34c0,0 -0.61,0.679 -0.719,0.82c-0.23,0.303 -0.51,0.819 -0.537,1.559c-0.018,0.496 0.7,4.071 0.876,4.619c0.225,0.716 0.619,1.296 1.123,1.672c0.033,1.652 0.89,3.083 1.156,3.489c1.355,2.064 3.26,3.44 4.797,4.292c-0.003,0.014 -0.025,0.1 -0.034,0.129h0.003c-0.271,0.916 -1.217,1.292 -1.235,1.3l-5.642,1.85c-2.424,0.945 -4.395,3.351 -5.023,6.133l-0.826,3.719z" fill="#282b3b"></path></g></g></svg>