<svg version="1.1" xmlns="http://www.w3.org/2000/svg" xmlns:xlink="http://www.w3.org/1999/xlink" width="100%" height="100%" viewBox="0,0,256,256"><g fill-opacity="0" fill="#dddddd" fill-rule="nonzero" stroke="none" stroke-width="1" stroke-linecap="butt" stroke-linejoin="miter" stroke-miterlimit="10" stroke-dasharray="" stroke-dashoffset="0" font-family="none" font-weight="none" font-size="none" text-anchor="none" style="mix-blend-mode: normal"><path d="M0,256v-256h256v256z" id="bgRectangle"></path></g><g fill="none" fill-rule="nonzero" stroke="none" stroke-width="1" stroke-linecap="butt" stroke-linejoin="miter" stroke-miterlimit="10" stroke-dasharray="" stroke-dashoffset="0" font-family="none" font-weight="none" font-size="none" text-anchor="none" style="mix-blend-mode: normal"><g transform="scale(30.23503,30.23503)"><path d="M2.91152,1.5875c0,-0.43974 0.35401,-0.79375 0.79375,-0.79375h3.175c0.43974,0 0.79375,0.35401 0.79375,0.79375v5.29167c0,0.43974 -0.35401,0.79375 -0.79375,0.79375h-3.175c-0.43974,0 -0.79375,-0.35401 -0.79375,-0.79375c0,-1.76389 0,-3.52778 0,-5.29167z" fill="#0e5087"></path><path d="M3.70527,0.79375c-0.43974,0 -0.79375,0.35401 -0.79375,0.79375c0,1.76389 0,3.52778 0,5.29167c0,0.43974 0.35401,0.79375 0.79375,0.79375h0.52917c-0.43974,0 -0.79375,-0.35401 -0.79375,-0.79375c0,-1.76389 0,-3.52778 0,-5.29167c0,-0.43974 0.35401,-0.79375 0.79375,-0.79375z" fill="#5d778c"></path><path d="M6.3511,0.79375c0.43974,0 0.79375,0.35401 0.79375,0.79375v5.29167c0,0.43974 -0.35401,0.79375 -0.79375,0.79375h0.52917c0.43974,0 0.79375,-0.35401 0.79375,-0.79375v-5.29167c0,-0.43974 -0.35401,-0.79375 -0.79375,-0.79375z" fill="#f90047"></path><path d="M2.63174,2.39417c0.13526,0 0.27049,0.0519 0.37414,0.15555c0.20729,0.20729 0.20729,0.54098 0,0.74827l-0.40618,0.40618h3.48454c0.29316,0 0.52917,0.23601 0.52917,0.52917c0,0.29316 -0.23601,0.52917 -0.52917,0.52917h-3.48454l0.40618,0.40618c0.20729,0.20729 0.20729,0.54098 0,0.74827c-0.20729,0.20729 -0.54098,0.20729 -0.74827,0l-1.30948,-1.30948c-0.20729,-0.20729 -0.20729,-0.54098 0,-0.74827l1.30948,-1.30948c0.10365,-0.10365 0.23887,-0.15555 0.37414,-0.15555z" fill="#7091ac"></path><path d="M2.63195,2.39417c-0.09176,0 -0.18271,0.02567 -0.26458,0.07338c0.03883,0.02263 0.07621,0.04882 0.10955,0.08217c0.20729,0.20729 0.20729,0.54098 0,0.74827l-0.40618,0.40618h0.52917l0.40618,-0.40618c0.20729,-0.20729 0.20729,-0.54098 0,-0.74827c-0.10365,-0.10365 -0.23887,-0.15555 -0.37414,-0.15555z" fill="#404243"></path><path d="M2.63195,2.39417c-0.13527,0 -0.27049,0.0519 -0.37414,0.15555l-1.30948,1.30948c-0.20729,0.20729 -0.20729,0.54098 0,0.74827l1.30948,1.30948c0.17395,0.17395 0.43614,0.20016 0.63872,0.08217c-0.03883,-0.02262 -0.07621,-0.04883 -0.10955,-0.08217l-1.30948,-1.30948c-0.20729,-0.20729 -0.20729,-0.54098 0,-0.74827l1.30948,-1.30948c0.03334,-0.03334 0.07073,-0.05954 0.10955,-0.08217c-0.08187,-0.04771 -0.17283,-0.07338 -0.26458,-0.07338z" fill="#fbfcfe"></path><path d="M5.55529,3.70417c0.29316,0 0.52917,0.23601 0.52917,0.52917c0,0.29316 -0.23601,0.52917 -0.52917,0.52917h0.52917c0.29316,0 0.52917,-0.23601 0.52917,-0.52917c0,-0.29316 -0.23601,-0.52917 -0.52917,-0.52917z" fill="#404243"></path><path d="M2.07074,4.7625l0.40618,0.40618c0.20729,0.20729 0.2073,0.54098 0,0.74827c-0.03334,0.03334 -0.07073,0.05955 -0.10955,0.08216c0.20258,0.118 0.46477,0.09179 0.63872,-0.08216c0.20729,-0.20729 0.20729,-0.54098 0,-0.74827l-0.40618,-0.40618z" fill="#404243"></path><path d="M3.70536,0.52914c-0.59205,-0.00005 -1.05881,0.47711 -1.05881,1.05885v0.5426c-0.0052,-0.00011 -0.01031,-0.0015 -0.0155,-0.0015c-0.20294,0 -0.40689,0.08031 -0.56067,0.23409l-1.31046,1.30896c-0.30767,0.30768 -0.30767,0.81525 0,1.12293l1.3115,1.31051c0.15897,0.15898 0.3677,0.23433 0.57462,0.22996v0.54312c0,0.59104 0.47761,1.05885 1.05933,1.05885h3.17333c0.58172,0 1.05881,-0.46834 1.05881,-1.05885v-5.29063c0,-0.58174 -0.46832,-1.0588 -1.05881,-1.05885zM6.87869,1.05882c0.29152,0.00002 0.52966,0.23143 0.52966,0.52917v5.29063c0,0.29773 -0.23925,0.52968 -0.52966,0.52968h-3.17333c-0.29772,0 -0.53018,-0.23815 -0.53018,-0.52968v-0.76171c0.0052,-0.0049 0.01142,-0.0083 0.01654,-0.01344c0.29534,-0.29535 0.31301,-0.76583 0.04134,-1.0759h2.85346c0.43515,0 0.79269,-0.35394 0.79269,-0.7953c0,-0.44136 -0.35754,-0.79272 -0.79269,-0.79272h-2.85346c0.27167,-0.31008 0.254,-0.78107 -0.04134,-1.07642c-0.0048,-0.0048 -0.01056,-0.0082 -0.0155,-0.01292v-0.76223c0,-0.29773 0.23762,-0.52971 0.52914,-0.52968zM2.81863,2.73624c0.1007,0.10071 0.1069,0.26826 0,0.37517l-0.40616,0.40618c-0.16524,0.1662 -0.04884,0.44928 0.18551,0.45113h3.48854c0.15115,0 0.26354,0.1217 0.26354,0.26355c0,0.14185 -0.11239,0.26562 -0.26354,0.26562h-3.48854c-0.23435,0.00191 -0.35075,0.28494 -0.18551,0.45113l0.40409,0.40514c0.10677,0.10704 0.10535,0.27085 0,0.3762c-0.1069,0.10691 -0.27032,0.10174 -0.37722,-0.0052l-1.30426,-1.30535c-0.1069,-0.10691 -0.10277,-0.27033 0,-0.3731l1.3084,-1.31051c0.05351,-0.05351 0.11999,-0.07803 0.18758,-0.07801c0.06758,0.00002 0.13407,0.02454 0.18758,0.07805z" fill="#000000"></path></g></g></svg>