<svg version="1.1" xmlns="http://www.w3.org/2000/svg" xmlns:xlink="http://www.w3.org/1999/xlink" width="100%" height="100%" viewBox="0,0,256,256"><g fill="none" fill-rule="nonzero" stroke="none" stroke-width="1" stroke-linecap="butt" stroke-linejoin="miter" stroke-miterlimit="10" stroke-dasharray="" stroke-dashoffset="0" font-family="none" font-weight="none" font-size="none" text-anchor="none" style="mix-blend-mode: normal"><g transform="scale(4,4)"><path d="M49,63h-22c-3.314,0 -6,-2.686 -6,-6v-27.75l8,-2.25l-8,-11.437v-8.563c0,-3.314 2.686,-6 6,-6h22c3.314,0 6,2.686 6,6v50c0,3.314 -2.686,6 -6,6z" fill="#b8beca"></path><path d="M55,53h-34v-20.25l7,-8.75l-7,-6.701v-8.299h34z" fill="#1589dc"></path><path d="M37,53l18.375,-18.375l-0.375,-14.625l-33,33zM21,50l34,-34v-6l-34,34zM21,40l31,-31h-5l-26,26z" fill="#232d35"></path><path d="M39.502,12.996l1.238,2.264l2.264,1.238l-2.264,1.238l-1.238,2.264l-1.238,-2.264l-2.264,-1.238l2.264,-1.238zM46.419,22.162l0.855,1.564l1.564,0.855l-1.564,0.855l-0.855,1.564l-0.855,-1.564l-1.564,-0.855l1.564,-0.855zM44.648,37.704l0.583,1.065l1.065,0.583l-1.065,0.583l-0.583,1.065l-0.583,-1.065l-1.065,-0.583l1.065,-0.583z" fill="#ecf104"></path><path d="M31,49h-24c-1.105,0 -2,-0.895 -2,-2v-16c0,-1.105 0.895,-2 2,-2h24c1.105,0 2,0.895 2,2v16c0,1.105 -0.895,2 -2,2z" fill="#bfc1c7"></path><path d="M13.125,29.125h-4.125c0,0 -3,-16.125 10,-16.125c13,0 10.25,16.125 10.25,16.125l-3.5,0.125c0,0 1.25,-12.25 -6.75,-12.25c-8,0 -5.875,12.125 -5.875,12.125z" fill="#f5c872"></path><path d="M30.5,49h-23c-1.381,0 -2.5,-0.119 -2.5,-1.5v0c0,-1.381 1.119,-2.5 2.5,-2.5h23c1.381,0 2.5,1.119 2.5,2.5v0c0,1.381 -1.119,1.5 -2.5,1.5z" fill="#b8beca"></path><g fill="#2e0a41"><path d="M49,0h-22c-3.859,0 -7,3.141 -7,7v5c0,0.018 0.009,0.033 0.01,0.051c-0.333,-0.03 -0.669,-0.051 -1.01,-0.051c-6.065,0 -11,4.935 -11,11v5h-1c-1.654,0 -3,1.346 -3,3v16c0,1.654 1.346,3 3,3h13v7c0,3.859 3.141,7 7,7h22c3.859,0 7,-3.141 7,-7v-50c0,-3.859 -3.141,-7 -7,-7zM27,2h22c2.757,0 5,2.243 5,5v1h-32v-1c0,-2.757 2.243,-5 5,-5zM10,23c0,-4.963 4.037,-9 9,-9c4.963,0 9,4.037 9,9v5h-2v-5c0,-3.859 -3.141,-7 -7,-7c-3.859,0 -7,3.141 -7,7v5h-2zM24,28h-10v-5c0,-2.757 2.243,-5 5,-5c2.757,0 5,2.243 5,5zM6,47v-16c0,-0.552 0.448,-1 1,-1h1h4h14h4h1c0.552,0 1,0.448 1,1v16c0,0.552 -0.448,1 -1,1h-24c-0.552,0 -1,-0.448 -1,-1zM31,50c1.654,0 3,-1.346 3,-3v-16c0,-1.654 -1.346,-3 -3,-3h-1v-5c0,-5.056 -3.433,-9.315 -8.088,-10.596c0.055,-0.124 0.088,-0.26 0.088,-0.404v-2h32v42h-32v-2zM49,62h-22c-2.757,0 -5,-2.243 -5,-5v-3h32v3c0,2.757 -2.243,5 -5,5z"></path><path d="M38,56c-1.10457,0 -2,0.89543 -2,2c0,1.10457 0.89543,2 2,2c1.10457,0 2,-0.89543 2,-2c0,-1.10457 -0.89543,-2 -2,-2zM39,6h4c0.553,0 1,-0.447 1,-1c0,-0.553 -0.447,-1 -1,-1h-4c-0.553,0 -1,0.447 -1,1c0,0.553 0.447,1 1,1zM33,6h2c0.553,0 1,-0.447 1,-1c0,-0.553 -0.447,-1 -1,-1h-2c-0.553,0 -1,0.447 -1,1c0,0.553 0.447,1 1,1zM41,34.057c0.553,0 1,-0.447 1,-1v-2c0,-0.553 -0.447,-1 -1,-1c-0.553,0 -1,0.447 -1,1v2c0,0.552 0.447,1 1,1zM36,34.057c0.553,0 1,-0.447 1,-1v-2c0,-0.553 -0.447,-1 -1,-1c-0.553,0 -1,0.447 -1,1v2c0,0.552 0.447,1 1,1zM46,34.057c0.553,0 1,-0.447 1,-1v-2c0,-0.553 -0.447,-1 -1,-1c-0.553,0 -1,0.447 -1,1v2c0,0.552 0.447,1 1,1zM51,34.057c0.553,0 1,-0.447 1,-1v-2c0,-0.553 -0.447,-1 -1,-1c-0.553,0 -1,0.447 -1,1v2c0,0.552 0.447,1 1,1zM25,46h4c0.553,0 1,-0.447 1,-1c0,-0.553 -0.447,-1 -1,-1h-4c-0.553,0 -1,0.447 -1,1c0,0.553 0.447,1 1,1zM22,45c0,-0.553 -0.447,-1 -1,-1h-12c-0.553,0 -1,0.447 -1,1c0,0.553 0.447,1 1,1h12c0.553,0 1,-0.447 1,-1z"></path></g></g></g></svg>