<svg version="1.1" xmlns="http://www.w3.org/2000/svg" xmlns:xlink="http://www.w3.org/1999/xlink" width="100%" height="100%" viewBox="0,0,256,256"><g fill="none" fill-rule="nonzero" stroke="none" stroke-width="1" stroke-linecap="butt" stroke-linejoin="miter" stroke-miterlimit="10" stroke-dasharray="" stroke-dashoffset="0" font-family="none" font-weight="none" font-size="none" text-anchor="none" style="mix-blend-mode: normal"><g transform="scale(2.56,2.56)"><path d="M67.661,22.811c-2.056,-4.254 -6.417,-7.567 -11.017,-8.573c-9.842,-2.153 -19.622,5.239 -19.955,15.373c-0.16,4.875 2.013,10.157 5.842,13.246c4.545,3.667 10.926,5.028 16.461,2.829c0.928,-0.369 1.777,-0.966 2.42,-1.712c1.948,-1.414 3.609,-3.276 4.911,-5.317c1.407,-2.207 2.436,-4.719 2.785,-7.317c0.402,-2.995 -0.135,-5.814 -1.447,-8.529z" fill="#e7ddce"></path><path d="M80.957,65.455c-1.748,-2.177 -3.901,-3.956 -6.184,-5.552c-4.675,-3.266 -10.895,-5.564 -16.7,-5.245c-5.482,-0.881 -10.952,-0.462 -16.449,0.336c-5.38,0.781 -10.674,2.556 -14.783,6.237c-3.784,3.39 -6.491,8.46 -7.557,13.394c-0.918,4.25 1.896,8.11 6.307,8.28c13.205,0.508 26.406,-0.155 39.613,-0.097c3.133,0.014 6.266,0.072 9.396,0.204c1.793,0.076 3.494,0.232 5.262,-0.25c3.266,-0.89 5.601,-4.094 5.624,-7.436c0.025,-3.673 -2.317,-7.115 -4.529,-9.871z" fill="#980cb4"></path><path d="M50.149,61.844c-0.678,-1.159 -2.098,-1.433 -3.242,-0.85c-0.294,0.15 -0.58,0.315 -0.87,0.473c-0.556,-0.347 -1.243,-0.503 -1.905,-0.348c-0.066,0.015 -0.129,0.039 -0.194,0.056c-0.581,-0.487 -1.39,-0.688 -2.169,-0.495c-5.656,1.399 -10.272,5.912 -11.884,11.495c-0.325,1.124 0.302,2.365 1.372,2.795c1.02,0.41 2.436,0.108 2.959,-0.969c0.106,-0.219 0.223,-0.433 0.339,-0.631c0.148,0.33 0.373,0.633 0.697,0.875c0.855,0.639 2.369,0.752 3.111,-0.185c1.513,-1.91 3.214,-3.662 5.094,-5.213c1.622,-1.338 3.768,-2.705 5.842,-3.762c1.14,-0.58 1.47,-2.183 0.85,-3.241z" fill="#c1add4"></path><path d="M54.476,43.499c3.37,-0.367 6.653,-1.773 9.307,-4.299c3.533,-3.362 5.688,-8.652 5.125,-13.539c-1.52,-13.194 -16.875,-18.304 -27.022,-10.429c-2.387,1.853 -3.982,4.239 -4.951,7.095c-1.518,4.474 -0.732,9.894 1.842,13.838c1.543,2.364 3.607,4.19 5.942,5.441" fill="none"></path><path d="M54.476,43.499c0,0 0.319,-0.063 0.91,-0.22c0.591,-0.156 1.456,-0.416 2.503,-0.879c2.07,-0.907 4.959,-2.752 7.019,-6.11c2.05,-3.298 3.386,-8.091 1.755,-12.782c-0.724,-2.344 -2.109,-4.557 -4.083,-6.261c-1.967,-1.707 -4.501,-2.9 -7.244,-3.374c-2.745,-0.481 -5.545,-0.219 -8.041,0.658c-0.648,0.163 -1.219,0.5 -1.816,0.764c-0.612,0.24 -1.141,0.621 -1.687,0.962c-1.135,0.647 -2.034,1.465 -2.845,2.36c-1.585,1.787 -2.647,4.035 -3.135,6.158c-0.49,2.166 -0.446,4.333 -0.109,6.257c0.686,3.885 2.664,6.664 4.259,8.279c0.8,0.819 1.505,1.385 1.994,1.751c0.491,0.366 0.763,0.542 0.763,0.542c0,0 -0.301,-0.117 -0.858,-0.388c-0.555,-0.271 -1.365,-0.707 -2.331,-1.406c-0.963,-0.699 -2.078,-1.678 -3.147,-3.036c-1.074,-1.357 -2.058,-3.121 -2.73,-5.231c-0.652,-2.109 -1.009,-4.579 -0.689,-7.25c0.346,-2.685 1.338,-5.436 3.222,-7.932c0.941,-1.219 2.102,-2.389 3.422,-3.257c0.65,-0.461 1.291,-0.956 2.034,-1.304c0.727,-0.371 1.437,-0.806 2.237,-1.057c3.101,-1.23 6.675,-1.649 10.186,-1.032c3.509,0.606 6.769,2.223 9.239,4.548c2.483,2.316 4.108,5.321 4.792,8.291c0.291,1.492 0.56,2.939 0.513,4.414c-0.033,1.455 -0.268,2.837 -0.632,4.117c-0.739,2.561 -1.951,4.729 -3.354,6.44c-2.82,3.487 -6.248,4.936 -8.52,5.502c-1.157,0.291 -2.071,0.389 -2.688,0.433c-0.616,0.047 -0.939,0.043 -0.939,0.043z" fill="#4ee2ba"></path><path d="M28.579,64.707c0,0 -0.1,0.08 -0.293,0.236c-0.194,0.156 -0.486,0.385 -0.845,0.715c-0.726,0.649 -1.758,1.666 -2.9,3.15c-1.131,1.487 -2.375,3.442 -3.409,5.932c-0.261,0.621 -0.503,1.277 -0.728,1.964c-0.12,0.342 -0.211,0.699 -0.32,1.057c-0.093,0.37 -0.194,0.789 -0.247,1.202c-0.225,1.662 0.037,3.592 1.096,5.271c1.018,1.684 2.848,3.055 4.988,3.513c0.265,0.072 0.533,0.117 0.805,0.146c0.266,0.034 0.565,0.074 0.774,0.085c0.46,0.034 0.924,0.068 1.392,0.103c0.938,0.062 1.891,0.125 2.859,0.189c3.875,0.234 8.01,0.424 12.36,0.569c8.703,0.291 18.262,0.447 28.321,0.306c2.521,-0.037 4.989,-0.094 7.51,-0.219l0.96,-0.057c0.356,-0.025 0.971,-0.104 1.408,-0.198c0.793,-0.234 1.547,-0.56 2.245,-0.965c1.384,-0.826 2.53,-1.943 3.371,-3.233c0.846,-1.286 1.405,-2.75 1.603,-4.275c0.198,-1.591 0.008,-2.923 -0.287,-4.272c-0.307,-1.333 -0.813,-2.569 -1.425,-3.688c-0.607,-1.125 -1.307,-2.154 -2.076,-3.076c-3.079,-3.705 -6.793,-6.113 -10.372,-7.944c-3.601,-1.815 -7.177,-2.977 -10.531,-3.62c-1.679,-0.316 -3.308,-0.493 -4.865,-0.506c-1.495,-0.004 -2.893,0.013 -4.209,0.044c-2.63,0.066 -4.896,0.212 -6.738,0.416c-1.842,0.198 -3.259,0.435 -4.214,0.618c-0.946,0.194 -1.451,0.298 -1.451,0.298c0,0 0.513,-0.027 1.476,-0.078c0.967,-0.042 2.392,-0.078 4.222,-0.032c1.83,0.039 4.063,0.175 6.65,0.411c1.299,0.131 2.682,0.271 4.143,0.419c1.398,0.163 2.871,0.478 4.388,0.921c3.03,0.895 6.259,2.277 9.423,4.198c3.141,1.916 6.323,4.376 8.635,7.524c1.139,1.564 2.038,3.307 2.364,5.096c0.159,0.869 0.226,1.861 0.091,2.572c-0.13,0.77 -0.454,1.544 -0.93,2.214c-0.47,0.677 -1.098,1.239 -1.788,1.63c-0.349,0.188 -0.713,0.332 -1.084,0.437c-0.072,0.007 -0.115,-0.011 -0.172,-0.007l-0.079,0.005l-0.041,0.006l-0.108,0.004l-0.865,0.036c-2.358,0.08 -4.844,0.119 -7.336,0.155c-9.993,0.14 -19.541,0.307 -28.214,0.501c-4.309,0.091 -8.427,0.177 -12.309,0.258c-0.96,0.014 -1.904,0.028 -2.834,0.042c-0.463,0.005 -0.922,0.01 -1.376,0.015c-0.248,0.008 -0.402,-0.008 -0.587,-0.012c-0.181,0 -0.36,-0.012 -0.532,-0.046c-1.406,-0.167 -2.632,-0.907 -3.43,-1.954c-0.821,-1.039 -1.171,-2.369 -1.141,-3.638c0.007,-0.323 0.046,-0.624 0.089,-0.958c0.064,-0.339 0.111,-0.678 0.186,-1.005c0.136,-0.659 0.292,-1.294 0.468,-1.903c0.695,-2.441 1.641,-4.455 2.539,-6.027c0.907,-1.57 1.77,-2.704 2.388,-3.443c0.304,-0.375 0.557,-0.644 0.725,-0.827c0.17,-0.18 0.257,-0.275 0.257,-0.275z" fill="#4ee2ba"></path></g></g></svg>